<svg xmlns="http://www.w3.org/2000/svg" width="97" height="17" viewBox="0 0 97 17">
  <path d="M0,16.59V.43H10.67V3.19H3.09V7.35h6.3V9.9H3.09v6.69Zm16,0V.43h7.28A4.87,4.87,0,0,1,25.37.9,5.28,5.28,0,0,1,27,2.12a5.71,5.71,0,0,1,1.08,1.74,5.24,5.24,0,0,1-.42,4.8,4.59,4.59,0,0,1-2.15,1.86l3.85,6.07H25.72L22.3,11.18H19.19v5.41Zm3.19-8.16h4a1.76,1.76,0,0,0,.81-.2,2.06,2.06,0,0,0,.65-.56,2.53,2.53,0,0,0,.43-.81,2.83,2.83,0,0,0,.16-1A2.75,2.75,0,0,0,24.57,4a2.35,2.35,0,0,0-.74-.55,1.62,1.62,0,0,0-.83-.2H19.19Zm15.49,8.18V.43h2.66V16.59Zm9.78,0V.43h5.66a8.51,8.51,0,0,1,3.34.63,6.76,6.76,0,0,1,2.43,1.73,7,7,0,0,1,1.46,2.56,10.26,10.26,0,0,1,.47,3.16,9.71,9.71,0,0,1-.55,3.34,7.1,7.1,0,0,1-1.55,2.58,6.78,6.78,0,0,1-2.43,1.62,8.21,8.21,0,0,1-3.17.58Zm10.29-8.1a7.27,7.27,0,0,0-.31-2.08,4.63,4.63,0,0,0-.9-1.68,3.8,3.8,0,0,0-1.47-1.1,5.08,5.08,0,0,0-2-.41H47.49V13.83h2.63a4.59,4.59,0,0,0,2-.4,4.17,4.17,0,0,0,1.47-1.13,5.17,5.17,0,0,0,.89-1.69A6.77,6.77,0,0,0,54.75,8.51Zm7.49,8.08L68.55.43h2.52l6.29,16.16H74.07l-1.47-4H67l-1.47,4ZM69.81,3.82l-2.3,6.53H72ZM82.45.43l3.81,7.78L90.12.43h3.21L87.67,10.94v5.65h-3V10.94L79.14.43ZM97,14.75a1.84,1.84,0,1,1-1.85-1.83h0A1.85,1.85,0,0,1,97,14.75Z" fill="#212121"/>
</svg>
