<svg xmlns="http://www.w3.org/2000/svg" width="82" height="19" viewBox="0 0 82 19">
  <path d="M.1,18.28c-.07,0-.1,0-.1-.12L.05.86A.1.1,0,0,1,.1.75H3.24a.22.22,0,0,1,.18.1L5.67,4.2,8,.86a.22.22,0,0,1,.18-.1h3.1c.07,0,.1,0,.1.1v17.3c0,.08,0,.12-.1.12H8.46c-.07,0-.1,0-.1-.12V5.32L5.67,9.14,3.09,5.32V18.16c0,.08,0,.12-.1.12Z" fill="#212121"/>
  <path d="M21.2,18.28a.11.11,0,0,1-.13-.09h0V.86a.09.09,0,0,1,0-.12H24a.09.09,0,0,1,.1.08h0v17.3c0,.08,0,.12-.1.12Z" fill="#212121"/>
  <path d="M38.54,18.5a4.7,4.7,0,0,1-2.5-.7A5,5,0,0,1,34.27,16a5.19,5.19,0,0,1-.66-2.58V5.56A5,5,0,0,1,36,1.19a4.87,4.87,0,0,1,5,0,5.08,5.08,0,0,1,2.42,4.38V6.73a.1.1,0,0,1-.08.1H40.53a.11.11,0,0,1-.09-.08h0V5.5a2,2,0,0,0-.55-1.43,1.66,1.66,0,0,0-1.35-.57,1.61,1.61,0,0,0-1.38.61,2.25,2.25,0,0,0-.48,1.39v7.9a2.1,2.1,0,0,0,.52,1.51,1.79,1.79,0,0,0,1.32.58,1.73,1.73,0,0,0,1.35-.64,2.21,2.21,0,0,0,.54-1.45V12.24a.08.08,0,0,1,.06-.1h2.88a.08.08,0,0,1,.1.07V13.4A5.2,5.2,0,0,1,42.79,16,5.28,5.28,0,0,1,41,17.83,4.71,4.71,0,0,1,38.54,18.5Z" fill="#212121"/>
  <path d="M53,18.28c-.07,0-.1,0-.1-.13L53,.86a.09.09,0,0,1,0-.1h5.1a4.81,4.81,0,0,1,2.51.66,5.14,5.14,0,0,1,1.83,1.79,5.1,5.1,0,0,1,.4,4.21,5,5,0,0,1-.66,1.25,4.13,4.13,0,0,1-.68.77A5.11,5.11,0,0,1,62.84,13v5.16c0,.08,0,.12-.13.12H59.89c-.06,0-.1,0-.1-.07V13a2.19,2.19,0,0,0-.64-1.51,2.07,2.07,0,0,0-1.55-.67H55.94v7.4c0,.09,0,.13-.1.13ZM56,7.73h2.1a2.06,2.06,0,0,0,1.39-.58,1.94,1.94,0,0,0,.09-2.72l-.09-.08a2,2,0,0,0-1.4-.58H55.94Z" fill="#212121"/>
  <path d="M77.09,18.5a4.72,4.72,0,0,1-2.48-.7A5.26,5.26,0,0,1,72.81,16a4.79,4.79,0,0,1-.68-2.47v-8A4.83,4.83,0,0,1,72.82,3a5.15,5.15,0,0,1,1.8-1.82,4.75,4.75,0,0,1,4.93,0A5,5,0,0,1,81.33,3,4.73,4.73,0,0,1,82,5.5v8A4.83,4.83,0,0,1,81.33,16a5.17,5.17,0,0,1-1.79,1.84A4.77,4.77,0,0,1,77.09,18.5Zm0-3a1.77,1.77,0,0,0,1.3-.62A2,2,0,0,0,79,13.5v-8a2,2,0,0,0-.51-1.41,1.85,1.85,0,0,0-2.68,0,2,2,0,0,0-.55,1.44v8a2,2,0,0,0,.55,1.42A1.82,1.82,0,0,0,77.09,15.5Z" fill="#212121"/>
</svg>
