<svg xmlns="http://www.w3.org/2000/svg" width="120" height="34" viewBox="0 0 120 34">
  <path d="M3.36,9.64a1.84,1.84,0,0,0-1.24.48,1.57,1.57,0,0,0-.2,2.21,1.8,1.8,0,0,0,.2.19A1.84,1.84,0,0,0,3.36,13a1.91,1.91,0,0,0,1.23-.46,1.47,1.47,0,0,0,.57-1.21,1.51,1.51,0,0,0-.55-1.21A1.77,1.77,0,0,0,3.36,9.64ZM1.73,27.47a5.09,5.09,0,0,1-.48,2.3A4.43,4.43,0,0,1,0,31.4l1.84,2a5.11,5.11,0,0,0,2.34-2.21,7.67,7.67,0,0,0,.74-3.49v-12H1.73Zm21.38-6.56a6,6,0,0,1-.42,2.3,3.93,3.93,0,0,1-1.14,1.59,2.64,2.64,0,0,1-1.66.58,1.76,1.76,0,0,1-1.47-.55,2.39,2.39,0,0,1-.48-1.43V15.63H14.82v8.84a3.57,3.57,0,0,0,1.12,2.58,3.67,3.67,0,0,0,2.67,1,5.43,5.43,0,0,0,2-.29,4.52,4.52,0,0,0,1.58-1,4.36,4.36,0,0,0,1-1.37l.21,2.16h2.85V15.63H23.12Zm21-5.78a5.52,5.52,0,0,0-3,.73,4.71,4.71,0,0,0-1.78,1.92l-.24-2.16h-2.8v12h3.16V22.29A6,6,0,0,1,39.86,20a3.59,3.59,0,0,1,1.19-1.56,2.7,2.7,0,0,1,1.73-.58,2,2,0,0,1,1.53.58,2.2,2.2,0,0,1,.5,1.48v7.71H48V18.68a3.38,3.38,0,0,0-1.14-2.56,4,4,0,0,0-2.77-1ZM67.84,17a4.83,4.83,0,0,0-1.79-1.34,6.59,6.59,0,0,0-2.8-.57,6,6,0,0,0-3,.84A6.49,6.49,0,0,0,58,18.19a6.81,6.81,0,0,0-.06,6.58A6.25,6.25,0,0,0,60.16,27a5.65,5.65,0,0,0,3,.83,6.1,6.1,0,0,0,3.15-.79,4.6,4.6,0,0,0,1.57-1.53v2a2.84,2.84,0,0,1-.47,1.72A3.21,3.21,0,0,1,66,30.4a4.59,4.59,0,0,1-2,.4,4.51,4.51,0,0,1-2.22-.52A10.38,10.38,0,0,1,60.05,29l-1.83,2.22a13,13,0,0,0,1.47,1.19,8,8,0,0,0,1.79.86,8.82,8.82,0,0,0,6.17-.45,6.37,6.37,0,0,0,2.4-2.12,5.2,5.2,0,0,0,.89-3v-12H68.08ZM67,24.08a4,4,0,0,1-1.3.87,4.36,4.36,0,0,1-1.68.31,3.68,3.68,0,0,1-3.29-1.86,4,4,0,0,1-.5-2,3.77,3.77,0,0,1,.5-2,3.49,3.49,0,0,1,1.35-1.32,4,4,0,0,1,1.92-.4,4.52,4.52,0,0,1,1.67.29,3.51,3.51,0,0,1,1.32.86,3.57,3.57,0,0,1,.83,1.32v2.62A3.9,3.9,0,0,1,67,24.1ZM81,5.55h3.16v22H81Zm20.06,18.92a4.53,4.53,0,0,1-1.63.3,4.18,4.18,0,0,1-2.16-.54A3.65,3.65,0,0,1,96,23l10.62-3.57a8.28,8.28,0,0,0-2.46-4.63,6.77,6.77,0,0,0-4.69-1.66,8,8,0,0,0-3.94,1,7.74,7.74,0,0,0-2.82,2.66,6.81,6.81,0,0,0-1,3.76,7.8,7.8,0,0,0,.91,3.87A6.6,6.6,0,0,0,95.29,27a8.42,8.42,0,0,0,4.12.94,8.17,8.17,0,0,0,2.5-.4,10.94,10.94,0,0,0,2.38-1.1l-1.67-2.71A6.32,6.32,0,0,1,101.06,24.47Zm-5.34-6.42a3.86,3.86,0,0,1,1.39-1.58,3.7,3.7,0,0,1,2-.55,3.24,3.24,0,0,1,2.26.73,4.49,4.49,0,0,1,1.11,1.58l-7.25,2.6v-.6a4.63,4.63,0,0,1,.49-2.2ZM99.41,1.47a3.32,3.32,0,0,0-.67-.23,1.79,1.79,0,0,0-.65-.08,1,1,0,0,0-.65.23.6.6,0,0,0-.2.52.53.53,0,0,0,.19.4,1.83,1.83,0,0,0,.44.28l.58.2c.17.06.35.12.51.19a2.31,2.31,0,0,1,.48.28,1.7,1.7,0,0,1,.35.45,2,2,0,0,1,.21.69,1.51,1.51,0,0,1-.78,1.44,2.34,2.34,0,0,1-1,.28,2.73,2.73,0,0,1-.7,0,3.31,3.31,0,0,1-1.23-.45l.36-.73a2.35,2.35,0,0,0,.45.22,1.82,1.82,0,0,0,.5.16,1.29,1.29,0,0,0,.48,0,1.13,1.13,0,0,0,.48-.11,1,1,0,0,0,.38-.28A.74.74,0,0,0,99,4.47a.66.66,0,0,0-.17-.4,1.46,1.46,0,0,0-.38-.27A1.82,1.82,0,0,0,98,3.6c-.18-.05-.37-.12-.55-.19a2.77,2.77,0,0,1-.54-.28,1.45,1.45,0,0,1-.4-.42,1.43,1.43,0,0,1-.18-.63,1.53,1.53,0,0,1,.16-.82A1.5,1.5,0,0,1,97,.68,1.79,1.79,0,0,1,97.87.4a3.06,3.06,0,0,1,1,.08,3.7,3.7,0,0,1,.78.3Zm4.17-.74,3.6,1.15-.26.85-1.39-.44-1.47,4.55-.83-.27L104.71,2l-1.35-.43Zm5.74,6.58a1.1,1.1,0,0,0-.26.58,1.34,1.34,0,0,0,0,.63,1.17,1.17,0,0,0,.38.55,1.19,1.19,0,0,0,.61.31,1.16,1.16,0,0,0,.64,0,1.11,1.11,0,0,0,.53-.34l2.37-2.72.67.58-2.41,2.68a1.9,1.9,0,0,1-.94.63,2,2,0,0,1-1.08,0,2.26,2.26,0,0,1-1-.53,2.38,2.38,0,0,1-.65-.92,2,2,0,0,1-.12-1.07,1.86,1.86,0,0,1,.49-1L111,4l.69.6Zm2.68,5.8,5.17-2.21.63,1.5a3.63,3.63,0,0,1,.32,1.42,2.47,2.47,0,0,1-.24,1.13,2.87,2.87,0,0,1-.65.86,3.08,3.08,0,0,1-.89.57,3,3,0,0,1-1.14.23,2.57,2.57,0,0,1-1.89-.83,3.16,3.16,0,0,1-.59-.91Zm1.16.49.31.74a2.42,2.42,0,0,0,.44.74,1.89,1.89,0,0,0,.6.45,1.56,1.56,0,0,0,.74.15,2.14,2.14,0,0,0,.83-.19,2.19,2.19,0,0,0,.73-.51,1.78,1.78,0,0,0,.39-.66,1.86,1.86,0,0,0,.07-.7,2,2,0,0,0-.16-.65l-.37-.87Zm6.52,5.87v.93l-5.64.28v-.9Zm-2.78,4.39a2.9,2.9,0,0,1,1,.56,3,3,0,0,1,1,1.94,2.93,2.93,0,0,1-.71,2.15,3,3,0,0,1-.89.68,2.88,2.88,0,0,1-2.21.17,2.77,2.77,0,0,1-1-.57,3,3,0,0,1-1-2,2.93,2.93,0,0,1,.73-2.12,2.86,2.86,0,0,1,3.09-.83Zm-.28.88a2,2,0,0,0-2.53,1.2h0a1.87,1.87,0,0,0,.6,2.07,2.28,2.28,0,0,0,1.53.49,2.07,2.07,0,0,0,.74-.19,1.89,1.89,0,0,0,.6-.45,2,2,0,0,0,.39-.68,2.12,2.12,0,0,0,0-.71,1.91,1.91,0,0,0-.21-.74,1.87,1.87,0,0,0-.48-.6,2.08,2.08,0,0,0-.75-.36Z" fill="#212121"/>
</svg>
