<svg xmlns="http://www.w3.org/2000/svg" width="67" height="22" viewBox="0 0 67 22">
  <path d="M11.69,11.43a7.86,7.86,0,0,0-1.59-1.09,13.94,13.94,0,0,0-1.75-.82A17,17,0,0,1,6.4,8.65,5.29,5.29,0,0,1,4.89,7.59a2,2,0,0,1-.58-1.43,2.12,2.12,0,0,1,.84-1.79,3.68,3.68,0,0,1,2.32-.66,7.45,7.45,0,0,1,2.29.4,14.25,14.25,0,0,1,2.26,1l1.23-2.42a13.13,13.13,0,0,0-2.66-1.24A11.17,11.17,0,0,0,7,1a7.21,7.21,0,0,0-3.13.75,5.28,5.28,0,0,0-2.1,1.93A5.42,5.42,0,0,0,1,6.52a4.86,4.86,0,0,0,.49,2.25,4.76,4.76,0,0,0,1.32,1.57,9.44,9.44,0,0,0,1.84,1.08c.65.29,1.28.55,1.88.79a11.47,11.47,0,0,1,1.7.8,4.72,4.72,0,0,1,1.26,1A2,2,0,0,1,10,15.44a2.47,2.47,0,0,1-.54,1.69,3.21,3.21,0,0,1-1.4.92,5.33,5.33,0,0,1-1.68.28,6.19,6.19,0,0,1-1.71-.24,10,10,0,0,1-1.75-.67,8.77,8.77,0,0,1-1.5-.9L0,19A9.58,9.58,0,0,0,2,20.1a12.85,12.85,0,0,0,2.25.73,10.48,10.48,0,0,0,2.43.28,7.72,7.72,0,0,0,3.57-.78,5.66,5.66,0,0,0,2.28-2,5.4,5.4,0,0,0,.77-2.85,6.07,6.07,0,0,0-.42-2.38A4.61,4.61,0,0,0,11.69,11.43ZM41.33,1.22H37.9L33.64,14,28.56,1.22H25.4l1.92,4.83L24,14.38,19.35,1.22H15.72l7.94,20.61L28.9,10l4.66,11.77Zm6.46-1L39,20.91h3.13l1.93-4.69h7.21l1.85,4.65h3.62L48,.22Zm-2.63,13.3,2.57-6.3,2.48,6.27ZM67,1.22H63.51l-3.45,7.7-3.39-7.7H53.18L61.81,21h3.62L61.91,13Z" fill="#212121"/>
</svg>
