<svg xmlns="http://www.w3.org/2000/svg" width="90" height="32" viewBox="0 0 90 32">
  <path d="M37.36,16.87v.58a1.11,1.11,0,0,1-.27.72.81.81,0,0,1-.67.32.82.82,0,0,1-.66-.29,1,1,0,0,1-.27-.75V13.57a1,1,0,0,1,.24-.71.8.8,0,0,1,.69-.31.84.84,0,0,1,.67.3,1,1,0,0,1,.27.72v.63a.05.05,0,0,0,.06.05h1.46v-.64a2.47,2.47,0,0,0-3.73-2.19,2.58,2.58,0,0,0-.88.92A2.55,2.55,0,0,0,34,13.56v3.93a2.55,2.55,0,0,0,1.22,2.21,2.46,2.46,0,0,0,2.51,0,2.73,2.73,0,0,0,.89-.93m-1.26-1.9v.58a1.11,1.11,0,0,1-.27.72.81.81,0,0,1-.67.32.82.82,0,0,1-.66-.29,1,1,0,0,1-.27-.75V13.57a1,1,0,0,1,.24-.71.8.8,0,0,1,.69-.31.84.84,0,0,1,.67.3,1,1,0,0,1,.27.72v.63a.05.05,0,0,0,.06.05h1.46v-.64a2.47,2.47,0,0,0-3.73-2.19,2.58,2.58,0,0,0-.88.92A2.55,2.55,0,0,0,34,13.56v3.93a2.55,2.55,0,0,0,1.22,2.21,2.46,2.46,0,0,0,2.51,0,2.73,2.73,0,0,0,.89-.93,2.67,2.67,0,0,0,.33-1.3v-.6Z"/>
  <path d="M44.8,14.51a2.63,2.63,0,0,0,.13-.84,2.4,2.4,0,0,0-.34-1.25,2.7,2.7,0,0,0-.91-.9,2.44,2.44,0,0,0-1.26-.32H39.83v8.65s0,.07.05.07h1.37V16.2h.84a1.11,1.11,0,0,1,1.11,1.11v2.62h1.42a.06.06,0,0,0,.06-.05v-2.6A2.56,2.56,0,0,0,44,15.51,1.64,1.64,0,0,0,44.8,14.51Zm-1.66-.14a.94.94,0,0,1-.69.29H41.34v-2h1.09a1,1,0,0,1,.7.29.94.94,0,0,1,.29.69A1.24,1.24,0,0,1,43.14,14.37Z"/>
  <path d="M50.27,12.28a2.64,2.64,0,0,0-.89-.9A2.34,2.34,0,0,0,48.12,11a2.32,2.32,0,0,0-1.26.34,2.48,2.48,0,0,0-.89.9,2.34,2.34,0,0,0-.34,1.26v4A2.31,2.31,0,0,0,46,18.79a2.56,2.56,0,0,0,.94.91,2.4,2.4,0,0,0,2.48,0,2.67,2.67,0,0,0,.9-.93,2.6,2.6,0,0,0,.34-1.25v-4A2.59,2.59,0,0,0,50.27,12.28ZM49.1,17.49a1,1,0,0,1-.3.71.87.87,0,0,1-1.23.1h0l-.09-.09a1,1,0,0,1-.27-.71v-4a1,1,0,0,1,.27-.71.91.91,0,0,1,.7-.28.87.87,0,0,1,.67.29,1,1,0,0,1,.26.7Zm1.17-5.21a2.64,2.64,0,0,0-.89-.9A2.34,2.34,0,0,0,48.12,11a2.32,2.32,0,0,0-1.26.34,2.48,2.48,0,0,0-.89.9,2.34,2.34,0,0,0-.34,1.26v4A2.31,2.31,0,0,0,46,18.79a2.56,2.56,0,0,0,.94.91,2.4,2.4,0,0,0,2.48,0,2.67,2.67,0,0,0,.9-.93,2.6,2.6,0,0,0,.34-1.25v-4A2.59,2.59,0,0,0,50.27,12.28ZM49.1,17.49a1,1,0,0,1-.3.71.87.87,0,0,1-1.23.1h0l-.09-.09a1,1,0,0,1-.27-.71v-4a1,1,0,0,1,.27-.71.91.91,0,0,1,.7-.28.87.87,0,0,1,.67.29,1,1,0,0,1,.26.7Z"/>
  <path d="M55.85,16.23a3.08,3.08,0,0,0-1-.81l-.21-.12-.39-.21-.4-.21-.24-.14A1.7,1.7,0,0,1,53,14.2a1.3,1.3,0,0,1-.18-.69.93.93,0,0,1,.28-.7.89.89,0,0,1,.67-.3,1.07,1.07,0,0,1,.63.28,1,1,0,0,1,.27.72v1.05H56l.06-.05v-1a2.52,2.52,0,0,0-.33-1.26,2.7,2.7,0,0,0-.89-.89,2.44,2.44,0,0,0-2.45,0,2.33,2.33,0,0,0-.9.89,2.22,2.22,0,0,0-.34,1.25,2.72,2.72,0,0,0,.33,1.39,2.69,2.69,0,0,0,1.06,1l.8.45.63.35c.41.23.63.5.63.81a1.06,1.06,0,0,1-.27.7,1,1,0,0,1-.68.3.82.82,0,0,1-.66-.29.94.94,0,0,1-.28-.71v-.65H51.32a.07.07,0,0,0-.07.07v.58a2.31,2.31,0,0,0,.34,1.25,2.56,2.56,0,0,0,.88.91,2.47,2.47,0,0,0,2.52,0,2.51,2.51,0,0,0,.89-.91,2.64,2.64,0,0,0,.34-1.26A2.16,2.16,0,0,0,55.85,16.23Z"/>
  <path d="M60.18,15.42,60,15.3l-.38-.21-.4-.21L59,14.74a1.55,1.55,0,0,1-.63-.53,1.21,1.21,0,0,1-.18-.69.93.93,0,0,1,.28-.7.89.89,0,0,1,1.28,0h0a1,1,0,0,1,.27.72v1.05h1.41a0,0,0,0,0,.05-.05v-1a2.42,2.42,0,0,0-.33-1.26,2.7,2.7,0,0,0-.89-.89,2.53,2.53,0,0,0-2.48,0,2.3,2.3,0,0,0-.85.9,2.22,2.22,0,0,0-.34,1.25,2.8,2.8,0,0,0,.4,1.38,2.74,2.74,0,0,0,1,1l.81.45.63.35a.9.9,0,0,1,.35,1.51.9.9,0,0,1-1.27.07l-.07-.07a1,1,0,0,1-.27-.71v-.64H56.66a.06.06,0,0,0-.06.06v.58a2.42,2.42,0,0,0,.33,1.26,2.7,2.7,0,0,0,.9.91,2.46,2.46,0,0,0,2.51,0,2.49,2.49,0,0,0,1.23-2.17,2,2,0,0,0-.37-1.26A3,3,0,0,0,60.18,15.42Z"/>
  <path d="M68.37,11.2h-.09l-1.14,1.66L66,11.2a.06.06,0,0,0-.08,0H64.36v8.71h1.42V13.45l1.32,1.92,1.32-1.92v6.49h1.42V11.2"/>
  <path d="M75.24,18.38v1.47H71.17s0-.06,0-.06V11.14h4v1.52H72.59v2h2.58V16.2H72.58v2.19Z"/>
  <path d="M81,12.41a2.59,2.59,0,0,0-1-.89,2.3,2.3,0,0,0-1.22-.32H76.43a0,0,0,0,0-.05.05V19.9a.06.06,0,0,0,.05.06H78.7a2.63,2.63,0,0,0,2.65-2.64V13.67A2.44,2.44,0,0,0,81,12.41Zm-2.38,6h-.78v-5.7h.88a.93.93,0,0,1,.7.28,1.09,1.09,0,0,1,.3.7v3.62A1.12,1.12,0,0,1,78.62,18.42Zm2.38-6a2.59,2.59,0,0,0-1-.89,2.3,2.3,0,0,0-1.22-.32H76.43a0,0,0,0,0-.05.05V19.9a.06.06,0,0,0,.05.06H78.7a2.63,2.63,0,0,0,2.65-2.64V13.67A2.44,2.44,0,0,0,81,12.41Zm-2.38,6h-.78v-5.7h.88a.93.93,0,0,1,.7.28,1.09,1.09,0,0,1,.3.7v3.62A1.12,1.12,0,0,1,78.62,18.42Z"/>
  <path d="M83.76,11.2H82.35v8.65a.06.06,0,0,0,0,.06h1.43a.06.06,0,0,0,0-.06V11.2Z"/>
  <path d="M87.8,11.2h-2l-1.56,8.65v.06h1.39a.07.07,0,0,0,.07-.06l.13-.92H87.6l.13.92a.06.06,0,0,0,.07.06h1.4Zm-1.61,6.38L86.75,14v-.47l.08.47.51,3.54Z"/>
  <path d="M32.1,7.84a1,1,0,0,0,0-1.41h0L26.16.5a1,1,0,0,0-1.42,0h0L19.64,5.59a4.2,4.2,0,0,1-5.93,0h0L8.62.5A1,1,0,0,0,7.2.49h0L1.3,6.42a1,1,0,0,0,0,1.42h0l8,8.09h0L1.3,24a1,1,0,0,0,0,1.42h0l5.92,5.91a1,1,0,0,0,1.41,0h0l5.1-5.09a4.18,4.18,0,0,1,5.91,0h0l5.09,5.09a1,1,0,0,0,1.41,0l0,0h0l5.92-5.91a1,1,0,0,0,0-1.41v0h0l-8-8.08h0Z"/>
</svg>
