<svg xmlns="http://www.w3.org/2000/svg" width="98" height="27" viewBox="0 0 98 27">
  <path d="M13.43,11.73a3.92,3.92,0,0,0-3.5,2,3.06,3.06,0,0,0-3-2A4,4,0,0,0,3.6,13.32L3.5,12H0V26.27H3.73V15.9a1.72,1.72,0,0,1,1.53-1,1.31,1.31,0,0,1,1.18.55,3.51,3.51,0,0,1,.32,1.78v9.09H10.5V16.13c.34-.85.86-1.3,1.55-1.3a1.29,1.29,0,0,1,1.16.53,3.44,3.44,0,0,1,.35,1.76v9.13h3.73V16.92Q17.18,11.73,13.43,11.73Zm8.62-5.42a1.91,1.91,0,0,0-2,1.78v.18a1.9,1.9,0,0,0,1.83,2h.2A2,2,0,1,0,23,6.32h-.08a2,2,0,0,0-.84,0ZM20.22,12h3.71V26.26H20.22Zm13.46-.26a3.91,3.91,0,0,0-3.31,1.72L30.26,12H26.74V26.27h3.75V15.9a1.74,1.74,0,0,1,1.57-1,1.45,1.45,0,0,1,1.31.55,3.35,3.35,0,0,1,.36,1.76v9.13h3.75v-9.4c-.1-3.44-1.37-5.16-3.83-5.16Zm11.84,0a5.15,5.15,0,0,0-4.23,1.83,8,8,0,0,0-1.51,5.21v1.14a6.89,6.89,0,0,0,1.6,4.9,5.85,5.85,0,0,0,4.5,1.72A6.94,6.94,0,0,0,48.72,26a4.89,4.89,0,0,0,2-1.54L49.26,22.2a4.29,4.29,0,0,1-3.13,1.31,2.39,2.39,0,0,1-1.91-.74,3.85,3.85,0,0,1-.7-2.32H51V18.54a7.9,7.9,0,0,0-1.44-5.09,4.87,4.87,0,0,0-4-1.72Zm1.77,6H43.53a5,5,0,0,1,.53-2.28,1.77,1.77,0,0,1,2.48-.34h0a1.58,1.58,0,0,1,.3.28,4,4,0,0,1,.41,2Zm9.39-4.23L56.58,12H53.05V26.27H56.8V16.84a2,2,0,0,1,2.07-1.39l1.24.1V11.9a2.63,2.63,0,0,0-1-.17,2.69,2.69,0,0,0-2.47,1.81Zm14.95,2.95A4.55,4.55,0,0,0,70.33,13a5.12,5.12,0,0,0-3.63-1.22A5.51,5.51,0,0,0,63,13a4.1,4.1,0,0,0-1.49,3.26h3.75c0-1.1.46-1.64,1.4-1.64a1.18,1.18,0,0,1,1,.39,2.16,2.16,0,0,1,.34,1.4V17.6H66.76a6.21,6.21,0,0,0-4.16,1.24,4.34,4.34,0,0,0-1.43,3.47,4.18,4.18,0,0,0,1.18,3.07,4,4,0,0,0,3,1.19,3.23,3.23,0,0,0,2.71-1.37,6.12,6.12,0,0,0,.32,1.11h3.76v-.23a7,7,0,0,1-.53-2.89ZM67.9,22.76a1.76,1.76,0,0,1-.65.59,2,2,0,0,1-1.06.25C65.4,23.6,65,23.06,65,22a2.3,2.3,0,0,1,.54-1.61A2,2,0,0,1,67,19.79h.9ZM74.51,6h3.74V26.26H74.51ZM93,7.66a.58.58,0,0,0-.56.34v2.11a.58.58,0,0,0,.56.34.52.52,0,0,0,.48-.23,2,2,0,0,0,.14-.88V8.92a2.27,2.27,0,0,0-.14-1A.48.48,0,0,0,93,7.64ZM88.36,9.45a.78.78,0,0,0-.19.53c0,.35.14.52.41.52a.67.67,0,0,0,.34-.09.48.48,0,0,0,.21-.19v-1h-.29a.69.69,0,0,0-.51.19Zm1.1-9a7.91,7.91,0,1,0,7.92,7.91A7.9,7.9,0,0,0,89.46.45ZM86.08,11.37H84.86V4.77h1.22Zm4.37,0H89.22a2.54,2.54,0,0,1-.1-.37,1,1,0,0,1-.88.45,1.34,1.34,0,0,1-1-.38,1.57,1.57,0,0,1,.12-2.15,2.11,2.11,0,0,1,1.31-.39H89V8.16a.71.71,0,0,0-.11-.45.37.37,0,0,0-.31-.13c-.31,0-.46.18-.46.54H87a1.27,1.27,0,0,1,.48-1.06,1.82,1.82,0,0,1,1.24-.42A1.59,1.59,0,0,1,89.9,7a1.47,1.47,0,0,1,.41,1.13v2.18a2.53,2.53,0,0,0,.18.94Zm4.32-2.18a3.21,3.21,0,0,1-.36,1.69,1.26,1.26,0,0,1-1.13.57,1.08,1.08,0,0,1-1-.55v.47H91.15V4.77h1.21V7.1a1.1,1.1,0,0,1,.89-.46,1.26,1.26,0,0,1,1.14.56,3.21,3.21,0,0,1,.36,1.64Z" fill="#212121"/>
</svg>
