<svg xmlns="http://www.w3.org/2000/svg" width="108" height="24" viewBox="0 0 108 24">
  <path d="M11.78,6.62A7.47,7.47,0,0,0,9,4.62a10.33,10.33,0,0,0-4.22-.73H0V20.51H5.56A8.74,8.74,0,0,0,8.72,20a8,8,0,0,0,2.65-1.58,7.78,7.78,0,0,0,1.84-2.56,8.15,8.15,0,0,0,.67-3.44,9.8,9.8,0,0,0-.53-3A8.27,8.27,0,0,0,11.78,6.62Zm-1.12,8.07a5.07,5.07,0,0,1-1.25,1.82,5.36,5.36,0,0,1-1.91,1.1A7.83,7.83,0,0,1,5,18H2.68V6.37H5.51a6.41,6.41,0,0,1,1.94.32,5.41,5.41,0,0,1,1.84,1,4.87,4.87,0,0,1,1.35,1.88,6.11,6.11,0,0,1,.51,2.67A6.45,6.45,0,0,1,10.66,14.69ZM27,13a5,5,0,0,0,1-1.74,6.83,6.83,0,0,0,.3-2,5.59,5.59,0,0,0-.43-2.29,4.76,4.76,0,0,0-1.25-1.66,5.56,5.56,0,0,0-1.95-1,7.87,7.87,0,0,0-2.5-.39H17.45V20.51h2.69V14.73h2.65l3.76,5.78h3.1l-4.06-6.43A4.66,4.66,0,0,0,27,13Zm-1.63-2.75a3.23,3.23,0,0,1-.48.92,2.88,2.88,0,0,1-.92.7,3.65,3.65,0,0,1-1.46.28H20.1V6.37h2.47A3,3,0,0,1,24,6.7a2.36,2.36,0,0,1,.92.74,2.84,2.84,0,0,1,.48.93,3.1,3.1,0,0,1,.14.92A3.25,3.25,0,0,1,25.37,10.21ZM62.3,4.51a7.41,7.41,0,0,0-3.25-.64H54.34V20.51H57V14.74h2.43a6.36,6.36,0,0,0,2.62-.49A5,5,0,0,0,63.8,13a5.45,5.45,0,0,0,1-1.75,6.52,6.52,0,0,0,.31-2,5.36,5.36,0,0,0-.72-2.85A4.65,4.65,0,0,0,62.3,4.51Zm0,5.65a3,3,0,0,1-.47.92,2.76,2.76,0,0,1-.92.74,3.27,3.27,0,0,1-1.48.3H57V6.37h2.47a3.1,3.1,0,0,1,1.47.29,2.19,2.19,0,0,1,.92.73,3.21,3.21,0,0,1,.44,1,3.1,3.1,0,0,1,.14.92,2.9,2.9,0,0,1-.16.87ZM71,3.87H68.33V20.51h10.9V18H71Zm14.44,9.55H92.9V10.86H85.44V6.37h8.37V3.87h-11V20.51H94.16V18H85.44ZM96.62,3.87V6.43h4.19V20.51h2.66V6.37h4.3V3.87ZM42.52.75a.85.85,0,0,0-.26-.24.76.76,0,0,0-.43-.14.84.84,0,0,0-.72.38c-.41.67-.92,1.38-1.47,2.22-2.53,3.67-6.29,9.29-6.29,12.49a8.47,8.47,0,0,0,16.93,0C50.28,12.26,46.5,6.7,44,3,43.44,2.17,43,1.42,42.52.75Zm3.32,18.76a5.69,5.69,0,0,1-4,1.69,5.82,5.82,0,0,1-4-1.69,5.69,5.69,0,0,1-1.69-4c0-2.36,3.94-8.18,5.72-10.79,1.92,2.83,5.71,8.43,5.71,10.76A5.65,5.65,0,0,1,45.84,19.51Z" fill="#212121"/>
</svg>
