<svg xmlns="http://www.w3.org/2000/svg" width="67" height="19" viewBox="0 0 67 19">
  <path d="M10.52,9.84a6.8,6.8,0,0,0-1.43-1,13.65,13.65,0,0,0-1.62-.7c-.62-.24-1.21-.5-1.76-.74a4.45,4.45,0,0,1-1.36-1,1.75,1.75,0,0,1-.53-1.29,1.89,1.89,0,0,1,.74-1.62,3.35,3.35,0,0,1,2.16-.65,6.56,6.56,0,0,1,2.06.36,12.22,12.22,0,0,1,2,.87L11.88,2A10.91,10.91,0,0,0,9.49.9,10.32,10.32,0,0,0,6.27.45a6.64,6.64,0,0,0-2.8.68,4.66,4.66,0,0,0-1.9,1.7A4.79,4.79,0,0,0,.9,5.39,4.08,4.08,0,0,0,2.53,8.84a8.88,8.88,0,0,0,1.64,1c.58.26,1.15.49,1.69.71a9.8,9.8,0,0,1,1.53.74,4.46,4.46,0,0,1,1.13.94A1.91,1.91,0,0,1,9,13.45,2.24,2.24,0,0,1,8.48,15a2.94,2.94,0,0,1-1.26.82,4.77,4.77,0,0,1-1.5.25,5.77,5.77,0,0,1-1.49-.22,7.94,7.94,0,0,1-1.56-.59,8.68,8.68,0,0,1-1.34-.81L0,16.64a9.28,9.28,0,0,0,1.76,1,10.68,10.68,0,0,0,2,.67A9.38,9.38,0,0,0,6,18.55a6.87,6.87,0,0,0,3.21-.7,4.86,4.86,0,0,0,2-1.84A4.77,4.77,0,0,0,12,13.45a5.41,5.41,0,0,0-.38-2.14A4,4,0,0,0,10.52,9.84ZM24.21,1.2A8.16,8.16,0,0,0,20.73.52h-5V18.35h2.86V12.18h2.59A7,7,0,0,0,24,11.65a5.18,5.18,0,0,0,1.87-1.37,5.63,5.63,0,0,0,1.07-1.91,7.28,7.28,0,0,0,.34-2.12,6,6,0,0,0-.75-3.08A5,5,0,0,0,24.21,1.2Zm0,6.06a3.18,3.18,0,0,1-.52,1,2.88,2.88,0,0,1-1,.8,3.45,3.45,0,0,1-1.58.32H18.55V3.26h2.64a3.91,3.91,0,0,1,1.58.31,2.48,2.48,0,0,1,1,.78,3.69,3.69,0,0,1,.48,1,3.05,3.05,0,0,1,0,1.89ZM30.62.52h2.87V18.36H30.62Zm18,9.75a5.42,5.42,0,0,0,1.05-1.91A7.16,7.16,0,0,0,50,6.25a5.72,5.72,0,0,0-.46-2.45A4.71,4.71,0,0,0,48.22,2,6.21,6.21,0,0,0,46.15.88,8.8,8.8,0,0,0,43.46.45H38.41v17.9h2.87v-6.2h2.84l4,6.21h3.33L47.1,11.45a4.57,4.57,0,0,0,1.56-1.2Zm-7.38-7h2.65a3.72,3.72,0,0,1,1.54.31,2.69,2.69,0,0,1,1,.8,3.35,3.35,0,0,1,.5,1,4.21,4.21,0,0,1,.12,1,3.73,3.73,0,0,1-.16,1,2.83,2.83,0,0,1-.53,1,2.64,2.64,0,0,1-1,.75,3.68,3.68,0,0,1-1.57.32H41.28ZM57.72,15.61V10.76h8V8h-8V3.26h9V.52H54.82V18.35H67V15.61Z" fill="#212121"/>
</svg>
