<svg xmlns="http://www.w3.org/2000/svg" width="94" height="32" viewBox="0 0 94 32">
  <path d="M11.44,24.76a4.7,4.7,0,0,0,2.82,1c1.85,0,3-1.23,3.4-3.68l1.08-6.38a11.83,11.83,0,0,0,5-1.4A8.52,8.52,0,0,0,27,11.23,8,8,0,0,0,28,7.06a6.72,6.72,0,0,0-.84-3.37A6,6,0,0,0,24.7,1.33a8.07,8.07,0,0,0-4-.87,10.61,10.61,0,0,0-6,1.86,12.49,12.49,0,0,0-4.41,5.61A22.82,22.82,0,0,0,8.65,17a12.7,12.7,0,0,0,.76,4.81A6.46,6.46,0,0,0,11.44,24.76Zm1-14.9a10.84,10.84,0,0,1,3-4.77,6.38,6.38,0,0,1,4.49-1.72,4.52,4.52,0,0,1,3.32,1.08A3.91,3.91,0,0,1,24.34,7.3q0,4.91-5.13,5.66L20,7.84a4,4,0,0,0,.06-.69,1.43,1.43,0,0,0-.35-1.08,1.64,1.64,0,0,0-1.19-.32,2.2,2.2,0,0,0-1.27.37,2,2,0,0,0-.68,1.33c-.4,2.31-.7,4.15-.92,5.52l-.93-.12h-.37a1.05,1.05,0,0,0-.87.34,1.27,1.27,0,0,0-.31.92,1.75,1.75,0,0,0,.23.92,1.37,1.37,0,0,0,1,.48l.84.14-.84,4.91c-.22,1.22-.53,1.82-.94,1.82s-.62-.22-.94-.69a6.33,6.33,0,0,1-.81-2,12.67,12.67,0,0,1-.34-2.88,21.3,21.3,0,0,1,1-6.91Z" fill="#212121"/>
  <path d="M63.07,8a2.46,2.46,0,0,0,1.73-.62,2.32,2.32,0,0,0,.65-1.68,1.69,1.69,0,0,0-.58-1.35,2.24,2.24,0,0,0-1.51-.48,2.48,2.48,0,0,0-1.72.63A2,2,0,0,0,61,6a1.93,1.93,0,0,0,.53,1.48A2.17,2.17,0,0,0,63.07,8Z" fill="#212121"/>
  <path d="M26.34,17.84a5,5,0,0,0,1,3.13,3,3,0,0,0,2.48,1.19A3.84,3.84,0,0,0,33,19.94a3.75,3.75,0,0,0,1,1.62,2.38,2.38,0,0,0,1.52.6,3.69,3.69,0,0,0,2.22-.93A13.48,13.48,0,0,0,40,19c.08-.11.15-.23.22-.35l.27-.34A19.66,19.66,0,0,0,42,15.68c.22.28.47.6.75,1a6.4,6.4,0,0,1,.66,1.17,3.42,3.42,0,0,1,.29,1.3L43,19a4.74,4.74,0,0,0-.75-.06,1.77,1.77,0,0,0-1.4.5,1.59,1.59,0,0,0-.48,1.18,1.91,1.91,0,0,0,.69,1.44,2.84,2.84,0,0,0,2,.63,3.5,3.5,0,0,0,2.39-.88,6.89,6.89,0,0,0,2.82-.65,8,8,0,0,0,2.38-2.27c.07-.11.14-.21.2-.32l.29-.37a17.73,17.73,0,0,0,1.52-2.59c.23.28.48.61.76,1a6.48,6.48,0,0,1,.66,1.18,3.6,3.6,0,0,1,.28,1.29L53.71,19A4.87,4.87,0,0,0,53,19a1.77,1.77,0,0,0-1.4.5,1.67,1.67,0,0,0-.48,1.18,1.91,1.91,0,0,0,.69,1.44,2.84,2.84,0,0,0,2,.63,3.47,3.47,0,0,0,2.37-.9A6.55,6.55,0,0,0,59,21.19a6.22,6.22,0,0,0,1.23-.93,2.78,2.78,0,0,0,.33.67A2.54,2.54,0,0,0,63,22.17c1.15,0,2.37-.7,3.65-2.07a4.73,4.73,0,0,0,1.17,1.35,4.26,4.26,0,0,0,2.56.76,4.63,4.63,0,0,0,3.18-1.33,6.77,6.77,0,0,0,1.87-3.56,12.29,12.29,0,0,0,2-.25v.7a10.72,10.72,0,0,0,.39,3.38,1.52,1.52,0,0,0,2.48.63,4.39,4.39,0,0,0,.63-1.68,18.53,18.53,0,0,1,1-3A14.49,14.49,0,0,1,83,14.67c.39-.59.7-.89.91-.89s.28.14.28.43-.1,1.29-.3,2.69a27.48,27.48,0,0,0-.35,3.5,2.16,2.16,0,0,0,.37,1.35,1.52,1.52,0,0,0,1.21.44,1.64,1.64,0,0,0,1.26-.44,2.12,2.12,0,0,0,.39-1.44,28.74,28.74,0,0,1,.15-3.21c.1-1,.23-2,.4-3a24.81,24.81,0,0,0,.28-2.58,1.82,1.82,0,0,0-.42-1.28A1.59,1.59,0,0,0,86,9.76a3.36,3.36,0,0,0-1.81.61,7.32,7.32,0,0,0-2,2,15.47,15.47,0,0,0-1.86,3.7c.06-.65.14-1.31.26-2s.23-1.15.4-1.85a11.12,11.12,0,0,0,.37-1.91.54.54,0,0,0-.2-.5,1.22,1.22,0,0,0-.7-.13,2.42,2.42,0,0,0-1.46.39,2,2,0,0,0-.75,1.12,19.11,19.11,0,0,0-.66,3,13.54,13.54,0,0,1-2,.27,6.16,6.16,0,0,0-1.36-3.43A3.76,3.76,0,0,0,71.17,9.7a4.74,4.74,0,0,0-2.82.88,5.89,5.89,0,0,0-2,2.47,8.18,8.18,0,0,0-.76,3.58,6.74,6.74,0,0,0,.08,1c-.32.39-.61.7-.85.94a1.91,1.91,0,0,1-1.13.66.73.73,0,0,1-.68-.42,2.82,2.82,0,0,1-.19-1.22,25,25,0,0,1,.59-3.94,20,20,0,0,0,.48-3.07c0-.6-.42-.89-1.28-.89a1.81,1.81,0,0,0-1.2.31,2.22,2.22,0,0,0-.59,1.16,26.48,26.48,0,0,0-.81,3.5,19.81,19.81,0,0,0-.27,2.66,6.54,6.54,0,0,1-2.14,1.84c0-.25,0-.51,0-.76a3.51,3.51,0,0,0-.41-1.71A16,16,0,0,0,56,14.81a10.4,10.4,0,0,1-.81-1.19,1.77,1.77,0,0,1-.26-.87,3.82,3.82,0,0,1,.45-1.62,4.12,4.12,0,0,0,.27-.69,1.78,1.78,0,0,0,.1-.51.41.41,0,0,0-.27-.41,2.27,2.27,0,0,0-1-.14,1.89,1.89,0,0,0-2,1.17c-.37.92-.76,1.8-1.13,2.66s-.75,1.51-1,2q-.86,1.37-1.83,2.64a5.54,5.54,0,0,1-1.67,1.25v-.76a3.78,3.78,0,0,0-.41-1.71,19.56,19.56,0,0,0-1.21-1.89,9,9,0,0,1-.82-1.19,1.77,1.77,0,0,1-.26-.87,3.94,3.94,0,0,1,.45-1.57,4.12,4.12,0,0,0,.27-.69,1.71,1.71,0,0,0,.1-.5.44.44,0,0,0-.22-.4,2.43,2.43,0,0,0-1-.14,1.89,1.89,0,0,0-2,1.17c-.37.92-.76,1.8-1.13,2.66s-.76,1.52-1,2a29,29,0,0,1-2,2.8c-.19.2-.35.38-.5.51a1.93,1.93,0,0,1-1.15.66.61.61,0,0,1-.51-.22.89.89,0,0,1-.19-.63A26.42,26.42,0,0,1,36,14.16a19.5,19.5,0,0,0,.37-2.64c0-.62-.41-.93-1.22-.93a5.16,5.16,0,0,0-1.11.11,2,2,0,0,0-.31-.81A1,1,0,0,0,33,9.67a5.36,5.36,0,0,0-3.26,1.14,8.26,8.26,0,0,0-2.47,3A8.81,8.81,0,0,0,26.34,17.84Zm43-4.34a2,2,0,0,1,1.68-1h.13a4.88,4.88,0,0,0-.07.85,4.41,4.41,0,0,0,.41,1.93,3.57,3.57,0,0,0,1.19,1.45,4.06,4.06,0,0,1-.76,2,1.76,1.76,0,0,1-1.39.68,1.52,1.52,0,0,1-1.26-.75,3.83,3.83,0,0,1-.54-2.21,5.07,5.07,0,0,1,.63-2.93ZM30,15.06A5.42,5.42,0,0,1,31.42,13a3,3,0,0,1,1.94-.87L32.44,17a4.69,4.69,0,0,1-.76,1.83,1.37,1.37,0,0,1-1,.68,1,1,0,0,1-.86-.39,1.88,1.88,0,0,1-.31-1.22A7.28,7.28,0,0,1,30,15.06Z" fill="#212121"/>
  <path d="M93.24,26.11a344.81,344.81,0,0,0-43.83-1.3A349.39,349.39,0,0,0,14,27.52a108,108,0,0,0-12,2c-.56.13-2.14.67-2,1.51s2,.43,2.44.32l.85-.23.49-.1h.12c.76-.15,1.51-.3,2.27-.43,1.88-.34,3.79-.63,5.67-.88,4.82-.69,9.77-1.21,14.59-1.62A387.08,387.08,0,0,1,66,26.84c8.16.14,16.32.57,24.45,1.36a4.62,4.62,0,0,0,3.1-.83C94.25,26.87,94.16,26.2,93.24,26.11Z" fill="#212121"/>
</svg>
