<svg xmlns="http://www.w3.org/2000/svg" width="80" height="21" viewBox="0 0 80 21">
  <path d="M.15,20.44A.12.12,0,0,1,0,20.36H0V.7A.11.11,0,0,1,.1.58H3.34c.08,0,.11,0,.11.12V20.27c0,.1-.05.14-.12.14Z" fill="#212121"/>
  <path d="M11.26,20.73A5.24,5.24,0,0,1,8.42,20a5.6,5.6,0,0,1-2-2.1A5.93,5.93,0,0,1,5.67,15V6A6,6,0,0,1,6.4,3.14a5.89,5.89,0,0,1,2-2.09A5.28,5.28,0,0,1,11.27.27,5.21,5.21,0,0,1,14.09,1a5.71,5.71,0,0,1,2.74,5V7.36a.09.09,0,0,1-.07.11H13.5c-.08,0-.12,0-.12-.11V6a2.35,2.35,0,0,0-.59-1.64,2,2,0,0,0-1.53-.68,1.83,1.83,0,0,0-1.57.7A2.56,2.56,0,0,0,9.14,6v8.92a2.45,2.45,0,0,0,.61,1.73,2,2,0,0,0,1.51.64,1.9,1.9,0,0,0,1.53-.73,2.54,2.54,0,0,0,.61-1.64V13.59c0-.07,0-.11.12-.11h3.22a.1.1,0,0,1,.11.08v1.35a5.73,5.73,0,0,1-.75,2.94,5.92,5.92,0,0,1-2,2.1A5.18,5.18,0,0,1,11.26,20.73Z" fill="#212121"/>
  <path d="M69.49,20.44c-.16,0-.23-.06-.23-.2V.81a.2.2,0,0,1,.16-.23H72l4.82,11.25-.13-11c0-.15.09-.23.26-.23H79.8c.11,0,.17.08.17.23V20.27c0,.11,0,.16-.14.16H77.35L72.41,10l.19,10.31c0,.15-.09.22-.26.22Z" fill="#212121"/>
  <path d="M19.82,10.54a9.28,9.28,0,0,1,1.39-5A10.6,10.6,0,0,1,24.9,2,9.86,9.86,0,0,1,30,.58H56.3a9.74,9.74,0,0,1,5,1.34A10.22,10.22,0,0,1,65,5.58a9.47,9.47,0,0,1,1.36,5A9.35,9.35,0,0,1,65,15.49a10.34,10.34,0,0,1-3.65,3.58,9.74,9.74,0,0,1-5,1.32H30.05A9.94,9.94,0,0,1,25,19.05a10.29,10.29,0,0,1-3.69-3.58A9.29,9.29,0,0,1,19.82,10.54Zm6.11,0a3.52,3.52,0,0,0,1.24,2.65A4,4,0,0,0,30,14.33H56.3a4,4,0,0,0,2.82-1.06,3.48,3.48,0,0,0,1.17-2.68,3.57,3.57,0,0,0-1.14-2.68A4.05,4.05,0,0,0,56.29,6.8H30a4,4,0,0,0-2.87,1.11A3.57,3.57,0,0,0,25.93,10.54Z" fill="#212121"/>
</svg>
