<svg xmlns="http://www.w3.org/2000/svg" width="92" height="18" viewBox="0 0 92 18">
  <path d="M49.11.29H45.23l-7.74,17.4h4.17L43.19,14h8l1.53,3.73H57Zm-4.7,10.57L47.15,4.2l2.75,6.66ZM32.35,12.1A6.42,6.42,0,0,0,35,10a5.79,5.79,0,0,0,1-3.4,6.91,6.91,0,0,0-.89-3.38A6.35,6.35,0,0,0,32.54,1a9.33,9.33,0,0,0-4-.77H21V17.6h4V12.72h3.73L32.1,17.6h4.33ZM30.94,8.82a4.24,4.24,0,0,1-2.76.77H24.91v-6h3.27a4.13,4.13,0,0,1,2.76.77,2.73,2.73,0,0,1,1,2.21A3.1,3.1,0,0,1,30.94,8.82ZM12.85,13.76a6,6,0,0,1-3.07.71,6.38,6.38,0,0,1-2.93-.72,5.58,5.58,0,0,1-2-1.95A6.06,6.06,0,0,1,4.14,9a6.47,6.47,0,0,1,.67-2.87,4.6,4.6,0,0,1,2-2,6.64,6.64,0,0,1,2.94-.62,6,6,0,0,1,4.52,1.91L16.87,3A7.88,7.88,0,0,0,13.8.78,10.79,10.79,0,0,0,9.64,0,9.84,9.84,0,0,0,4.7,1.08a9.16,9.16,0,0,0-3.37,3.2A8.65,8.65,0,0,0,0,9a8.74,8.74,0,0,0,4.6,7.84A9.66,9.66,0,0,0,9.48,18a13,13,0,0,0,3.72-.51,10.13,10.13,0,0,0,3.28-1.69V8.63H12.85ZM92,.29,85.26,11.47v6.2H81.19v-6.2L74.9.81,67.54,17.68H63.63L56.11.28h4.33l5.32,12.43L71.09.28h7.66L83.35,8,88,.28Z" fill="#212121"/>
</svg>
