<svg id="Ebene_3" data-name="Ebene 3" xmlns="http://www.w3.org/2000/svg" xmlns:xlink="http://www.w3.org/1999/xlink" width="216" height="216" viewBox="0 0 216 216">
  
    <style>

    img[src*="enterprise-feature-api.svg"] + svg {
      filter: drop-shadow(20px 20px 20px rgba(60, 65, 124, 0.12)) drop-shadow(-20px -20px 20px rgba(255, 255, 255, 0.9));
      will-change: filter;
    }

  </style>
  
  <defs>
    <linearGradient id="Unbenannter_Verlauf" x1="73.35005" y1="109.99585" x2="154.60283" y2="109.99585" gradientTransform="matrix(1, 0, 0, -1, 0, 218)" gradientUnits="userSpaceOnUse">
      <stop offset="0" stop-color="#4c6cd8"/>
      <stop offset="1" stop-color="#6f40f1"/>
    </linearGradient>
    <linearGradient id="Unbenannter_Verlauf_2" x1="151.23152" y1="120.04845" x2="76.75389" y2="67.84709" gradientTransform="matrix(1, 0, 0, -1, 0, 218)" gradientUnits="userSpaceOnUse">
      <stop offset="0" stop-color="#5094f9"/>
      <stop offset="1" stop-color="#5094f9" stop-opacity="0"/>
    </linearGradient>
    <linearGradient id="Unbenannter_Verlauf_3" x1="151.20387" y1="99.93866" x2="76.73975" y2="152.12453" gradientTransform="matrix(1, 0, 0, -1, 0, 218)" gradientUnits="userSpaceOnUse">
      <stop offset="0" stop-color="#7195cc" stop-opacity="0"/>
      <stop offset="0.02" stop-color="#6989c4" stop-opacity="0.09"/>
      <stop offset="0.08" stop-color="#5167ae" stop-opacity="0.37"/>
      <stop offset="0.15" stop-color="#3d4a9c" stop-opacity="0.6"/>
      <stop offset="0.22" stop-color="#2e348e" stop-opacity="0.78"/>
      <stop offset="0.3" stop-color="#232484" stop-opacity="0.9"/>
      <stop offset="0.39" stop-color="#1d1b7e" stop-opacity="0.98"/>
      <stop offset="0.51" stop-color="#1b187c"/>
      <stop offset="0.59" stop-color="#1d1c80" stop-opacity="0.97"/>
      <stop offset="0.68" stop-color="#22298d" stop-opacity="0.86"/>
      <stop offset="0.78" stop-color="#2b3ea3" stop-opacity="0.69"/>
      <stop offset="0.87" stop-color="#385cc1" stop-opacity="0.45"/>
      <stop offset="0.96" stop-color="#4882e7" stop-opacity="0.14"/>
      <stop offset="1" stop-color="#5094f9" stop-opacity="0"/>
    </linearGradient>
    <linearGradient id="Unbenannter_Verlauf_4" x1="89.85" y1="158.58119" x2="89.85" y2="61.41058" gradientTransform="matrix(1, 0, 0, -1, 0, 218)" gradientUnits="userSpaceOnUse">
      <stop offset="0" stop-color="#00f9ff"/>
      <stop offset="0.84" stop-color="#00f9ff" stop-opacity="0"/>
    </linearGradient>
  </defs>
  <circle class="uk-preserve" cx="108" cy="108" r="108" fill="#f7f8fc"/>
  <path class="uk-preserve" d="M153.01843,115.06683c.124-.26329.24933-.52533.359-.79425.11157-.27208.20672-.54718.30285-.82269.07611-.21906.15454-.43671.22138-.65857.09277-.30719.16943-.61609.24353-.92609.04883-.20427.09942-.40753.1405-.61351.062-.31171.10931-.62378.15289-.937.0307-.21881.06189-.43689.08387-.65686.0285-.2898.04449-.579.05755-.869.01184-.25287.02258-.50519.02283-.75879-.00025-.2536-.011-.50592-.02283-.75879-.01306-.29-.02905-.57923-.05755-.869-.022-.22-.05317-.43805-.08387-.65687-.04358-.31323-.09094-.62529-.15289-.937-.04108-.206-.09167-.40924-.1405-.61353-.0741-.31-.15076-.61889-.24353-.92608-.06684-.22187-.14527-.43953-.22138-.65857-.09613-.27552-.19128-.5506-.30285-.8227-.10968-.26892-.235-.531-.359-.79425-.10071-.2127-.19592-.4264-.30652-.63623-.17187-.32789-.36352-.64557-.558-.96241-.07135-.11589-.12909-.23632-.20362-.35112-.01892-.02919-.04132-.05452-.06042-.08351-.21778-.33117-.45636-.64966-.69922-.96618-.09638-.1258-.1864-.25831-.28571-.38061-.20862-.25617-.43646-.49872-.66186-.74347-.155-.16876-.3039-.34467-.46472-.5058-.16114-.16083-.337-.30975-.5058-.46472-.24475-.2254-.48731-.45325-.74347-.66187-.12232-.0993-.25482-.18934-.38062-.2857-.31653-.24286-.63507-.48157-.96624-.69928-.029-.019-.05433-.04144-.08344-.06037L99.11005,62.2627c-.0279-.01893-.05616-.03724-.08417-.056l-.18933-.126c-.12952-.08411-.26526-.14972-.39618-.22974-.30548-.187-.61157-.37188-.92975-.53912-.192-.10095-.38757-.18774-.582-.2804-.29138-.13879-.58234-.277-.88281-.399-.23224-.09442-.46723-.17377-.70192-.2569-.26811-.09479-.535-.19092-.80925-.272-.27417-.08136-.55017-.14606-.82666-.21259-.24225-.05817-.48255-.11957-.72882-.16693-.31836-.0614-.63765-.10382-.95752-.14606-.21357-.02813-.42482-.062-.64081-.08185-.35791-.033-.71545-.04467-1.07355-.05426-.15338-.00421-.30292-.02307-.45727-.02307-.03925,0-.077.00562-.11621.00586-.34638.00275-.69068.0279-1.03547.05231-.21087.01465-.42407.01941-.63269.04187-.25744.02814-.51141.0769-.76709.11707-.28772.0448-.57811.081-.86071.14044-.10578.02234-.20874.05633-.31408.08075A16.114,16.114,0,0,0,78.40894,64.046c-.07789.07507-.16242.14288-.23877.21942-.20374.20459-.39215.42828-.58637.64514-.173.19257-.35222.37909-.51611.57971-.13245.16272-.25257.33887-.37964.50769-.20831.27588-.41687.551-.60785.84-.02155.03272-.04687.0614-.06824.0943-.08423.1297-.15.26563-.2301.39679-.18677.30518-.37152.611-.53857.92883-.10119.19239-.18818.38843-.281.58326-.13862.291-.27674.58154-.3985.88159-.09449.23236-.17389.46753-.25708.7024-.09479.268-.19079.53479-.27191.809-.0813.27423-.14606.55035-.2126.8269-.0581.24219-.1195.48249-.16687.7287-.0614.31842-.10388.6377-.14617.95764-.02814.21344-.06189.42469-.08179.64063-.033.358-.04467.71559-.05426,1.07367-.00421.15332-.02307.30286-.02307.45721v64.17061c0,.15434.01886.30389.02307.45721.00959.3581.02124.71564.05426,1.07367.0199.21594.05365.42719.08179.64063.04229.31994.08477.63922.14617.95764.04737.24621.10877.48651.16687.7287.06653.27655.13129.55267.2126.8269.08112.27417.17711.541.27191.809.08319.23486.16259.47.25708.70239.12177.3.25988.59064.3985.88159.09282.19483.17981.39087.281.58327.16706.31781.3518.62366.53857.92883.08014.13117.14587.26709.2301.39679.02137.0329.04669.06159.06824.0943.191.289.39954.56415.60785.84.12707.16882.24719.345.37964.5077.16388.20062.34314.38715.51611.57971.19422.21686.38263.44056.58637.64515.07635.07653.16088.14434.23877.21942a16.114,16.114,0,0,0,7.71484,4.18884c.10535.02441.20831.05841.31409.08075.28259.05945.573.09564.86071.14044.25567.04018.50965.08893.76709.11707.20861.02246.42182.02722.63269.04187.34478.02441.68908.04956,1.03547.0523.03917.00025.077.00586.11621.00586.15435,0,.30388-.01886.45726-.02307.35811-.00958.71564-.02125,1.07355-.05427.216-.0199.42726-.05371.64081-.08184.31988-.04223.63916-.08465.95752-.14605.24627-.04737.48657-.10877.72882-.16693.27649-.06653.55249-.13123.82666-.21259.27429-.08112.54114-.17725.80926-.272.23468-.08313.46967-.16248.70191-.2569.30047-.12195.59143-.26019.88281-.399.1944-.09267.39-.17945.582-.2804.31818-.16723.62427-.35217.92975-.53912.13092-.08.26666-.14563.39618-.22974l.19293-.12817c.02563-.01723.05152-.03382.077-.05115l47.99224-31.88006c.02912-.01893.05445-.04133.08344-.06037.33118-.21771.64972-.45642.96625-.69928.12579-.09638.2583-.1864.38061-.28571.25617-.20861.49872-.43646.74347-.66186.16876-.155.34467-.3039.5058-.46472.16083-.16114.30975-.337.46472-.5058.2254-.24475.45325-.48731.66187-.74347.0993-.12232.18933-.25482.2857-.38062.24286-.31652.48145-.635.69922-.96618.01911-.029.04151-.05432.06043-.0835.07452-.11481.13226-.23523.20361-.35113.19452-.31684.38617-.63453.558-.96241C152.82251,115.49323,152.91772,115.27954,153.01843,115.06683Z" fill="url(#Unbenannter_Verlauf)"/>
  <path class="uk-preserve" d="M147.09872,121.86809A16.5,16.5,0,0,0,129.172,94.16188l-.04638.03012-48.2622,32.0594a16.5,16.5,0,0,0,17.9731,27.67614h0Z" fill="url(#Unbenannter_Verlauf_2)"/>
  <path class="uk-preserve" d="M129.12564,121.86809A16.5,16.5,0,0,0,147.09874,94.192L98.83655,62.08074A16.5,16.5,0,1,0,80.86346,89.75688Z" opacity="0.25" fill="url(#Unbenannter_Verlauf_3)" style="isolation: isolate"/>
  <path class="uk-preserve" d="M73.35,140.08942a16.5,16.5,0,0,0,33,0V75.91881a16.5,16.5,0,0,0-33,0Z" fill="url(#Unbenannter_Verlauf_4)"/>
</svg>
