<svg xmlns="http://www.w3.org/2000/svg" xmlns:xlink="http://www.w3.org/1999/xlink" width="40" height="40" viewBox="0 0 40 40">

  <defs>
    <linearGradient id="svg-gradient-feature-integrations-bitbucket" x1="41.04" y1="-62.29" x2="21.16" y2="-77.8" gradientTransform="matrix(1, 0, 0, -1, 0, -46.9)" gradientUnits="userSpaceOnUse">
      <stop offset="0.18" stop-color="#2253c4"/>
      <stop offset="1" stop-color="#4583f6"/>
    </linearGradient>
  </defs>

  <polygon points="15.84 23.87 24.21 23.87 26.23 12.09 13.62 12.09 15.84 23.87" fill="none"/>
  <path d="M1.3,0A1.28,1.28,0,0,0,0,1.27a.86.86,0,0,0,0,.22l5.44,33A1.75,1.75,0,0,0,7.16,36h26.1a1.27,1.27,0,0,0,1.28-1.08L40,1.49A1.28,1.28,0,0,0,38.92,0H1.3ZM24.21,23.87H15.88L13.62,12.09H26.23Z" fill="#4583f6"/>
  <path d="M38.25,12.09h-12l-2,11.78H15.88L6,35.55A1.82,1.82,0,0,0,7.16,36H33.27a1.28,1.28,0,0,0,1.28-1.08Z" fill="url(#svg-gradient-feature-integrations-bitbucket)"/>

</svg>
