<svg xmlns="http://www.w3.org/2000/svg" width="40" height="40" viewBox="0 0 40 40">
  <path d="M27.66,21.49a2.53,2.53,0,0,1,.94,3.45,2.57,2.57,0,0,1-.94.94L15.73,32.77,3.8,39.66a2.54,2.54,0,0,1-3.47-.95A2.59,2.59,0,0,1,0,37.46V9.92A2.53,2.53,0,0,1,2.55,7.39a2.49,2.49,0,0,1,1.25.33l11.93,6.89Z" fill="#6211ff"/>
  <path d="M3.8,7.72l11.93,6.89L25.07,20l2.59-1.49a2.53,2.53,0,0,0,.94-3.45,2.57,2.57,0,0,0-.94-.94L15.73,7.23,3.8.34a2.54,2.54,0,0,0-3.47,1A2.59,2.59,0,0,0,0,2.54V9.92A2.53,2.53,0,0,1,2.55,7.39,2.49,2.49,0,0,1,3.8,7.72Z" fill="#ed1350"/>
</svg>
