<svg xmlns="http://www.w3.org/2000/svg" width="40" height="40" viewBox="0 0 40 40">
  <path d="M20,36.84h0l7.37-22.67H12.64Z" fill="#cf4f36"/>
  <path d="M2.32,14.17h0L.07,21.06a1.53,1.53,0,0,0,.56,1.71L20,36.84Z" fill="#eea546"/>
  <path d="M2.32,14.17H12.64L8.2.52a.78.78,0,0,0-1-.49.79.79,0,0,0-.49.49Z" fill="#cf4f36"/>
  <path d="M37.69,14.17h0l2.24,6.89a1.53,1.53,0,0,1-.56,1.71L20,36.84Z" fill="#eea546"/>
  <path d="M37.69,14.17H27.37L31.8.52a.78.78,0,0,1,1-.49.79.79,0,0,1,.49.49Z" fill="#cf4f36"/>
  <polygon points="20 36.84 27.37 14.18 37.69 14.18 20 36.84" fill="#e9753c"/>
  <polygon points="20 36.84 2.32 14.18 12.64 14.18 20 36.84" fill="#e9753c"/>
</svg>
