<svg xmlns="http://www.w3.org/2000/svg" xmlns:xlink="http://www.w3.org/1999/xlink" width="40" height="40" viewBox="0 0 40 40">
  <defs>
    <linearGradient id="svg-gradient-feature-integrations-jira-integrations-01" x1="18.29" y1="942.83" x2="10.03" y2="951.08" gradientTransform="translate(0 -934.72)" gradientUnits="userSpaceOnUse">
      <stop offset="0.18" stop-color="#2253c4"/>
      <stop offset="1" stop-color="#4583f6"/>
    </linearGradient>
    <linearGradient id="svg-gradient-feature-integrations-jira-integrations-02" x1="20.48" y1="966.56" x2="28.73" y2="958.32" xlink:href="#svg-gradient-feature-integrations-jira-integrations-01"/>
  </defs>
  <path d="M38.22,18.88,21,1.67,19.34,0h0L6.39,13h0L.46,18.88a1.6,1.6,0,0,0,0,2.24L12.3,33l7,7,13-13,.2-.2,5.72-5.72A1.59,1.59,0,0,0,38.22,18.88Zm-18.88,7L13.43,20l5.91-5.91L25.26,20Z" fill="#4583f6"/>
  <path d="M19.34,14.09a10,10,0,0,1,0-14L6.36,13l7,7.05Z" fill="url(#svg-gradient-feature-integrations-jira-integrations-01)"/>
  <path d="M25.27,20l-5.93,5.93a10,10,0,0,1,0,14.09h0l13-13Z" fill="url(#svg-gradient-feature-integrations-jira-integrations-02)"/>
</svg>
