<svg xmlns="http://www.w3.org/2000/svg" width="40" height="40" viewBox="0 0 40 40">
  <path d="M8.43,25.27a4.2,4.2,0,1,1-4.2-4.2h4.2Z" fill="#cd375c"/>
  <path d="M10.53,25.27a4.2,4.2,0,0,1,8.4,0v10.5a4.2,4.2,0,1,1-8.4,0Z" fill="#cd375c"/>
  <path d="M14.73,8.4a4.2,4.2,0,1,1,4.2-4.2V8.4Z" fill="#65c2ea"/>
  <path d="M14.73,10.53a4.2,4.2,0,0,1,0,8.4H4.2a4.2,4.2,0,0,1,0-8.4Z" fill="#65c2ea"/>
  <path d="M31.57,14.73a4.2,4.2,0,1,1,4.2,4.2h-4.2Z" fill="#5bb280"/>
  <path d="M29.47,14.73a4.2,4.2,0,0,1-8.4,0V4.2a4.2,4.2,0,1,1,8.4,0Z" fill="#5bb280"/>
  <path d="M25.27,31.57a4.2,4.2,0,1,1-4.2,4.2v-4.2Z" fill="#e2b34c"/>
  <path d="M25.27,29.47a4.2,4.2,0,0,1,0-8.4H35.8a4.2,4.2,0,1,1,0,8.4Z" fill="#e2b34c"/>
</svg>
