<svg xmlns="http://www.w3.org/2000/svg" width="40" height="40" viewBox="0 0 40 40">
  <path d="M20,0a20,20,0,0,0-6.32,39c1,.18,1.36-.44,1.36-1V34.6C9.47,35.81,8.3,31.92,8.3,31.92A5.27,5.27,0,0,0,6.06,29c-1.82-1.25.14-1.22.14-1.22a4.22,4.22,0,0,1,3.06,2.06C11,32.91,13.94,32,15.08,31.51a4.26,4.26,0,0,1,1.27-2.67c-4.44-.51-9.11-2.22-9.11-9.89A7.71,7.71,0,0,1,9.3,13.59a7.24,7.24,0,0,1,.19-5.3s1.68-.53,5.5,2.06a18.86,18.86,0,0,1,10,0c3.82-2.59,5.49-2.06,5.49-2.06a7.19,7.19,0,0,1,.2,5.3A7.68,7.68,0,0,1,32.76,19c0,7.69-4.68,9.38-9.13,9.87A4.83,4.83,0,0,1,25,32.53V38c0,.65.36,1.16,1.37,1A20,20,0,0,0,20,0Z" fill="#211e1b" fill-rule="evenodd"/>
</svg>
