<svg xmlns="http://www.w3.org/2000/svg" width="40" height="40" viewBox="0 0 40 40">
  <circle cx="21.25" cy="5.83" r="5.83" fill="#7d83e3"/>
  <path d="M20.83,7.08H15.55V7.2h0v.11a5.84,5.84,0,0,0,6.89,4.21V8.75A1.67,1.67,0,0,0,20.83,7.08Z" opacity="0.1" style="isolation: isolate"/>
  <path d="M19.58,8.33H16a5.83,5.83,0,0,0,5.27,3.34V10a1.68,1.68,0,0,0-1.69-1.67Z" opacity="0.2" style="isolation: isolate"/>
  <circle cx="34.38" cy="7.71" r="4.37" fill="#525bc1"/>
  <path d="M38.13,13.33H28.3a.8.8,0,0,0-.8.8V24.27a6.39,6.39,0,0,0,5,6.36,6.26,6.26,0,0,0,7.41-4.84A6.08,6.08,0,0,0,40,24.51v-9.3A1.89,1.89,0,0,0,38.13,13.33Z" fill="#525bc1"/>
  <path d="M31.25,15.21V27.08a10,10,0,0,1-18.65,5,9.57,9.57,0,0,1-.6-1.25,10.74,10.74,0,0,1-.41-1.25,10.56,10.56,0,0,1-.31-2.5V15.21a1.89,1.89,0,0,1,1.87-1.88H29.38a1.87,1.87,0,0,1,1.87,1.87h0Z" fill="#7d83e3"/>
  <path d="M19.58,8.33H16a5.83,5.83,0,0,0,5.27,3.34V10a1.68,1.68,0,0,0-1.69-1.67Z" opacity="0.2" style="isolation: isolate"/>
  <path d="M22.5,13.33V29.17a1.64,1.64,0,0,1-1.3,1.61,1.09,1.09,0,0,1-.36,0H12a10.74,10.74,0,0,1-.41-1.25,10.56,10.56,0,0,1-.31-2.5V15.21a1.89,1.89,0,0,1,1.87-1.88Z" opacity="0.1" style="isolation: isolate"/>
  <path d="M21.25,13.33V30.42a1.49,1.49,0,0,1-.05.36,1.64,1.64,0,0,1-1.61,1.3h-7A8.38,8.38,0,0,1,12,30.83a10.74,10.74,0,0,1-.41-1.25,10.56,10.56,0,0,1-.31-2.5V15.21a1.89,1.89,0,0,1,1.87-1.88h8.1Z" opacity="0.2" style="isolation: isolate"/>
  <path d="M21.25,13.33V27.92a1.66,1.66,0,0,1-1.66,1.66h-8a10.56,10.56,0,0,1-.31-2.5V15.21a1.89,1.89,0,0,1,1.87-1.88h8.1Z" opacity="0.2" style="isolation: isolate"/>
  <path d="M13.13,13.33a1.89,1.89,0,0,0-1.88,1.87h0V27.08a10.56,10.56,0,0,0,.31,2.5h6.78A1.66,1.66,0,0,0,20,27.92V13.33Z" opacity="0.2" style="isolation: isolate"/>
  <path d="M1.67,8.33H18.33A1.67,1.67,0,0,1,20,10h0V26.67a1.66,1.66,0,0,1-1.66,1.66H1.67A1.66,1.66,0,0,1,0,26.68H0V10A1.67,1.67,0,0,1,1.67,8.33Z" fill="#4d55b5"/>
  <path d="M15,14.55H11.24v10H8.78v-10H5V12.09H15Z" fill="#fff"/>
</svg>
