<svg xmlns="http://www.w3.org/2000/svg" width="140" height="25" viewBox="0 0 140 25">
  <g>
    <path d="M39.27,20.06a9,9,0,0,0,2.67-.35,11,11,0,0,0,2.34-1,.86.86,0,0,0,.49-.83.82.82,0,0,0-.24-.59.88.88,0,0,0-.64-.24.9.9,0,0,0-.4.09,10,10,0,0,1-1.89.76,7.64,7.64,0,0,1-2.13.27,6.24,6.24,0,0,1-3.22-.78,5.07,5.07,0,0,1-2-2.13,6.73,6.73,0,0,1-.67-3.06,6.73,6.73,0,0,1,.67-3.06,5.07,5.07,0,0,1,2-2.13,6.24,6.24,0,0,1,3.22-.78,7.64,7.64,0,0,1,2.13.27,9.14,9.14,0,0,1,1.89.77,1.1,1.1,0,0,0,.4.08.85.85,0,0,0,.64-.25.83.83,0,0,0,.24-.58.86.86,0,0,0-.49-.83,11,11,0,0,0-2.34-1,9,9,0,0,0-2.67-.35,8.09,8.09,0,0,0-4,1A7,7,0,0,0,32.57,8a8.44,8.44,0,0,0-1,4.18,8.44,8.44,0,0,0,1,4.18,7,7,0,0,0,2.75,2.74,8.09,8.09,0,0,0,4,.95Zm15.95-9.42a3.87,3.87,0,0,0-1.54-1.59,5,5,0,0,0-2.56-.61,9.55,9.55,0,0,0-3.8.79.84.84,0,0,0-.57.83.77.77,0,0,0,.24.59.76.76,0,0,0,.57.25,1.35,1.35,0,0,0,.29-.05,11.76,11.76,0,0,1,1.44-.39,7.34,7.34,0,0,1,1.48-.13A3.26,3.26,0,0,1,53,11a2.68,2.68,0,0,1,.72,2.09v.17H51.06a6.2,6.2,0,0,0-3.77,1A3.05,3.05,0,0,0,46,16.77a3.27,3.27,0,0,0,.48,1.75,3.1,3.1,0,0,0,1.31,1.15,4.24,4.24,0,0,0,1.79.39,5.55,5.55,0,0,0,4.14-1.66V19a.92.92,0,0,0,.28.7,1,1,0,0,0,1.42,0,.89.89,0,0,0,.3-.7V12.76A4.72,4.72,0,0,0,55.22,10.64Zm-1.5,6a5.46,5.46,0,0,1-1.52,1.18,4,4,0,0,1-1.87.47,2.66,2.66,0,0,1-1.79-.48A1.64,1.64,0,0,1,48,16.56c0-1.16,1.11-1.74,3.32-1.74h2.4Zm15-5.51a5.31,5.31,0,0,0-4.59-2.69,5.08,5.08,0,0,0-3.76,1.67V9.54a1,1,0,0,0-.29-.71,1,1,0,0,0-.72-.28.92.92,0,0,0-.7.28,1,1,0,0,0-.29.71V24a1,1,0,0,0,.29.71.89.89,0,0,0,.7.3,1,1,0,0,0,.73-.29,1,1,0,0,0,.28-.72V18.4a5.07,5.07,0,0,0,3.76,1.66,5.31,5.31,0,0,0,4.59-2.69,6.25,6.25,0,0,0,.75-3.11,6.14,6.14,0,0,0-.72-3.11Zm-2.24,6a3.44,3.44,0,0,1-2.61,1,4.18,4.18,0,0,1-1.9-.45,5.57,5.57,0,0,1-1.58-1.19V12A5.46,5.46,0,0,1,62,10.75a4.18,4.18,0,0,1,1.9-.45,3.48,3.48,0,0,1,2.61,1,4,4,0,0,1,1,2.92,4,4,0,0,1-1,3Zm6.1-10.75h.13a1.06,1.06,0,0,0,.8-.33,1.07,1.07,0,0,0,.33-.79V5.17a1.07,1.07,0,0,0-.33-.79,1.06,1.06,0,0,0-.8-.33h-.13a1.13,1.13,0,0,0-1.12,1.12v.09A1.13,1.13,0,0,0,72.58,6.38Zm0,13.58a1,1,0,0,0,.71-.29.89.89,0,0,0,.3-.7V9.56a1,1,0,0,0-.29-.73,1,1,0,0,0-.72-.28.91.91,0,0,0-.71.3,1,1,0,0,0-.28.71V19a.92.92,0,0,0,.28.7,1,1,0,0,0,.71.29Zm7.69.1a4.42,4.42,0,0,0,1.83-.39.85.85,0,0,0,.5-.77.8.8,0,0,0-.24-.56.76.76,0,0,0-.55-.23h-.25l-.19.05a2.93,2.93,0,0,1-.88.13,2,2,0,0,1-1-.23c-.27-.15-.41-.52-.41-1.09v-6.6H81.6a.79.79,0,0,0,.61-.25.87.87,0,0,0,0-1.22.81.81,0,0,0-.61-.24H79.11V6.9A.46.46,0,0,0,79,6.6a.39.39,0,0,0-.29-.13.56.56,0,0,0-.38.19l-3,2.92a.45.45,0,0,0-.2.37.41.41,0,0,0,.4.42h1.58v6.8q0,2.89,3.21,2.89Zm12.37-9.42A3.87,3.87,0,0,0,91.1,9.05a5,5,0,0,0-2.56-.61,9.55,9.55,0,0,0-3.8.79.84.84,0,0,0-.58.83.75.75,0,0,0,.25.59.76.76,0,0,0,.57.25,1.37,1.37,0,0,0,.28-.05q.7-.22,1.44-.39a7.44,7.44,0,0,1,1.49-.13,3.35,3.35,0,0,1,2.23.63,2.64,2.64,0,0,1,.71,2.09v.17H88.52a6.22,6.22,0,0,0-3.77,1,3.06,3.06,0,0,0-1.28,2.58A3.2,3.2,0,0,0,84,18.52a3.1,3.1,0,0,0,1.31,1.15,4.24,4.24,0,0,0,1.79.39,5.51,5.51,0,0,0,4.13-1.66V19a1,1,0,0,0,1,1,1,1,0,0,0,.72-.29.89.89,0,0,0,.3-.7V12.76a4.61,4.61,0,0,0-.55-2.12Zm-1.51,6a5.41,5.41,0,0,1-1.51,1.18,4,4,0,0,1-1.87.47A2.65,2.65,0,0,1,86,17.83a1.62,1.62,0,0,1-.54-1.27c0-1.16,1.1-1.74,3.32-1.74h2.39Zm5.7,3.3a1,1,0,0,0,.71-.29.89.89,0,0,0,.3-.7V4.73A1,1,0,0,0,97.61,4a1,1,0,0,0-.73-.29.89.89,0,0,0-.7.3,1,1,0,0,0-.29.71V19a1,1,0,0,0,1,1ZM114.37,8.12a7.14,7.14,0,0,0-2.68-2.8,8.68,8.68,0,0,0-8.08,0,7,7,0,0,0-2.68,2.79,8.9,8.9,0,0,0,0,8.16,7,7,0,0,0,2.68,2.79,8.68,8.68,0,0,0,8.08,0,7.14,7.14,0,0,0,2.68-2.8A8.8,8.8,0,0,0,114.37,8.12Zm-1.68,7.14a5.12,5.12,0,0,1-2,2.15,6.34,6.34,0,0,1-6.12,0,5.25,5.25,0,0,1-2-2.15,6.66,6.66,0,0,1-.68-3.07,6.66,6.66,0,0,1,.68-3.07,5.25,5.25,0,0,1,2-2.15,6.34,6.34,0,0,1,6.12,0,5.12,5.12,0,0,1,2,2.15,6.81,6.81,0,0,1,.68,3.07A6.81,6.81,0,0,1,112.69,15.26Zm5.76,4.7a1,1,0,0,0,.72-.29,1,1,0,0,0,.29-.7V12.39a7.05,7.05,0,0,1,1.64-1.54,3.45,3.45,0,0,1,2-.57c1.61,0,2.42.89,2.42,2.68v6a.92.92,0,0,0,.28.7,1,1,0,0,0,1.42,0,.89.89,0,0,0,.3-.7V12.74a4.93,4.93,0,0,0-.47-2.17A3.73,3.73,0,0,0,125.65,9a3.8,3.8,0,0,0-2.1-.57,4.52,4.52,0,0,0-2.28.55,7.12,7.12,0,0,0-1.81,1.47v-.9a1,1,0,0,0-1-1,.89.89,0,0,0-.7.3,1,1,0,0,0-.29.71V19a1,1,0,0,0,1,1Zm21.28-5.29A1,1,0,0,0,140,14a6.12,6.12,0,0,0-.62-2.76,4.83,4.83,0,0,0-1.8-2,5.65,5.65,0,0,0-5.74,0,4.93,4.93,0,0,0-1.76,2.13,7.07,7.07,0,0,0-.57,2.87A5.82,5.82,0,0,0,131,18.54a5.64,5.64,0,0,0,4.19,1.52,7.8,7.8,0,0,0,2.15-.24A7.41,7.41,0,0,0,139,19.1a.94.94,0,0,0,.58-.81.78.78,0,0,0-.27-.62.9.9,0,0,0-1-.15A6.5,6.5,0,0,1,137,18a6.29,6.29,0,0,1-1.62.18,3.88,3.88,0,0,1-2.7-.86A3.57,3.57,0,0,1,131.53,15H139a1,1,0,0,0,.73-.33Zm-8.2-1.34a3.59,3.59,0,0,1,.55-1.8,3.1,3.1,0,0,1,1.21-1.06,3.45,3.45,0,0,1,1.48-.34,3.41,3.41,0,0,1,1.47.34,3.12,3.12,0,0,1,1.22,1.06,3.5,3.5,0,0,1,.56,1.8Z" fill="#9997b4"/>
    <path d="M22.13,8h0a11.25,11.25,0,0,1-.44,7.75L20.43,16a9.81,9.81,0,0,1-7.75-1.49A11.36,11.36,0,0,0,22.13,8ZM10.24,14.47A10.26,10.26,0,0,1,9,13a9.7,9.7,0,0,0,2.84,6.26A9.51,9.51,0,0,0,14.23,21l1.38.72a11.25,11.25,0,0,0,5.14-4.23,11.28,11.28,0,0,1-10.51-3ZM7,4.9A13.42,13.42,0,0,1,15.83,1a11,11,0,0,0-4.52-1,11.29,11.29,0,0,0-7,20.15A13.55,13.55,0,0,1,7,4.9Zm.41,8.26a11.44,11.44,0,0,1,4.23-9.62,11,11,0,0,0-3,2,10.83,10.83,0,0,0-3.91,7.8,15.24,15.24,0,0,0,2,8.16,14.69,14.69,0,0,0,6.7.82,12,12,0,0,1-6-9.16Z" fill="#9997b4"/>
  </g>
</svg>
