<svg xmlns="http://www.w3.org/2000/svg" width="65" height="30" viewBox="0 0 65 30">
  <path d="M8,23.71h.14a1.468,1.468,0,0,1-1-.22,1.8,1.8,0,0,1-.75-.84L.2,8.5h0a1.46,1.46,0,0,1-.13-.35A1.659,1.659,0,0,1,0,7.66a1.5,1.5,0,0,1,.45-1,1.562,1.562,0,0,1,1.21-.49,1.821,1.821,0,0,1,.94.26l.12.07a1.552,1.552,0,0,1,.53.71L8.2,18.63,13.09,7.26h0a1.5,1.5,0,0,1,1.49-1,1.611,1.611,0,0,1,1.11.41,1.382,1.382,0,0,1,.45,1.07,1.251,1.251,0,0,1-.07.42,2.952,2.952,0,0,1-.16.41L9.61,22.64h0A1.6,1.6,0,0,1,8.18,23.7ZM21.75,4a2.51,2.51,0,0,0,1.44-.33,1.394,1.394,0,0,0,.44-1.2h0V2A1.383,1.383,0,0,0,23.2.85,2.289,2.289,0,0,0,21.78.5a2.409,2.409,0,0,0-1.39.33A1.3,1.3,0,0,0,19.92,2h0v.5a1.468,1.468,0,0,0,.43,1.17,2.225,2.225,0,0,0,1.4.35Zm0,19.67A1.571,1.571,0,0,0,23,23.22a1.674,1.674,0,0,0,.47-1.2h0V7.89A1.674,1.674,0,0,0,23,6.69a1.562,1.562,0,0,0-1.19-.48,1.63,1.63,0,0,0-1.66,1.6v.08h0V22a1.639,1.639,0,0,0,1.6,1.68h0ZM36.8,6a8.658,8.658,0,0,0-7.64,4.37A9.184,9.184,0,0,0,28,15a9.226,9.226,0,0,0,1.18,4.67,8.646,8.646,0,0,0,3.18,3.18,9.161,9.161,0,0,0,8.93,0,8.642,8.642,0,0,0,3.17-3.18A9.21,9.21,0,0,0,45.629,15a9.2,9.2,0,0,0-1.17-4.7A8.642,8.642,0,0,0,36.819,6Zm0,3a5.223,5.223,0,0,1,2.8.78,5.553,5.553,0,0,1,2,2.11,6.385,6.385,0,0,1,.73,3.11,6.442,6.442,0,0,1-.73,3.1,5.417,5.417,0,0,1-2,2.11,5.291,5.291,0,0,1-2.8.76A5.179,5.179,0,0,1,34,20.2a5.546,5.546,0,0,1-2-2.11,6.326,6.326,0,0,1-.74-3.1A6.385,6.385,0,0,1,32,11.84a5.627,5.627,0,0,1,2-2.11A5.105,5.105,0,0,1,36.8,9ZM63.338,23.7a1.593,1.593,0,0,0,1.18-.48A1.636,1.636,0,0,0,65,22h0V13.17a12,12,0,0,0-.51-3.67,5.157,5.157,0,0,0-1.81-2.61,6,6,0,0,0-3.64-1,6.262,6.262,0,0,0-2.19.37,7.006,7.006,0,0,0-1.86,1,8.407,8.407,0,0,0-1.41,1.38l-.15.22-.06.08v-1a1.633,1.633,0,0,0-.37-1l-.11-.12a1.7,1.7,0,0,0-2.369,0A1.614,1.614,0,0,0,50.059,8h0V22a1.625,1.625,0,0,0,.46,1.2,1.7,1.7,0,0,0,2.369,0,1.637,1.637,0,0,0,.48-1.2h0V13.2A3.9,3.9,0,0,1,54,11.08a4.273,4.273,0,0,1,1.61-1.52A4.707,4.707,0,0,1,58,9a3.793,3.793,0,0,1,2.27.58,3,3,0,0,1,1.14,1.52,6.094,6.094,0,0,1,.34,2.12h0V22a1.633,1.633,0,0,0,.46,1.2,1.6,1.6,0,0,0,1.19.48Z" fill="#9997b0"/>
</svg>
