<svg xmlns="http://www.w3.org/2000/svg" width="96" height="23" viewBox="0 0 96 23">
  <path d="M9,23a8.77,8.77,0,0,0,4.26-1A6.64,6.64,0,0,0,16,19.16h0l-3-1.72a4.71,4.71,0,0,1-1.78,1.71,5,5,0,0,1-2.34.56,4.9,4.9,0,0,1-3.61-1.39A5,5,0,0,1,3.9,14.59a5,5,0,0,1,1.43-3.73,4.89,4.89,0,0,1,3.6-1.4,4.88,4.88,0,0,1,2.34.57,4.69,4.69,0,0,1,1.78,1.7h0L16,10a6.35,6.35,0,0,0-2.77-2.82A8.89,8.89,0,0,0,9,6.2,9.76,9.76,0,0,0,4.32,7.28a7.83,7.83,0,0,0-3.17,3A8.15,8.15,0,0,0,0,14.59a8.25,8.25,0,0,0,1.15,4.34,7.94,7.94,0,0,0,3.19,3A9.9,9.9,0,0,0,9,23ZM34.73,10.26a7.75,7.75,0,0,0-3.14-3A9.53,9.53,0,0,0,27,6.2a9.4,9.4,0,0,0-4.5,1.08,7.75,7.75,0,0,0-3.14,3,8.23,8.23,0,0,0-1.13,4.33A8.28,8.28,0,0,0,19.36,19a8,8,0,0,0,3.14,3,10.17,10.17,0,0,0,9.09,0,8,8,0,0,0,3.14-3,8.28,8.28,0,0,0,1.13-4.34A8.3,8.3,0,0,0,34.73,10.26Zm-4.17,8A4.76,4.76,0,0,1,27,19.71a4.73,4.73,0,0,1-3.52-1.41,5.1,5.1,0,0,1-1.38-3.71,5.11,5.11,0,0,1,1.38-3.72A4.73,4.73,0,0,1,27,9.46a4.76,4.76,0,0,1,3.53,1.41A5.07,5.07,0,0,1,32,14.59a5,5,0,0,1-1.44,3.71ZM52.39,0V8.41a6,6,0,0,0-2.33-1.65,7.87,7.87,0,0,0-3-.56,8.77,8.77,0,0,0-4.29,1,7.57,7.57,0,0,0-3,2.94,8.78,8.78,0,0,0-1.08,4.4A8.79,8.79,0,0,0,39.77,19a7.47,7.47,0,0,0,3,3,8.88,8.88,0,0,0,4.29,1,7.93,7.93,0,0,0,3.12-.58,6,6,0,0,0,2.37-1.75v2.12h3.72V0ZM51.8,17.29A4.49,4.49,0,0,1,50,19.08a5.33,5.33,0,0,1-5,0,4.55,4.55,0,0,1-1.77-1.79,5.52,5.52,0,0,1-.65-2.7,5.56,5.56,0,0,1,.65-2.71A4.68,4.68,0,0,1,45,10.09a5.33,5.33,0,0,1,5,0,4.68,4.68,0,0,1,1.77,1.79,5.56,5.56,0,0,1,.65,2.71A5.5,5.5,0,0,1,51.8,17.29Zm25.57-2.61a9,9,0,0,0-1.07-4.44,7.47,7.47,0,0,0-3-3,8.71,8.71,0,0,0-4.3-1,9,9,0,0,0-4.4,1.08,7.72,7.72,0,0,0-3,3,8.4,8.4,0,0,0-1.1,4.32,8.28,8.28,0,0,0,1.13,4.34,7.74,7.74,0,0,0,3.21,3,11.22,11.22,0,0,0,8.64.39,7,7,0,0,0,2.82-2L74.18,18a6.07,6.07,0,0,1-4.5,1.78,5.92,5.92,0,0,1-3.58-1,4.44,4.44,0,0,1-1.78-2.88h13C77.35,15.32,77.37,14.94,77.37,14.68ZM64.29,13.27a4.6,4.6,0,0,1,1.57-2.91A4.74,4.74,0,0,1,69,9.27a4.62,4.62,0,0,1,3.16,1.11,4.52,4.52,0,0,1,1.52,2.89Zm24.43-3.16,2.82-3.72h4.18l-4.93,6.38ZM96,22.79H91.63L87.38,17.1l-4.27,5.69H78.83l6.45-8.33L79.11,6.39h4.31l4.06,5.37,8.1,10.57v-.1Z" fill="#9a98b3"/>
</svg>
