<svg xmlns="http://www.w3.org/2000/svg" width="500" height="500" viewBox="0 0 500 500">

  <style>

    img[src*="home-feature-innovate.svg"] + svg {
      filter: drop-shadow(20px 20px 20px rgba(60, 65, 124, 0.12)) drop-shadow(-20px -20px 20px rgba(255, 255, 255, 0.9));
      will-change: filter;
    }

  </style>

  <path class="uk-preserve" d="M434.356,182.462c-25.459-69.288,49.637-47.549-.369-101.766s-34.512,22.371-101.538-8.773S333.906,3.231,260.143.248A87.34,87.34,0,0,0,234.965,2h0c-31.074,8.422,5.983,42.391-52.34,63.849C113.214,91.4,134.971,16.233,80.7,66.309s22.284,34.407-8.773,101.432S3.149,166.267.148,239.977s40.215,8.58,65.6,77.8-49.637,47.549.439,101.766,34.442-22.354,101.468,8.562-1.457,68.762,72.271,71.745,8.6-40.127,77.816-65.569,47.567,49.708,101.766-.368-22.371-34.425,8.6-101.433,68.78,1.457,71.745-72.289S459.8,251.663,434.356,182.462ZM250.124,362.57a112.469,112.469,0,1,1-2.961-224.918q1.4-.018,2.8,0h.158a112.469,112.469,0,0,1,0,224.92Z" fill="#f5f7fc"/>

</svg>
