<svg xmlns="http://www.w3.org/2000/svg" width="118" height="45" viewBox="0 0 118 45">
  <path d="M117.85,0A21.81,21.81,0,0,1,96,18.92h.15A21.81,21.81,0,0,1,118,0Zm-2.91,26.15c-4.26-6.24-12-8.62-18-5.61,4.24,6.32,12,8.75,18,5.72Zm-24.47-21c-2.5,4.31-.76,10,3.88,13.21.08-.13.16-.26.23-.39,2.5-4.31.76-10-3.87-13.21C90.62,4.89,90.55,5,90.47,5.15ZM6.16,31A6.07,6.07,0,0,0,9,30.35a4.51,4.51,0,0,0,1.92-1.85l-1.6-1A3.58,3.58,0,0,1,8,28.75a3.87,3.87,0,0,1-1.8.42,4.21,4.21,0,0,1-2.06-.5,3.73,3.73,0,0,1-1.43-1.44,4.5,4.5,0,0,1-.52-2.16,4.39,4.39,0,0,1,.52-2.13A3.73,3.73,0,0,1,4.09,21.5,4.2,4.2,0,0,1,6.14,21a3.89,3.89,0,0,1,1.8.41,3.58,3.58,0,0,1,1.37,1.25l1.6-1A4.56,4.56,0,0,0,9,19.78a6.16,6.16,0,0,0-2.83-.63A6.61,6.61,0,0,0,3,19.9,5.58,5.58,0,0,0,.79,22a6.32,6.32,0,0,0,0,6.11A5.63,5.63,0,0,0,3,30.23,6.56,6.56,0,0,0,6.16,31ZM24,25.06a6,6,0,0,1-.78,3.06,5.52,5.52,0,0,1-2.15,2.11A6.3,6.3,0,0,1,18,31a6.41,6.41,0,0,1-3.12-.77,5.57,5.57,0,0,1-2.17-2.11,6.37,6.37,0,0,1,0-6.11,5.57,5.57,0,0,1,2.17-2.11A6.39,6.39,0,0,1,18,19.15a6.39,6.39,0,0,1,3.12.75A5.58,5.58,0,0,1,23.2,22,6,6,0,0,1,24,25.06Zm-2.13,0a4.41,4.41,0,0,0-.51-2.13A3.56,3.56,0,0,0,20,21.49a4.29,4.29,0,0,0-4,0,3.75,3.75,0,0,0-1.41,1.44,4.72,4.72,0,0,0,0,4.27A3.85,3.85,0,0,0,16,28.65a4.23,4.23,0,0,0,4,0,3.66,3.66,0,0,0,1.39-1.45,4.4,4.4,0,0,0,.46-2.14ZM37.38,14.61V30.87h-2V29a4.62,4.62,0,0,1-1.78,1.47,5.59,5.59,0,0,1-2.38.5,6.26,6.26,0,0,1-3-.74,5.43,5.43,0,0,1-2.1-2.1,6.7,6.7,0,0,1,0-6.19,5.52,5.52,0,0,1,2.1-2.08,6.26,6.26,0,0,1,3-.74,5.59,5.59,0,0,1,2.31.47A4.51,4.51,0,0,1,35.27,21V14.6ZM35.29,25.06a4.51,4.51,0,0,0-.5-2.13,3.62,3.62,0,0,0-1.41-1.44,4.29,4.29,0,0,0-4,0A3.74,3.74,0,0,0,28,22.93a4.72,4.72,0,0,0,0,4.27,3.85,3.85,0,0,0,1.41,1.45,4.23,4.23,0,0,0,4,0,3.71,3.71,0,0,0,1.41-1.45A4.52,4.52,0,0,0,35.29,25.06Zm16.06.7H41.89a3.65,3.65,0,0,0,1.35,2.47,4.41,4.41,0,0,0,2.88.93,4.32,4.32,0,0,0,3.36-1.4l1.17,1.36a5.19,5.19,0,0,1-2,1.4,7.45,7.45,0,0,1-5.91-.28,5.35,5.35,0,0,1-2.21-2.11,6.43,6.43,0,0,1,0-6.11,5.39,5.39,0,0,1,2.09-2.12,6.38,6.38,0,0,1,6,0,5.37,5.37,0,0,1,2,2.12,6.37,6.37,0,0,1,.74,3.11C51.37,25.34,51.36,25.55,51.35,25.76Zm-2-1.51a3.75,3.75,0,0,0-1.2-2.4,3.62,3.62,0,0,0-2.54-.93,3.66,3.66,0,0,0-2.54.92,3.8,3.8,0,0,0-1.2,2.41Zm10.32,4.43.66,1.51a3.29,3.29,0,0,1-1.14.6A4.68,4.68,0,0,1,57.8,31a3.7,3.7,0,0,1-2.73-.94,3.56,3.56,0,0,1-1-2.7V21h-2V19.26h2V16.72h2.11v2.54h3.35V21H56.21v6.29a2,2,0,0,0,.48,1.44,1.74,1.74,0,0,0,1.35.51,2.59,2.59,0,0,0,1.65-.55Zm4.71-7.47h0A3.6,3.6,0,0,1,66,19.67a5.91,5.91,0,0,1,2.62-.52v2h-.48a3.56,3.56,0,0,0-2.7,1,4,4,0,0,0-1,2.91v5.78H62.37V19.26h2v1.95ZM81.1,25.76H71.66A3.64,3.64,0,0,0,73,28.23a4.43,4.43,0,0,0,2.87.93,4.34,4.34,0,0,0,3.37-1.4l1.16,1.36a5.12,5.12,0,0,1-2,1.4,7,7,0,0,1-2.63.48,6.87,6.87,0,0,1-3.27-.76,5.23,5.23,0,0,1-2.21-2.11,6,6,0,0,1-.79-3.07,6.16,6.16,0,0,1,.76-3,5.53,5.53,0,0,1,2.09-2.12,6.37,6.37,0,0,1,6,0,5.37,5.37,0,0,1,2,2.12,6.37,6.37,0,0,1,.74,3.11,5.83,5.83,0,0,1,0,.59Zm-2-1.51a3.76,3.76,0,0,0-7.48,0ZM94,25.76H84.59A3.64,3.64,0,0,0,86,28.23a4.38,4.38,0,0,0,2.87.93,4.32,4.32,0,0,0,3.36-1.4l1.17,1.36a5.19,5.19,0,0,1-2,1.4,7.42,7.42,0,0,1-5.91-.28,5.35,5.35,0,0,1-2.21-2.11,6.43,6.43,0,0,1,0-6.11,5.46,5.46,0,0,1,2.09-2.12,6.37,6.37,0,0,1,6,0,5.37,5.37,0,0,1,2,2.12,6.37,6.37,0,0,1,.74,3.11q0,.32-.06.63Zm-2-1.51a3.7,3.7,0,0,0-1.2-2.4,3.62,3.62,0,0,0-2.54-.93,3.66,3.66,0,0,0-2.54.92,3.8,3.8,0,0,0-1.2,2.41Z" fill="#9997b0" fill-rule="evenodd"/>
</svg>
