<svg xmlns="http://www.w3.org/2000/svg" width="88" height="30" viewBox="0 0 88 30">
  <polygon points="8.09 0 19.14 3.4 12.39 25.63 1.33 22.24 8.09 0 8.09 0" fill="#9a98b3" fill-rule="evenodd" opacity="0.6"/>
  <path d="M19.6,13.43l11.21-2.79,2.8,11.29L22.4,24.71ZM55.5,11l-.71.78-7.52,8.46h8a2.182,2.182,0,0,1,1.48.46,1.582,1.582,0,0,1,.5,1.19,1.472,1.472,0,0,1-.5,1.14,2.181,2.181,0,0,1-1.48.44H44.21A2.609,2.609,0,0,1,42.46,23a1.81,1.81,0,0,1-.18-2.47c.28-.36.84-1,1.69-1.94l2.45-2.74c.74-.82,1.43-1.58,2.06-2.3s1.16-1.31,1.57-1.81.76-1,1-1.26H44.94A5.752,5.752,0,0,1,43,10.2c-.44-.14-.65-.55-.65-1.19a1.469,1.469,0,0,1,.56-1.18,2.126,2.126,0,0,1,1.4-.42h9.44a4.178,4.178,0,0,1,2,.39,1.45,1.45,0,0,1,.7,1.39,2.059,2.059,0,0,1-.13.69,2.674,2.674,0,0,1-.31.58c-.14.19-.29.37-.45.55Zm6.77-3.34a2.4,2.4,0,0,1,.58,1.72v12a2.684,2.684,0,0,1-.58,1.87,1.9,1.9,0,0,1-1.49.64,1.789,1.789,0,0,1-1.41-.64,2.709,2.709,0,0,1-.56-1.86V9.52a2.572,2.572,0,0,1,.56-1.85,1.893,1.893,0,0,1,1.47-.62,1.944,1.944,0,0,1,1.43.62Zm0-3.08a2.06,2.06,0,0,1-1.43.54,2.141,2.141,0,0,1-1.47-.54,1.819,1.819,0,0,1-.58-1.49,1.839,1.839,0,0,1,.58-1.45,2.1,2.1,0,0,1,1.45-.57,2.208,2.208,0,0,1,1.45.52,1.882,1.882,0,0,1,.61,1.5,1.941,1.941,0,0,1-.61,1.5Zm7.17,3.06A2.476,2.476,0,0,1,70,9.36v.51a7.9,7.9,0,0,1,2.4-2.13,5.789,5.789,0,0,1,2.83-.68,6.517,6.517,0,0,1,3.49,1,6.75,6.75,0,0,1,2.52,2.9,10,10,0,0,1,1,4.48,11.069,11.069,0,0,1-.6,3.52,7.893,7.893,0,0,1-1.47,2.68,6.182,6.182,0,0,1-2.2,1.66,6.429,6.429,0,0,1-2.73.58,5.659,5.659,0,0,1-3-.7A8.576,8.576,0,0,1,70,21.06v6.2c0,1.82-.65,2.73-1.94,2.73a1.609,1.609,0,0,1-1.54-.71,4.384,4.384,0,0,1-.39-2.05V9.39a2.59,2.59,0,0,1,.51-1.76,1.772,1.772,0,0,1,1.42-.58,1.85,1.85,0,0,1,1.42.6ZM77.5,18.29a7,7,0,0,0,.53-2.9,7,7,0,0,0-.48-2.82,4,4,0,0,0-1.37-1.79,3.312,3.312,0,0,0-1.94-.63,3.66,3.66,0,0,0-2.9,1.34,6,6,0,0,0-1.14,4,5.86,5.86,0,0,0,1.15,3.87,3.622,3.622,0,0,0,2.9,1.37,3.453,3.453,0,0,0,1.94-.6,4.1,4.1,0,0,0,1.39-1.79ZM82.63,4.57v2.2h-.55V4.57h-.83V4.09h2.19v.48Zm1.64.06V6.77h-.51V4.09h.85L85.11,6l.49-1.87h.85V6.77h-.52V4.63l-.58,2.14h-.5L84.27,4.6Z" fill="#9a98b3" fill-rule="evenodd"/>
</svg>
