<svg xmlns="http://www.w3.org/2000/svg" width="80" height="80" viewBox="0 0 80 80">
  <path d="M9.489,65.8a14.411,14.411,0,0,1,28.822,0" fill="none" stroke="#6F40F1" stroke-linecap="round" stroke-linejoin="round" stroke-width="2"/>
  <circle cx="23.9" cy="43.067" r="8.31" fill="none" stroke="#6F40F1" stroke-linejoin="round" stroke-width="2"/>
  <path d="M40.279,40.158l-1.957,7.3L46.445,42.9a22.706,22.706,0,0,0,3.937.645c.568,0,1.093.065,1.749.065h.405c9.84-.164,17.756-6.505,17.975-14.356v-.349c0-8.124-8.244-14.706-18.391-14.706s-18.4,6.56-18.4,14.706C33.729,33.478,36.277,37.458,40.279,40.158Z" fill="none" stroke="#6F40F1" stroke-linejoin="round" stroke-width="2"/>
  <polyline points="45.778 30.537 50.021 34.779 59.172 25.627" fill="none" stroke="#6F40F1" stroke-linecap="round" stroke-linejoin="round" stroke-width="2"/>
</svg>
