<svg xmlns="http://www.w3.org/2000/svg" width="80" height="80" viewBox="0 0 80 80">

  <defs>
    <linearGradient id="svg-defs-gradient-icon-learn-the-basics" x1="15" y1="65" x2="65" y2="15" gradientUnits="userSpaceOnUse">
      <stop offset="0" stop-color="#7141F1"/>
      <stop offset="0.7" stop-color="#4D6BD8"/>
      <stop offset="1" stop-color="#3183E2"/>
    </linearGradient>
    <mask id="svg-defs-mask-icon-learn-the-basics">
      <path class="uk-preserve" d="M66.539,66.855l-.3.3a5.141,5.141,0,0,1-7.259,0L37.235,43.277a1.16,1.16,0,0,1,0-1.639h0l3.779-3.779a1.16,1.16,0,0,1,1.639,0h0L66.539,59.6A5.142,5.142,0,0,1,66.539,66.855Z" fill="none" stroke="#fff" stroke-linecap="round" stroke-linejoin="round" stroke-width="2"/>
      <path class="uk-preserve" d="M11.838,16.3,16.2,11.94h0L21.471,17.2a2.968,2.968,0,0,1,0,4.2l0,0h0l-.17.17a2.97,2.97,0,0,1-4.2,0l0,0h0L11.827,16.3h.011Z" fill="none" stroke="#fff" stroke-linecap="round" stroke-linejoin="round" stroke-width="2"/>
      <line class="uk-preserve" x1="39.215" y1="39.339" x2="21.364" y2="21.488" fill="none" stroke="#fff" stroke-linecap="round" stroke-linejoin="round" stroke-width="2"/>
      <path class="uk-preserve" d="M39.79,46.087,28.709,57.168a9.581,9.581,0,0,1-9.676,12.774.82.82,0,0,1-.521-1.406l3.47-3.438a3.992,3.992,0,0,0,0-5.641l-1.4-1.405a3.991,3.991,0,0,0-5.642,0L11.5,61.49a.831.831,0,0,1-1.448-.575,9.58,9.58,0,0,1,12.784-9.58L51.275,22.84a9.7,9.7,0,0,1,2.065-9.772,9.583,9.583,0,0,1,7.611-3.012.83.83,0,0,1,.521,1.416L58.045,14.9a3.991,3.991,0,0,0,0,5.642l1.405,1.416a3.993,3.993,0,0,0,5.642,0l3.438-3.439a.83.83,0,0,1,1.415.543,9.58,9.58,0,0,1-12.773,9.665L45.463,40.435" fill="none" stroke="#fff" stroke-linecap="round" stroke-linejoin="round" stroke-width="2"/>
    </mask>
  </defs>

  <rect class="uk-preserve" x="3" y="3" width="74" height="74" fill="url(#svg-defs-gradient-icon-learn-the-basics)" mask="url(#svg-defs-mask-icon-learn-the-basics)"/>

</svg>
