<svg xmlns="http://www.w3.org/2000/svg" width="80" height="80" viewBox="0 0 80 80">
    <path d="M19.617,21.643c-2.345.715.562,3.13-3.716,4.887-5.074,2.087-3.67-3.516-7.56.315s1.758,2.5-.352,7.56-5.1.084-5.11,5.6,3,.516,5.076,5.578-3.516,3.67.314,7.56,2.5-1.758,7.559.351.083,5.1,5.568,5.111.516-3,5.579-5.075,3.67,3.516,7.549-.314-1.747-2.5.352-7.561" fill="none" stroke="#6F40F1" stroke-linecap="round" stroke-linejoin="round" stroke-width="2"/>
    <path d="M56.736,21.643a6.725,6.725,0,0,1,1.864-.2c5.485,0,.5,3.012,5.567,5.122s3.692-3.516,7.55.351-1.758,2.485.328,7.55,5.1.116,5.075,5.59-3,.5-5.109,5.568,3.516,3.692-.353,7.56-2.5-1.77-7.56.315-.093,5.087-5.578,5.075-.505-3-5.568-5.11-3.692,3.516-7.55-.351,1.759-2.5-.314-7.561S40,45.448,40,40.009h0c0-5.474-3-.516-5.087-5.591s3.516-3.67-.314-7.55-2.5,1.758-7.55-.351-.094-5.11-5.568-5.123a6.77,6.77,0,0,0-1.875.2" fill="none" stroke="#6F40F1" stroke-linecap="round" stroke-linejoin="round" stroke-width="2"/>
    <path d="M56.736,21.643c-2.344.715.575,3.13-3.7,4.887-5.075,2.087-3.681-3.516-7.561.315s1.747,2.5-.351,7.56" fill="none" stroke="#6F40F1" stroke-linecap="round" stroke-linejoin="round" stroke-width="2"/>
    <circle cx="58.881" cy="40.549" r="4.618" fill="none" stroke="#6F40F1" stroke-linecap="round" stroke-linejoin="round" stroke-width="2"/>
    <circle cx="21.48" cy="40.549" r="4.618" fill="none" stroke="#6F40F1" stroke-linecap="round" stroke-linejoin="round" stroke-width="2"/>
</svg>
