<svg xmlns="http://www.w3.org/2000/svg" width="130" height="130" viewBox="0 0 130 130">

  <defs>
    <linearGradient id="svg-defs-gradient-squared-icon-large-chill-out-area" x1="35" y1="95" x2="95" y2="35" gradientUnits="userSpaceOnUse">
      <stop offset="0" stop-color="#7141F1"/>
      <stop offset="0.7" stop-color="#4D6BD8"/>
      <stop offset="1" stop-color="#3183E2"/>
    </linearGradient>
    <mask id="svg-defs-mask-squared-icon-large-chill-out-area">
      <circle class="uk-preserve" cx="73.55" cy="61.33" r="2.11" fill="none" stroke="#fff" stroke-width="2"/>
      <circle class="uk-preserve" cx="84.32" cy="61.33" r="2.11" fill="none" stroke="#fff" stroke-width="2"/>
      <circle class="uk-preserve" cx="78.93" cy="55.94" r="2.11" fill="none" stroke="#fff" stroke-width="2"/>
      <circle class="uk-preserve" cx="78.93" cy="66.71" r="2.11" fill="none" stroke="#fff" stroke-width="2"/>
      <polygon class="uk-preserve" points="51.55 55.04 48 55.04 48 59.55 43.49 59.55 43.49 63.1 48 63.1 48 67.61 51.55 67.61 51.55 63.1 56.05 63.1 56.05 59.55 51.55 59.55 51.55 55.04 51.55 55.04" fill="none" stroke="#fff" stroke-linecap="round" stroke-linejoin="round" stroke-width="2"/>
      <path class="uk-preserve" d="M65,73c5.64,0,9.25,1.12,11.45,3.51s6.2,7.59,11.4,7.59h1.75a5.9,5.9,0,0,0,5.82-6.79L92.22,56.19A12.22,12.22,0,0,0,80.16,45.9H49.84A12.22,12.22,0,0,0,37.78,56.19L34.57,77.31a5.9,5.9,0,0,0,5.82,6.79h1.75c5.2,0,9.2-5.18,11.4-7.59S59.36,73,65,73Z" fill="none" stroke="#fff" stroke-width="2"/>
    </mask>
  </defs>

  <style>

    img[src*="squared-icon-large-chill-out-area.svg"] + svg {
      filter: drop-shadow(20px 20px 20px rgba(60, 65, 124, 0.12)) drop-shadow(-20px -20px 20px rgba(255, 255, 255, 0.9));
      will-change: filter;
    }

  </style>

  <rect class="uk-preserve" x="0" y="0" width="130" height="130" rx="24" fill="#f7f8fc" />
  <rect class="uk-preserve" x="32" y="35" width="65" height="60" fill="url(#svg-defs-gradient-squared-icon-large-chill-out-area)" mask="url(#svg-defs-mask-squared-icon-large-chill-out-area)" />

</svg>
