<svg xmlns="http://www.w3.org/2000/svg" width="995" height="995" viewBox="0 0 995 995">
  <path d="M497.5,755.72c-143.16,0-259.21-116.06-259.21-259.22s116-259.21,259.21-259.21,259.22,116,259.22,259.21A259.21,259.21,0,0,1,497.5,755.72Zm0-463.43c-112.6,0-204.21,91.61-204.21,204.21S384.9,700.72,497.5,700.72,701.72,609.11,701.72,496.5,610.11,292.29,497.5,292.29Z" fill="#303751" opacity="0.7"/>
  <path d="M497.5,874.86C289.7,874.61,121.44,706,121.69,498.14s168.92-376.06,376.72-375.8S874.47,291.25,874.22,499.05A376.24,376.24,0,0,1,497.5,874.86Zm0-699.72c-178,0-322.36,144.33-322.36,322.36S319.47,819.86,497.5,819.86,819.86,675.54,819.86,497.5A322.35,322.35,0,0,0,497.5,175.14Z" fill="#303751" opacity="0.3"/>
  <path d="M497.5,993C223.78,992.84,2,770.81,2.18,497.08A495.62,495.62,0,0,1,304.62,41C556.84-65.4,847.52,52.86,953.87,305.08c106.24,252-11.67,542.38-263.49,649A492.5,492.5,0,0,1,497.5,993Zm0-936C254.15,57.16,57,254.57,57.17,497.92A440.63,440.63,0,0,0,326.05,903.4c224.24,94.53,482.65-10.62,577.18-234.86,94.43-224-10.4-482.18-234.27-576.93A437.56,437.56,0,0,0,497.5,57Z" fill="#303751" opacity="0.25"/>
</svg>
