<svg xmlns="http://www.w3.org/2000/svg" width="500" height="500" viewBox="0 0 500 500">

  <style>
  
    img[src*="feature-security.svg"] + svg {
      filter: drop-shadow(10px 10px 20px rgba(27, 30, 45, 0.6)) drop-shadow(-10px -10px 15px rgba(115, 130, 190, 0.2));
      will-change: filter;
    }

  </style>

  <path class="uk-preserve" d="M455.588,92.438s-77.456-14.76-127.859-38.23C268.824,26.914,250.164,5,250.164,5h-.307S231.231,26.914,172.3,54.208c-50.489,23.47-127.868,38.23-127.868,38.23S24.273,277.611,96.14,382.208C135.97,440.193,181.979,476.23,249.857,495h.294c67.934-18.77,113.888-54.782,153.728-112.792C475.727,277.6,455.588,92.438,455.588,92.438ZM339.135,225.862l-82.374,82.374a11.833,11.833,0,0,1-16.721,0l-39.335-39.347a11.821,11.821,0,0,1-.012-16.719l.012-.011h0a11.831,11.831,0,0,1,16.719,0l30.987,31,74.019-74.022a11.859,11.859,0,0,1,16.721,0,12.415,12.415,0,0,1,0,16.732Z" fill="#303751"/>

</svg>
