<svg xmlns="http://www.w3.org/2000/svg" xmlns:xlink="http://www.w3.org/1999/xlink" width="500" height="500" viewBox="0 0 500 500">
  <style>

    img[src*="feature-deployment.svg"] + svg {
      filter: drop-shadow(10px 10px 20px rgba(27, 30, 45, 0.6)) drop-shadow(-10px -10px 15px rgba(115, 130, 190, 0.2));
      will-change: filter;
    }

  </style>

  <path class="uk-preserve" d="M438.26823,51.41185H62.08854a4.73953,4.73953,0,0,0-3.76025,1.83008,4.63887,4.63887,0,0,0-1.00976,2.91992V129.272a4.7584,4.7584,0,0,0,4.75,4.77H73.32829a4.86821,4.86821,0,0,1,4.77,4.77v183.49a4.88269,4.88269,0,0,0,4.77,4.77H417.47868a4.87517,4.87517,0,0,0,4.76953-4.77V138.812a4.8756,4.8756,0,0,1,4.77-4.77h11.25a4.88184,4.88184,0,0,0,4.77-4.77V56.18187A4.882,4.882,0,0,0,438.26823,51.41185Zm-141.75,95.58008a11.78342,11.78342,0,0,1-11.75976,11.75h-69a11.77474,11.77474,0,0,1-11.75-11.75v-1.71a11.82609,11.82609,0,0,1,11.71-11.91992h69.04a11.81712,11.81712,0,0,1,11.75976,11.87988Z" fill="#303751"/>
  <path class="uk-preserve" d="M498.191,398.282A41.502,41.502,0,0,0,458.001,367.092h-415a41.5,41.5,0,0,0,0,83h415A41.47822,41.47822,0,0,0,498.191,398.282ZM58.09137,427.45189A18.865,18.865,0,1,1,76.95123,408.592,18.86971,18.86971,0,0,1,58.09137,427.45189Zm76.96,0A18.865,18.865,0,1,1,153.921,408.592,18.86168,18.86168,0,0,1,135.05133,427.45189Zm76.96,0A18.865,18.865,0,1,1,230.88141,408.592,18.86794,18.86794,0,0,1,212.01129,427.45189Zm76.96973,0a18.865,18.865,0,1,1,18.84033-19.71c.00977.28.02.56006.02.8501A18.86168,18.86168,0,0,1,288.981,427.45189Zm76.96,0A18.865,18.865,0,1,1,384.8111,408.592,18.86127,18.86127,0,0,1,365.941,427.45189Zm58.1001-18.85986a18.85865,18.85865,0,1,1,18.87011,18.85986h-.01025A18.86783,18.86783,0,0,1,424.04108,408.592Z" fill="#303751"/>

</svg>
