<svg xmlns="http://www.w3.org/2000/svg" width="770" height="770" viewBox="0 0 770 770">
  <path d="M345.85,7.89c-47,14.75,11.88,64.29-75.75,100.67C166.15,151.73,194.52,36,115,115.68s36.24,51.09-6.71,155.1S3.46,273,3.62,385.45,65.39,396,108.56,499.9,36,575.48,115.68,655s51.09-36.24,155.1,6.71,2.14,104.76,114.67,104.7S396,704.61,499.9,661.44s75.58,72.61,155.07-7.12-36.24-51.09,6.71-155.1,104.86-2.17,104.7-114.67-61.77-10.5-104.94-114.45S734,194.42,654.32,115s-51.09,36.24-155.1-6.71S497.08,3.56,384.55,3.62c-17.59.07-30,1.55-38.7,4.27m-21.16,184.9c106.11-33.26,219.16,25.82,252.43,131.93s-25.87,219.2-132,252.45-219.2-25.86-252.45-132a201.43,201.43,0,0,1,13.71-153.51,204.54,204.54,0,0,1,118.35-98.83" fill="#303751" opacity="0.31" style="isolation: isolate"/>
</svg>
