<svg xmlns="http://www.w3.org/2000/svg" xmlns:xlink="http://www.w3.org/1999/xlink" width="500" height="500" viewBox="0 0 500 500">

  <style>

    img[src*="feature-automation.svg"] + svg {
      filter: drop-shadow(10px 10px 20px rgba(27, 30, 45, 0.6)) drop-shadow(-10px -10px 15px rgba(115, 130, 190, 0.2));
      will-change: filter;
    }

  </style>

  <path class="uk-preserve" d="M489.787,282.646a13.624,13.624,0,0,0-6.575-8.45l-31.264-17.41c-8.113-5.057-13.795-14.776-16-25.428a44.359,44.359,0,0,1,1.375-23.976,31.728,31.728,0,0,1,7.316-11.652c0-.057,16.122-15.045,26.235-24.418a13.694,13.694,0,0,0,2.615-16.737c-5.845-10.393-15.247-27.111-22.2-39.512-1.317-2.336-2.548-4.528-3.644-6.489a13.621,13.621,0,0,0-15.612-6.413L397.6,111.919c-7.566,1.663-15.939-.192-23.563-4.2-13.382-7.047-24.466-20.746-24.793-33.763-.087-.086.759-22.034,1.288-35.772a13.661,13.661,0,0,0-10.056-13.738C326.9,20.6,303.4,13.966,289.777,10.169a13.58,13.58,0,0,0-15.564,6.489C267.483,28.675,256.764,48,256.726,48c-9.989,15.171-36,20.054-52.462,13.075a27.061,27.061,0,0,1-7.421-4.576c-.433-.375-.846-.769-1.24-1.173-.058,0-14.95-16.122-24.294-26.236a13.684,13.684,0,0,0-16.747-2.643C144.093,32.328,127.221,41.8,114.82,48.777c-2.269,1.279-4.384,2.471-6.287,3.547a13.246,13.246,0,0,0-3.673,3.009,13.541,13.541,0,0,0-2.749,12.536l9.8,34.5a35.852,35.852,0,0,1-2.441,20.275c-6.1,14.958-20.727,27.485-35.638,28.081-.048.057-21.986-.778-35.695-1.3a13.675,13.675,0,0,0-12.123,6.384,13.919,13.919,0,0,0-1.586,3.595c-2.259,8.085-5.5,19.621-8.566,30.523-2.124,7.537-4.152,14.766-5.71,20.343a13.578,13.578,0,0,0,6.5,15.515C28.673,232.521,48,243.26,48,243.288a31.742,31.742,0,0,1,11,12.921,52.313,52.313,0,0,1,5.2,21.678c.259,10.4-2.558,20.458-8.893,26.515,0,.067-16.122,14.958-26.216,24.284a13.681,13.681,0,0,0-2.615,16.794c1.01,1.808,2.134,3.808,3.326,5.932,2.894,5.143,6.23,11.065,9.566,17,2.749,4.884,5.509,9.758,8.018,14.2,1.845,3.278,3.557,6.307,5.047,8.931a13.467,13.467,0,0,0,15.381,6.355s25.755-7.758,34.475-9.787c21.813-5.076,47.866,14.786,48.51,38,.009.356.019.731.019,1.144.067,6.961-.654,21.237-1.086,29.091-.183,3.317-.318,5.48-.318,5.48a13.767,13.767,0,0,0,10.037,13.767l50.693,14.16a13.657,13.657,0,0,0,15.669-6.518l17.305-31.186c11.536-18.189,45.674-22.746,61.113-7.354,0,0,15.036,16.121,24.381,26.235a13.683,13.683,0,0,0,16.756,2.605l14.141-7.95L390.451,448.2l.855-.48a13.7,13.7,0,0,0,6.46-15.68l-9.738-34.388c-1.51-6.027-.673-12.738,1.855-19.188.2-.51.414-1.02.635-1.519,6.22-14.334,20.583-27.014,35.551-27.649,0-.048,22,.8,35.733,1.337a13.637,13.637,0,0,0,13.68-9.98c3.308-11.738,8.643-30.792,12.5-44.558.625-2.24,1.212-4.345,1.75-6.249A13.57,13.57,0,0,0,489.787,282.646ZM309.35,358.863A123.717,123.717,0,0,1,233.6,372.918c-.25-.029-.49-.058-.74-.106a123.255,123.255,0,0,1-38.06-11.777,121.54,121.54,0,0,1-14.43-8.469,122.937,122.937,0,0,1-53-101.106c0-.509,0-1.009.019-1.519a123.38,123.38,0,0,1,32.292-81.869q3.26-3.591,6.873-6.96,4.557-4.255,9.412-7.97a122.742,122.742,0,0,1,47.4-22.255q5.71-1.3,11.5-2.058h.009a122.905,122.905,0,0,1,107.1,204.183q-3.057,3.4-6.4,6.614a.009.009,0,0,1-.009.01h0a124.457,124.457,0,0,1-15.064,12.334A121.462,121.462,0,0,1,309.35,358.863Z" fill="#303751" fill-rule="evenodd"/>

</svg>
