<svg xmlns="http://www.w3.org/2000/svg" width="500" height="500" viewBox="0 0 500 500">
  
  <style>

    img[src*="home-feature-integrate.svg"] + svg {
      filter: drop-shadow(10px 10px 20px rgba(27, 30, 45, 0.6)) drop-shadow(-10px -10px 15px rgba(115, 130, 190, 0.2));
      will-change: filter;
    }

  </style>

  <path class="uk-preserve" d="M399.237,241.662h35.675A42.624,42.624,0,0,0,477.5,199.037h0V65.126A42.625,42.625,0,0,0,434.876,22.5H300.965a42.625,42.625,0,0,0-42.628,42.621v35.639a8.339,8.339,0,0,1-16.67,0V65.126A42.625,42.625,0,0,0,199.042,22.5H65.124A42.625,42.625,0,0,0,22.5,65.126h0V199.037a42.625,42.625,0,0,0,42.624,42.625h35.635a8.354,8.354,0,0,1,0,16.689H65.124A42.624,42.624,0,0,0,22.5,300.957V434.869a42.643,42.643,0,0,0,42.624,42.624H199.035a42.625,42.625,0,0,0,42.624-42.617h0V399.241a8.339,8.339,0,0,1,16.67,0v35.708A42.642,42.642,0,0,0,300.954,477.5h133.91A42.641,42.641,0,0,0,477.488,434.9h0V300.961a42.606,42.606,0,0,0-42.576-42.621H399.237a8.354,8.354,0,0,1,0-16.689Z" fill="#303751"/>

</svg>
