<svg xmlns="http://www.w3.org/2000/svg" width="285" height="285" viewBox="0 0 285 285">

  <style>

    img[src*="home-feature-innovate.svg"] + svg {
      filter: drop-shadow(10px 10px 20px rgba(27, 30, 45, 0.6)) drop-shadow(-10px -10px 15px rgba(115, 130, 190, 0.2));
      will-change: filter;
    }

  </style>

  <path class="uk-preserve" d="M247.55,104c-14.51-39.49,28.29-27.1-.21-58s-19.67,12.75-57.87-5S190.3,1.85,148.26.15a49.77,49.77,0,0,0-14.35,1h0c-17.71,4.8,3.41,24.16-29.83,36.39-39.56,14.56-27.16-28.28-58.09.26s12.7,19.61-5,57.81S1.79,94.77.08,136.78,23,141.67,37.47,181.12s-28.29,27.1.25,58S57.35,226.38,95.55,244s-.83,39.19,41.19,40.89,4.9-22.87,44.35-37.37,27.11,28.33,58-.21-12.75-19.62,4.9-57.81,39.2.83,40.89-41.2S262.05,143.44,247.55,104Zm-105,102.65a64.1,64.1,0,1,1-.09-128.19h.09a64.1,64.1,0,0,1,0,128.19Z" fill="#303751"/>

</svg>
