<svg xmlns="http://www.w3.org/2000/svg" width="500" height="500" viewBox="0 0 500 500">

  <style>

    img[src*="home-feature-automate.svg"] + svg {
      filter: drop-shadow(10px 10px 20px rgba(27, 30, 45, 0.6)) drop-shadow(-10px -10px 15px rgba(115, 130, 190, 0.2));
      will-change: filter;
    }

  </style>
  
  <path class="uk-preserve" d="M479.182,73.647H20.818A5.8,5.8,0,0,0,15,79.432h0v89.087a5.817,5.817,0,0,0,5.785,5.815H34.523a5.935,5.935,0,0,1,5.8,5.8V420.544a5.933,5.933,0,0,0,5.9,5.818H453.941a5.933,5.933,0,0,0,5.817-5.818V180.137a5.934,5.934,0,0,1,5.8-5.8h13.707A5.931,5.931,0,0,0,485,168.519V79.465A5.934,5.934,0,0,0,479.182,73.647ZM306.466,190.112a14.364,14.364,0,0,1-14.33,14.331H208.062a14.363,14.363,0,0,1-14.33-14.331v-2.086A14.4,14.4,0,0,1,207.994,173.5h84.142a14.412,14.412,0,0,1,14.33,14.476Z" fill="#303751"/>

</svg>
