<svg xmlns="http://www.w3.org/2000/svg" width="80" height="80" viewBox="0 0 80 80">

  <defs>
    <linearGradient id="svg-defs-gradient-icon-24-7-support" x1="15" y1="65" x2="65" y2="15" gradientUnits="userSpaceOnUse">
      <stop offset="0" stop-color="#732EDF"/>
      <stop offset="0.65" stop-color="#A92AE7"/>
      <stop offset="1" stop-color="#C729F4"/>
    </linearGradient>
    <mask id="svg-defs-mask-icon-24-7-support">
      <path class="uk-preserve" d="M72.089,40a32.089,32.089,0,1,1-7.877-21.06" fill="none" stroke="#fff" stroke-linecap="round" stroke-width="2"/>
      <polyline class="uk-preserve" points="64.384 11.557 64.384 19.164 57.141 19.164" fill="none" stroke="#fff" stroke-linecap="round" stroke-linejoin="round" stroke-width="2"/>
      <polyline class="uk-preserve" points="53.576 32.632 60.705 32.632 55.405 44.396" fill="none" stroke="#fff" stroke-linecap="round" stroke-linejoin="round" stroke-width="2"/>
      <line class="uk-preserve" x1="49.627" y1="30.554" x2="41.729" y2="46.973" fill="none" stroke="#fff" stroke-linecap="round" stroke-linejoin="round" stroke-width="2"/>
      <polyline class="uk-preserve" points="37.032 40.53 28.843 40.53 35.12 32.632 35.12 44.396" fill="none" stroke="#fff" stroke-linecap="round" stroke-linejoin="round" stroke-width="2"/>
      <path class="uk-preserve" d="M18.6,34.523a3.625,3.625,0,0,1,4.9-1.5l.047.026c1.309.81,2.111,2.834.457,5.3A47.129,47.129,0,0,1,18.452,44.4h6.885" fill="none" stroke="#fff" stroke-linecap="round" stroke-linejoin="round" stroke-width="2"/>
    </mask>
  </defs>

  <rect class="uk-preserve" x="5" y="5" width="70" height="70" fill="url(#svg-defs-gradient-icon-24-7-support)" mask="url(#svg-defs-mask-icon-24-7-support)"/>

</svg>
