<svg id="Ebene_1" data-name="Ebene 1" xmlns="http://www.w3.org/2000/svg" xmlns:xlink="http://www.w3.org/1999/xlink" width="145" height="24" viewBox="0 0 145 24">
  <defs>
    <linearGradient id="Unbenannter_Verlauf" x1="0.12771" y1="1036.00332" x2="19.51654" y2="1036.00332" gradientTransform="translate(0 -1024)" gradientUnits="userSpaceOnUse">
      <stop offset="0" stop-color="#c729f4"/>
      <stop offset="0.47" stop-color="#a92ae7"/>
      <stop offset="1" stop-color="#732edf"/>
    </linearGradient>
    <linearGradient id="Unbenannter_Verlauf_2" x1="18.71246" y1="1033.63606" x2="0.94142" y2="1046.09099" gradientTransform="translate(0 -1024)" gradientUnits="userSpaceOnUse">
      <stop offset="0" stop-color="#bb00fa"/>
      <stop offset="0.36" stop-color="#bb00fa" stop-opacity="0.62"/>
      <stop offset="0.8" stop-color="#bb00fa" stop-opacity="0.18"/>
      <stop offset="1" stop-color="#bb00fa" stop-opacity="0"/>
    </linearGradient>
    <linearGradient id="Unbenannter_Verlauf_3" x1="18.72096" y1="1038.42577" x2="0.93268" y2="1025.95877" gradientTransform="translate(0 -1024)" gradientUnits="userSpaceOnUse">
      <stop offset="0" stop-color="#732edf" stop-opacity="0"/>
      <stop offset="0.06" stop-color="#732edf" stop-opacity="0.02"/>
      <stop offset="0.13" stop-color="#732edf" stop-opacity="0.07"/>
      <stop offset="0.2" stop-color="#732edf" stop-opacity="0.15"/>
      <stop offset="0.27" stop-color="#732edf" stop-opacity="0.27"/>
      <stop offset="0.34" stop-color="#732edf" stop-opacity="0.42"/>
      <stop offset="0.41" stop-color="#732edf" stop-opacity="0.61"/>
      <stop offset="0.48" stop-color="#732edf" stop-opacity="0.83"/>
      <stop offset="0.53" stop-color="#732edf"/>
      <stop offset="0.56" stop-color="#732edf" stop-opacity="0.87"/>
      <stop offset="0.6" stop-color="#732edf" stop-opacity="0.67"/>
      <stop offset="0.65" stop-color="#732edf" stop-opacity="0.49"/>
      <stop offset="0.7" stop-color="#732edf" stop-opacity="0.34"/>
      <stop offset="0.76" stop-color="#732edf" stop-opacity="0.22"/>
      <stop offset="0.81" stop-color="#732edf" stop-opacity="0.12"/>
      <stop offset="0.87" stop-color="#732edf" stop-opacity="0.05"/>
      <stop offset="0.93" stop-color="#732edf" stop-opacity="0.01"/>
      <stop offset="1" stop-color="#732edf" stop-opacity="0"/>
    </linearGradient>
    <linearGradient id="Unbenannter_Verlauf_4" x1="4.061" y1="1024.4201" x2="4.061" y2="1047.62192" gradientTransform="translate(0 -1024)" gradientUnits="userSpaceOnUse">
      <stop offset="0" stop-color="#f200ff"/>
      <stop offset="0.2" stop-color="#f200ff"/>
      <stop offset="0.82" stop-color="#da00ff" stop-opacity="0"/>
    </linearGradient>
  </defs>
  <path d="M57.36,8.07a6.2,6.2,0,0,0-3.57-1,6.61,6.61,0,0,0-3.5.91A6.21,6.21,0,0,0,48,10.51a8.11,8.11,0,0,0-.85,3.84A7.46,7.46,0,0,0,48,18a6.25,6.25,0,0,0,2.4,2.49,7.07,7.07,0,0,0,3.6.89,6.58,6.58,0,0,0,3.61-1A6,6,0,0,0,60,17.51l-3-.91a3.31,3.31,0,0,1-1.3,1.47,3.6,3.6,0,0,1-1.92.49,3.18,3.18,0,0,1-2.62-1.13,4.79022,4.79022,0,0,1-.88-2.36h9.8a9.27,9.27,0,0,0-.54-4.21A5.73006,5.73006,0,0,0,57.36,8.07Zm-3.45,1.7a2.79,2.79,0,0,1,2.4,1,5.27,5.27,0,0,1,.71,2H50.38a5.30984,5.30984,0,0,1,.78-1.87A3.32,3.32,0,0,1,53.91,9.77Zm17-2.29h3L69.06,21H66L61.13,7.48h3l3.4,9.79Zm-29.64.67A.63964.63964,0,0,0,41.14,8a5.39,5.39,0,0,0-3.23-.94A5.91,5.91,0,0,0,34.59,8a6,6,0,0,0-2.18,2.53,8.42,8.42,0,0,0-.77,3.66,8.47,8.47,0,0,0,.76,3.64,6.26,6.26,0,0,0,2.15,2.55,6.26,6.26,0,0,0,6.59,0c.18-.13.35-.28.51-.42v1h2.62V3h-3Zm0,8.39a2.93,2.93,0,0,1-3,2.11,3.1199,3.1199,0,0,1-1.94-.6,3.56,3.56,0,0,1-1.13-1.6,6.57985,6.57985,0,0,1-.37-2.24A6.42984,6.42984,0,0,1,35.22,12a3.46,3.46,0,0,1,1.11-1.58,3.25005,3.25005,0,0,1,2-.59,3,3,0,0,1,1.88.55,3.3,3.3,0,0,1,1.07,1.55,7.28965,7.28965,0,0,1,.34,2.32,7.26954,7.26954,0,0,1-.34,2.31Zm74.6-4.93a7.63,7.63,0,0,0-.45,2.59,6.04987,6.04987,0,0,0,1,3.63,3.51,3.51,0,0,0,3,1.38,3.78,3.78,0,0,0,2.19-.6A3.86,3.86,0,0,0,123,16.88l2.25.59a5.78011,5.78011,0,0,1-2.19,2.89,6.93,6.93,0,0,1-7,.08,5.93,5.93,0,0,1-2.19-2.54,8.57974,8.57974,0,0,1-.77-3.67,8.48,8.48,0,0,1,.79-3.71A6,6,0,0,1,116.07,8a7,7,0,0,1,7.14.14A5.11,5.11,0,0,1,125.28,11l-2.2.66a3.65,3.65,0,0,0-1.39-1.82,3.75,3.75,0,0,0-2.18-.65,3.6,3.6,0,0,0-3.63,2.44Zm-29.6,3.83a3.27,3.27,0,0,1,.44,1.76,3.68,3.68,0,0,1-1.44,3.07,6.23,6.23,0,0,1-4,1.07,6.87,6.87,0,0,1-4-1.05,4.41005,4.41005,0,0,1-1.89-3L77.73,17A2.8801,2.8801,0,0,0,79,18.71a4.42,4.42,0,0,0,2.45.65,3.61,3.61,0,0,0,2.17-.58,1.81,1.81,0,0,0,.8-1.56,1.5101,1.5101,0,0,0-.27-.92,2.3,2.3,0,0,0-1.08-.67c-.54-.21-1.37-.46-2.47-.76a15.40094,15.40094,0,0,1-2.81-1,3.6,3.6,0,0,1-1.46-1.19A3.00006,3.00006,0,0,1,75.89,11a3.4,3.4,0,0,1,.64-2,4.19,4.19,0,0,1,1.82-1.4,6.84,6.84,0,0,1,2.72-.5,7.38994,7.38994,0,0,1,2.75.49,5,5,0,0,1,2,1.38,4,4,0,0,1,.88,2.09l-2.28.41a2.48,2.48,0,0,0-1-1.71,4,4,0,0,0-2.26-.67A3.8,3.8,0,0,0,79,9.57,1.55,1.55,0,0,0,78.12,11a1.21005,1.21005,0,0,0,.31.85,2.90992,2.90992,0,0,0,1.13.65,22.37841,22.37841,0,0,0,2.42.71,13.52,13.52,0,0,1,2.82,1A3.39,3.39,0,0,1,86.27,15.44ZM139.34,21h-3.11l-6.14-6.5V21h-2.26V3h2.25V14l5.67-6.5h2.88l-6,6.75ZM110.13,9.78a3.81,3.81,0,0,0-1.89-2,6.99992,6.99992,0,0,0-3.16-.66,6.09,6.09,0,0,0-3.69,1,4.9301,4.9301,0,0,0-1.88,2.78l2.11.64a3.06,3.06,0,0,1,1.29-1.8,4.16,4.16,0,0,1,2.15-.56,3.32,3.32,0,0,1,2.6.87,3.81,3.81,0,0,1,.72,2.3l-1.5.21c-.81.1-1.62.22-2.41.35a21.37128,21.37128,0,0,0-2.15.46,5.83,5.83,0,0,0-1.77.82,3.56982,3.56982,0,0,0-1.14,1.3,4.26,4.26,0,0,0,.12,3.84,3.73,3.73,0,0,0,1.53,1.47,5.15,5.15,0,0,0,2.53.56,6.28,6.28,0,0,0,3.31-.84,5.29992,5.29992,0,0,0,1.67-1.63V21h2V12.67a9.81016,9.81016,0,0,0-.08-1.53A4.56,4.56,0,0,0,110.13,9.78Zm-2,6.6a3.66,3.66,0,0,1-.7,1.54A3.87008,3.87008,0,0,1,106,19.06a4.65009,4.65009,0,0,1-2.08.43,3.23,3.23,0,0,1-1.56-.31,2,2,0,0,1-1.16-1.86,1.90987,1.90987,0,0,1,.29-1.06,2.52,2.52,0,0,1,.78-.71,5.319,5.319,0,0,1,1-.46,15.67115,15.67115,0,0,1,1.68-.36c.63-.1,1.29-.2,2-.29l1.37-.19V15A5.81108,5.81108,0,0,1,108.13,16.38ZM93,7.48h4V9.32H93v7.87a2,2,0,0,0,.26,1,1.84,1.84,0,0,0,1.43.94A8.12022,8.12022,0,0,0,97,19.07V21a9.43022,9.43022,0,0,1-2.37.21,5.41,5.41,0,0,1-2.09-.48,2.92006,2.92006,0,0,1-1.38-1.35,3.79038,3.79038,0,0,1-.43-1.62V9.32H88V7.48h2.73V3.73H93Z" fill="#fff"/>
  <path d="M19.492,11.57816a3.90323,3.90323,0,0,0-1.71682-2.81982h-.0096L6.25636,1.08554a3.9284,3.9284,0,0,0-5.02568.53716A3.87326,3.87326,0,0,0,.12775,4.34662v15.336a3.95592,3.95592,0,0,0,6.16707,3.23193l11.47074-7.60549A3.96805,3.96805,0,0,0,19.492,11.57816Z" opacity="0.9" fill="url(#Unbenannter_Verlauf)" style="isolation: isolate"/>
  <path d="M4.06474,23.62239a3.93281,3.93281,0,0,1-2.17812-7.20964L13.41877,8.76056a3.93256,3.93256,0,1,1,4.34873,6.55353L6.23536,22.96629A3.917,3.917,0,0,1,4.06474,23.62239Z" fill="url(#Unbenannter_Verlauf_2)"/>
  <path d="M15.58939,15.9702a3.91085,3.91085,0,0,1-2.17764-.66126L1.87913,7.61882A3.93217,3.93217,0,0,1,6.24191,1.07558L17.77453,8.76571a3.93272,3.93272,0,0,1-2.18514,7.20449Z" opacity="0.25" fill="url(#Unbenannter_Verlauf_3)" style="isolation: isolate"/>
  <path d="M4.061,23.62192a3.93271,3.93271,0,0,1-3.9324-3.9324V4.35141a3.9324,3.9324,0,0,1,7.8648,0V19.68952A3.93271,3.93271,0,0,1,4.061,23.62192Z" fill="url(#Unbenannter_Verlauf_4)"/>
</svg>
