<svg xmlns="http://www.w3.org/2000/svg" width="130" height="130" viewBox="0 0 130 130">

  <defs>
    <linearGradient id="svg-defs-gradient-squared-icon-team-socials" x1="35" y1="95" x2="95" y2="35" gradientUnits="userSpaceOnUse">
      <stop offset="0" stop-color="#732EDF"/>
      <stop offset="0.65" stop-color="#A92AE7"/>
      <stop offset="1" stop-color="#C729F4"/>
    </linearGradient>
    <mask id="svg-defs-mask-squared-icon-team-socials">
      <path class="uk-preserve" d="M42.48,61.25,45,51l19.09,4.64L61.56,65.89a9.82,9.82,0,0,1-19.08-4.64Z" fill="none" stroke="#fff" stroke-linecap="round" stroke-linejoin="round" stroke-width="2"/>
      <line class="uk-preserve" x1="41.67" y1="85.41" x2="51.19" y2="87.72" fill="none" stroke="#fff" stroke-linecap="round" stroke-linejoin="round" stroke-width="2"/>
      <line class="uk-preserve" x1="49.7" y1="73.11" x2="46.45" y2="86.49" fill="none" stroke="#fff" stroke-linecap="round" stroke-linejoin="round" stroke-width="2"/>
      <path class="uk-preserve" d="M67.38,69.25,64.32,59.18l18.8-5.7,3,10.07a9.82,9.82,0,1,1-18.79,5.7Z" fill="none" stroke="#fff" stroke-linecap="round" stroke-linejoin="round" stroke-width="2"/>
      <line class="uk-preserve" x1="78.96" y1="90.47" x2="88.33" y2="87.62" fill="none" stroke="#fff" stroke-linecap="round" stroke-linejoin="round" stroke-width="2"/>
      <line class="uk-preserve" x1="79.63" y1="75.8" x2="83.62" y2="88.97" fill="none" stroke="#fff" stroke-linecap="round" stroke-linejoin="round" stroke-width="2"/>
      <path class="uk-preserve" d="M65.9,64a30.67,30.67,0,0,1,10.25.32c4.1.67,6.47,1,10.09.72" fill="none" stroke="#fff" stroke-linecap="round" stroke-linejoin="round" stroke-width="2"/>
      <path class="uk-preserve" d="M62.77,60.53C60,60,54.39,61,50.35,61.59a28.51,28.51,0,0,1-7.84.19" fill="none" stroke="#fff" stroke-linecap="round" stroke-linejoin="round" stroke-width="2"/>
      <line class="uk-preserve" x1="66.17" y1="44.38" x2="66.73" y2="39.53" fill="none" stroke="#fff" stroke-linecap="round" stroke-linejoin="round" stroke-width="2"/>
      <line class="uk-preserve" x1="58.29" y1="44.86" x2="57.2" y2="40.95" fill="none" stroke="#fff" stroke-linecap="round" stroke-linejoin="round" stroke-width="2"/>
      <line class="uk-preserve" x1="73.01" y1="47.19" x2="75.9" y2="43.81" fill="none" stroke="#fff" stroke-linecap="round" stroke-linejoin="round" stroke-width="2"/>
    </mask>
  </defs>

  <style>

    img[src*="squared-icon-team-socials.svg"] + svg {
      filter: drop-shadow(10px 10px 15px rgba(27, 30, 45, 0.4)) drop-shadow(-10px -10px 15px rgba(115, 130, 190, 0.1));
      will-change: filter;
    }

  </style>

  <rect class="uk-preserve" x="0" y="0" width="130" height="130" rx="24" fill="#303751" />
  <rect class="uk-preserve" x="35" y="35" width="60" height="60" fill="url(#svg-defs-gradient-squared-icon-team-socials)" mask="url(#svg-defs-mask-squared-icon-team-socials)" />

</svg>
