<svg xmlns="http://www.w3.org/2000/svg" width="600" height="237" viewBox="0 0 600 237">

  <style>

    img[src*="typo"] + svg {
      filter: drop-shadow(15px 15px 20px rgba(27, 30, 45, 0.3)) drop-shadow(-15px -15px 20px rgba(115, 130, 190, 0.08));
      will-change: filter;
    }

  </style>

  <path class="uk-preserve" d="M156.71,3.84H106.22L0,155.39v36.19H110.36v41.58h46.35V191.58h29.43V150.67H156.71ZM51.63,150.67l61.29-90.23v90.23Z" fill="#303751" fill-rule="evenodd"/>
  <path class="uk-preserve" d="M352.66,15C337.57,5.05,319.2,0,298.08,0s-39.5,5.05-54.6,15-26.86,24-35,41.92S196.21,95.4,196.21,118.5c0,23.32,4.12,44.09,12.24,61.75s20,31.81,35,41.75,33.46,15,54.59,15,39.5-5.05,54.59-15,26.87-24,35-41.75,12.24-38.43,12.24-61.75c0-23.1-4.12-43.82-12.24-61.58S367.74,24.94,352.66,15Zm0,103.5c0,23.81-5.2,42.74-15.45,56.27s-23,20-39.11,20c-16.31,0-29.15-6.55-39.26-20s-15.29-32.47-15.29-56.28,5.15-42.74,15.29-56.28,22.95-20,39.26-20c16.1,0,28.9,6.56,39.11,20S352.63,94.69,352.63,118.5Z" fill="#303751" fill-rule="evenodd"/>
  <path class="uk-preserve" d="M569.92,150.67V3.84h-50.5L413.7,154.69l-.49.7v36.19H523.57v41.58h46.35V191.58h29.43V150.67Zm-105.08,0,61.28-90.23v90.23Z" fill="#303751" fill-rule="evenodd"/>

</svg>
