<svg xmlns="http://www.w3.org/2000/svg" width="80" height="80" viewBox="0 0 80 80">

  <defs>
    <linearGradient id="svg-defs-gradient-icon-meetups-events" x1="15" y1="65" x2="65" y2="15" gradientUnits="userSpaceOnUse">
      <stop offset="0" stop-color="#46d4aa"/>
      <stop offset="0.65" stop-color="#56dd9a"/>
      <stop offset="1" stop-color="#72e475"/>
    </linearGradient>
    <mask id="svg-defs-mask-icon-meetups-events">
      <circle class="uk-preserve" cx="39.3" cy="49.532" r="7.763" fill="none" stroke="#fff" stroke-width="2"/>
      <path class="uk-preserve" d="M25.864,70.531c1.1-7.522,6.7-13.236,13.436-13.236s12.332,5.714,13.436,13.236" fill="none" stroke="#fff" stroke-linecap="round" stroke-width="2"/>
      <circle class="uk-preserve" cx="58.47" cy="45.059" r="7.763" fill="none" stroke="#fff" stroke-width="2"/>
      <path class="uk-preserve" d="M47.026,60.1c2.43-4.384,6.648-7.281,11.444-7.281,6.737,0,12.333,5.714,13.436,13.236" fill="none" stroke="#fff" stroke-linecap="round" stroke-width="2"/>
      <circle class="uk-preserve" cx="21.529" cy="45.059" r="7.763" fill="none" stroke="#fff" stroke-width="2"/>
      <path class="uk-preserve" d="M8.094,66.058c1.1-7.522,6.7-13.236,13.435-13.236a13.113,13.113,0,0,1,11.024,6.564" fill="none" stroke="#fff" stroke-linecap="round" stroke-width="2"/>
      <circle class="uk-preserve" cx="22.7" cy="18.286" r="1.918" fill="none" stroke="#fff" stroke-linecap="round" stroke-width="2"/>
      <circle class="uk-preserve" cx="47.316" cy="11.105" r="1.636" fill="none" stroke="#fff" stroke-linecap="round" stroke-width="1.7"/>
      <circle class="uk-preserve" cx="59.377" cy="17.96" r="1.992" fill="none" stroke="#fff" stroke-linecap="round" stroke-width="1.7"/>
      <circle class="uk-preserve" cx="56.233" cy="27.502" r="1.861" fill="none" stroke="#fff" stroke-linecap="round" stroke-width="1.7"/>
      <path class="uk-preserve" d="M27.123,21.926c4.414,2.983,6.323,5.688,7.842,13.03" fill="none" stroke="#fff" stroke-linecap="round" stroke-width="1.7"/>
      <path class="uk-preserve" d="M55.121,21.926c-5.423,3.715-6.694,8.952-7.505,13.247" fill="none" stroke="#fff" stroke-linecap="round" stroke-width="1.7"/>
      <polygon class="uk-preserve" points="44.477 23.08 41.311 21.36 38.097 22.992 38.756 19.448 36.21 16.897 39.784 16.429 41.424 13.219 42.974 16.473 46.533 17.041 43.917 19.521 44.477 23.08" fill="none" stroke="#fff" stroke-linecap="round" stroke-linejoin="round" stroke-width="1.7"/>
      <polygon class="uk-preserve" points="31.203 11.482 30.156 11.754 29.786 12.771 29.204 11.859 28.123 11.822 28.81 10.987 28.511 9.946 29.519 10.342 30.416 9.736 30.35 10.817 31.203 11.482" fill="none" stroke="#fff" stroke-linecap="round" stroke-width="1.7"/>
      <circle class="uk-preserve" cx="26.78" cy="30.339" r="1.636" fill="none" stroke="#fff" stroke-linecap="round" stroke-width="1.7"/>
    </mask>
  </defs>

  <rect class="uk-preserve" x="3" y="3" width="74" height="74" fill="url(#svg-defs-gradient-icon-meetups-events)" mask="url(#svg-defs-mask-icon-meetups-events)"/>

</svg>
