<svg xmlns="http://www.w3.org/2000/svg" xmlns:xlink="http://www.w3.org/1999/xlink" width="145" height="24" viewBox="0 0 145 24">
  <defs>
    <linearGradient id="Unbenannter_Verlauf_6" x1="0.13235" y1="1035.9918" x2="19.51534" y2="1035.9918" gradientTransform="translate(0 -1024)" gradientUnits="userSpaceOnUse">
      <stop offset="0" stop-color="#38ad8b"/>
      <stop offset="1" stop-color="#a1f0a1"/>
    </linearGradient>
    <linearGradient id="Unbenannter_Verlauf_2" x1="18.71652" y1="1033.61781" x2="0.93977" y2="1046.07254" gradientTransform="translate(0 -1024)" gradientUnits="userSpaceOnUse">
      <stop offset="0" stop-color="#3eecaf"/>
      <stop offset="0.18" stop-color="#3eecaf"/>
      <stop offset="0.82" stop-color="#47d8af" stop-opacity="0"/>
    </linearGradient>
    <linearGradient id="Unbenannter_Verlauf_44" x1="18.72284" y1="1038.4117" x2="0.93284" y2="1025.9417" gradientTransform="translate(0 -1024)" gradientUnits="userSpaceOnUse">
      <stop offset="0" stop-color="#081a14" stop-opacity="0"/>
      <stop offset="0.01" stop-color="#081a14" stop-opacity="0.09"/>
      <stop offset="0.07" stop-color="#081a14" stop-opacity="0.5"/>
      <stop offset="0.14" stop-color="#081a14" stop-opacity="0.79"/>
      <stop offset="0.25" stop-color="#081a14" stop-opacity="0.95"/>
      <stop offset="0.53" stop-color="#081a14"/>
      <stop offset="0.72" stop-color="#081a14" stop-opacity="0.94"/>
      <stop offset="0.84" stop-color="#081a14" stop-opacity="0.73"/>
      <stop offset="0.93" stop-color="#081a14" stop-opacity="0.38"/>
      <stop offset="1" stop-color="#081a14" stop-opacity="0"/>
    </linearGradient>
    <linearGradient id="Unbenannter_Verlauf_33" x1="4.06735" y1="1024.3974" x2="4.06735" y2="1047.60241" gradientTransform="translate(0 -1024)" gradientUnits="userSpaceOnUse">
      <stop offset="0" stop-color="#00ff7f"/>
      <stop offset="0.35" stop-color="#00ff7f"/>
      <stop offset="0.8" stop-color="#00ff7f" stop-opacity="0.18"/>
      <stop offset="1" stop-color="#56dd9a" stop-opacity="0"/>
    </linearGradient>
  </defs>
  <path d="M57.4,8.1a6.53,6.53,0,0,0-3.6-1,7.30008,7.30008,0,0,0-3.5.9A6.14,6.14,0,0,0,48,10.5a7.26,7.26,0,0,0-.8,3.8,8.63,8.63,0,0,0,.8,3.6,6.4,6.4,0,0,0,2.4,2.5,7.4,7.4,0,0,0,3.6.9,6.37,6.37,0,0,0,6-3.8l-3-.9a3.74,3.74,0,0,1-1.3,1.5,4.14,4.14,0,0,1-1.9.5,3.14,3.14,0,0,1-2.6-1.1,5,5,0,0,1-.9-2.4h9.8a9.93011,9.93011,0,0,0-.5-4.2A6.15,6.15,0,0,0,57.4,8.1ZM53.9,9.8a2.8,2.8,0,0,1,2.4,1,4.78992,4.78992,0,0,1,.7,2H50.4a4.5501,4.5501,0,0,1,.8-1.9A3.06,3.06,0,0,1,53.9,9.8Zm17-2.3h3L69.1,21H66L61.1,7.5h3l3.4,9.8Zm-29.6.7-.1-.1A5.2,5.2,0,0,0,38,7.2a6.29007,6.29007,0,0,0-3.3.9,5.9,5.9,0,0,0-2.2,2.5,9.09,9.09,0,0,0-.8,3.7,7.32,7.32,0,0,0,.8,3.6,5.9,5.9,0,0,0,2.2,2.5,6.5,6.5,0,0,0,6.6,0c.2-.1.3-.3.5-.4v1h2.6V3h-3Zm0,8.4a2.92,2.92,0,0,1-3,2.1,3.08,3.08,0,0,1-1.9-.6,3.55,3.55,0,0,1-1.1-1.6,5.7,5.7,0,0,1-.4-2.2,5.3799,5.3799,0,0,1,.4-2.2,3.55,3.55,0,0,1,1.1-1.6,3.61,3.61,0,0,1,2-.6,3.29,3.29,0,0,1,1.9.6,3.09,3.09,0,0,1,1.1,1.6,5.83,5.83,0,0,1,.3,2.3C41.6,15,41.5,15.8,41.3,16.6Zm74.6-5a5.68992,5.68992,0,0,0-.4,2.6,5.63,5.63,0,0,0,1,3.6,3.75,3.75,0,0,0,3,1.4,4.28,4.28,0,0,0,2.2-.6,3.91,3.91,0,0,0,1.4-1.7l2.2.6a5.81012,5.81012,0,0,1-2.2,2.9,7,7,0,0,1-7,.1,5.9,5.9,0,0,1-2.2-2.5,9.45984,9.45984,0,0,1-.8-3.7,8,8,0,0,1,.8-3.7,5.9,5.9,0,0,1,2.2-2.5,7,7,0,0,1,7.1.1,5.63,5.63,0,0,1,2.1,2.9l-2.2.7a3.56,3.56,0,0,0-1.4-1.8,3.34,3.34,0,0,0-2.2-.6A3.21,3.21,0,0,0,115.9,11.6ZM86.3,15.5a2.68991,2.68991,0,0,1,.4,1.8,4.1,4.1,0,0,1-1.4,3.1,6.4,6.4,0,0,1-4,1.1,7,7,0,0,1-4-1,4.63,4.63,0,0,1-1.9-3l2.3-.3A2.74,2.74,0,0,0,79,18.9a3.48,3.48,0,0,0,2.4.6,4.28,4.28,0,0,0,2.2-.6,1.82,1.82,0,0,0,.8-1.6,1.4,1.4,0,0,0-.3-.9,2.58992,2.58992,0,0,0-1.1-.7,25.45182,25.45182,0,0,0-2.5-.8,13.3203,13.3203,0,0,1-2.8-1,4.43,4.43,0,0,1-1.5-1.2,2.39992,2.39992,0,0,1-.4-1.6A3.93987,3.93987,0,0,1,76.4,9a4.89,4.89,0,0,1,1.8-1.4,6.46,6.46,0,0,1,2.7-.5,9.1801,9.1801,0,0,1,2.8.5,4.83,4.83,0,0,1,2,1.4,4,4,0,0,1,.9,2.1l-2.3.4a2.33,2.33,0,0,0-1-1.7A4.76005,4.76005,0,0,0,81,9.1a3.42,3.42,0,0,0-2.2.5,1.69,1.69,0,0,0-.9,1.4,1.61,1.61,0,0,0,.3.9,2.3801,2.3801,0,0,0,1.1.6,21.72,21.72,0,0,0,2.4.7,13.32039,13.32039,0,0,1,2.8,1A3.15,3.15,0,0,1,86.3,15.5Zm53,5.5h-3.1l-6.1-6.5V21h-2.3V3H130V14l5.7-6.5h2.9l-6,6.8ZM110.1,9.8a3.72,3.72,0,0,0-1.9-2,7.11008,7.11008,0,0,0-3.2-.7,6.09,6.09,0,0,0-3.7,1,5.43006,5.43006,0,0,0-1.9,2.8l2.1.6a3.38008,3.38008,0,0,1,1.3-1.8,4.28,4.28,0,0,1,2.2-.6,3.11,3.11,0,0,1,2.6.9,3.89,3.89,0,0,1,.7,2.3l-1.5.2a19.99857,19.99857,0,0,0-2.4.4,22.49953,22.49953,0,0,0-2.2.5,7.1,7.1,0,0,0-1.8.8,2.76,2.76,0,0,0-1.1,1.3,4.23,4.23,0,0,0,.1,3.8,5.36,5.36,0,0,0,1.5,1.5,5.73009,5.73009,0,0,0,2.5.6,7.31012,7.31012,0,0,0,3.3-.8,6.47982,6.47982,0,0,0,1.7-1.6v2h2V12.7a7.57006,7.57006,0,0,0-.1-1.5A2.20007,2.20007,0,0,0,110.1,9.8Zm-2,6.6a2.63006,2.63006,0,0,1-.7,1.5A3.59994,3.59994,0,0,1,106,19a5.21986,5.21986,0,0,1-2.1.4,4.5302,4.5302,0,0,1-1.6-.3,2.12,2.12,0,0,1-1.2-1.9,2.27988,2.27988,0,0,1,.3-1.1,2.70013,2.70013,0,0,1,.8-.7c.3-.2.7-.3,1-.5a10.45974,10.45974,0,0,1,1.7-.4l2-.3,1.4-.2v1A3.39989,3.39989,0,0,1,108.1,16.4ZM93,7.5h4V9.3H93v7.9a1.93,1.93,0,0,0,.3,1,1.69,1.69,0,0,0,1.4.9A6.00008,6.00008,0,0,0,97,19v2a9.73952,9.73952,0,0,1-2.4.2,5.36993,5.36993,0,0,1-2.1-.5,3.4,3.4,0,0,1-1.8-3V9.3H88V7.5h2.7V3.8H93Z" fill="#1a1a1a"/>
  <g>
    <path d="M19.49235,11.5624a3.9,3.9,0,0,0-1.71-2.82h0l-11.52-7.67a3.93,3.93,0,0,0-5,.53,3.87,3.87,0,0,0-1.13,2.73v15.33a4,4,0,0,0,4,3.91,3.86011,3.86011,0,0,0,2.16-.68l11.48-7.6A4,4,0,0,0,19.49235,11.5624Z" fill="url(#Unbenannter_Verlauf_6)"/>
    <path d="M4.06235,23.6024a3.93,3.93,0,0,1-2.17-7.21l11.53-7.65a3.93144,3.93144,0,0,1,4.35,6.55l-11.53,7.69A4,4,0,0,1,4.06235,23.6024Z" fill="url(#Unbenannter_Verlauf_2)"/>
    <path d="M15.59235,15.9824a3.93,3.93,0,0,1-2.18-.66l-11.53-7.72a3.93005,3.93005,0,0,1,4.36-6.54h0l11.53,7.69a3.93,3.93,0,0,1-2.18,7.23Z" opacity="0.25" fill="url(#Unbenannter_Verlauf_44)" style="isolation: isolate"/>
    <path d="M4.06235,23.6024a3.93,3.93,0,0,1-3.93-3.93h0V4.3324a3.935,3.935,0,0,1,7.87,0v15.34a3.93,3.93,0,0,1-3.93,3.93Z" fill="url(#Unbenannter_Verlauf_33)"/>
  </g>
</svg>
