<svg xmlns="http://www.w3.org/2000/svg" width="130" height="130" viewBox="0 0 130 130">

  <defs>
    <linearGradient id="svg-defs-gradient-squared-icon-money-back-guarantee" x1="35" y1="95" x2="95" y2="35" gradientUnits="userSpaceOnUse">
      <stop offset="0" stop-color="#46d4aa"/>
      <stop offset="0.65" stop-color="#56dd9a"/>
      <stop offset="1" stop-color="#72e475"/>
    </linearGradient>
    <mask id="svg-defs-mask-squared-icon-money-back-guarantee">
      <path class="uk-preserve" d="M87.56,68.31v8.18a3.32,3.32,0,0,1-3.32,3.32H44.18A3.78,3.78,0,0,1,40.4,76V43.7" fill="none" stroke="#fff" stroke-linecap="round" stroke-linejoin="round" stroke-width="2"/>
      <circle class="uk-preserve" cx="79.15" cy="63.38" r="1.93" fill="#fff"/>
      <path class="uk-preserve" d="M79.42,58.45H89.6a0,0,0,0,1,0,0v9.86a0,0,0,0,1,0,0H79.42a4.93,4.93,0,0,1-4.93-4.93v0A4.93,4.93,0,0,1,79.42,58.45Z" fill="none" stroke="#fff" stroke-linecap="round" stroke-linejoin="round" stroke-width="2"/>
      <path class="uk-preserve" d="M82.42,38.33H44.7a4.31,4.31,0,0,0-4.3,4.31h0A4.31,4.31,0,0,0,44.7,47H84.05a3.51,3.51,0,0,1,3.51,3.5v8" fill="none" stroke="#fff" stroke-linecap="round" stroke-linejoin="round" stroke-width="2"/>
      <line class="uk-preserve" x1="45.77" y1="42.64" x2="82.42" y2="42.64" fill="none" stroke="#fff" stroke-linecap="round" stroke-linejoin="round" stroke-width="2"/>
      <path class="uk-preserve" d="M47.2,73.54a12.62,12.62,0,1,1,3,15" fill="none" stroke="#fff" stroke-linecap="round" stroke-linejoin="round" stroke-width="2"/>
      <polyline class="uk-preserve" points="52.26 73.92 46.26 73.92 46.26 67.92" fill="none" stroke="#fff" stroke-linecap="round" stroke-linejoin="round" stroke-width="2"/>
    </mask>
  </defs>

  <style>

    img[src*="squared-icon-money-back-guarantee.svg"] + svg {
      filter: drop-shadow(20px 20px 20px rgba(60, 65, 124, 0.12)) drop-shadow(-20px -20px 20px rgba(255, 255, 255, 0.9));
      will-change: filter;
    }

  </style>

  <rect class="uk-preserve" x="0" y="0" width="130" height="130" rx="24" fill="#f7f8fc" />
  <rect class="uk-preserve" x="35" y="35" width="60" height="60" fill="url(#svg-defs-gradient-squared-icon-money-back-guarantee)" mask="url(#svg-defs-mask-squared-icon-money-back-guarantee)" />

</svg>
