<svg xmlns="http://www.w3.org/2000/svg" width="500" height="500" viewBox="0 0 500 500">

  <style>

    img[src*="feature-ci-cd.svg"] + svg {
      filter: drop-shadow(10px 10px 15px rgba(0, 0, 0, 0.35)) drop-shadow(-10px -10px 15px rgba(255, 255, 255, 0.048));
      will-change: filter;
    }

  </style>

  <path class="uk-preserve" d="M479.172,17.032H20.83A5.858,5.858,0,0,0,15,22.86v89.111c-.188,8.836,14.476,5.076,19.458,5.828a5.857,5.857,0,0,1,5.828,5.828V347.158a5.9,5.9,0,0,0,5.734,5.828H453.79a5.856,5.856,0,0,0,5.828-5.828V123.627c-.094-8.836,14.382-5.076,19.552-5.828a5.92,5.92,0,0,0,5.83-5.828V22.86A5.984,5.984,0,0,0,479.172,17.032ZM292.113,116.953c8.93,0,15.228,7.99,14.382,16.638h0a14.361,14.361,0,0,1-14.382,14.288H208.077c-8.836.094-15.228-7.8-14.382-16.45a14.264,14.264,0,0,1,14.05-14.474h.238Z" fill="#202326"/>

</svg>
