<svg xmlns="http://www.w3.org/2000/svg" xmlns:xlink="http://www.w3.org/1999/xlink" width="1100" height="450" viewBox="0 0 1100 450">
  <defs>
    <linearGradient id="a" x1="621.38" y1="442.325" x2="681.237" y2="59.238" gradientTransform="matrix(1, 0, 0, -1, 0, 452)" gradientUnits="userSpaceOnUse">
      <stop offset="0.274" stop-color="#070809"/>
      <stop offset="0.395" stop-color="#070809" stop-opacity="0.86"/>
      <stop offset="0.665" stop-color="#070809" stop-opacity="0.49"/>
      <stop offset="1" stop-color="#070809" stop-opacity="0"/>
    </linearGradient>
    <linearGradient id="b" x1="345.725" y1="302.282" x2="179.753" y2="35.399" gradientTransform="matrix(1, 0, 0, -1, 0, 452)" gradientUnits="userSpaceOnUse">
      <stop offset="0" stop-color="#070809"/>
      <stop offset="0.14" stop-color="#070809"/>
      <stop offset="0.46" stop-color="#070809" stop-opacity="0.5"/>
      <stop offset="0.74" stop-color="#070809" stop-opacity="0.3"/>
      <stop offset="1" stop-color="#070809" stop-opacity="0"/>
    </linearGradient>
    <linearGradient id="c" x1="253.377" y1="319.708" x2="432.949" y2="488.639" gradientTransform="matrix(1, 0, 0, -1, 0, 452)" gradientUnits="userSpaceOnUse">
      <stop offset="0" stop-color="#070809" stop-opacity="0.8"/>
      <stop offset="0.14" stop-color="#070809" stop-opacity="0.7"/>
      <stop offset="0.46" stop-color="#070809" stop-opacity="0.4"/>
      <stop offset="0.998" stop-color="#070809" stop-opacity="0"/>
    </linearGradient>
  </defs>
  <path d="M1100,0V450l-889.96-.05L504.44,256.8l8.23-5.4a113.682,113.682,0,0,0,5.61-186.07c-.34-.25-.67-.5-1.01-.74-.4-.29-.8-.57-1.2-.85-.5-.36-1.01-.71-1.52-1.06-1.05-.73-2.12-1.43-3.2-2.11l-.31-.2L419.08,0Z" opacity="0.2" fill="url(#a)"/>
  <path d="M512.67,251.4,209.97,450H0V316.044l388.06-254.6A113.592,113.592,0,0,1,512.67,251.4Z" opacity="0.15" fill="url(#b)" style="isolation: isolate"/>
  <path d="M545.68,219a113.539,113.539,0,0,1-157.2,32.711l-.018-.011h-.07L4.91,0H419.08L513,61.65a113.59,113.59,0,0,1,32.68,157.28h0Z" opacity="0.15" fill="url(#c)" style="isolation: isolate"/>
</svg>
