<svg id="Ebene_1" data-name="Ebene 1" xmlns="http://www.w3.org/2000/svg" width="73" height="30" viewBox="0 0 73 30">
  <path d="M8,23.71h.14a1.47,1.47,0,0,1-1-.22,1.8,1.8,0,0,1-.75-.84L.2,8.5h0a1.48,1.48,0,0,1-.13-.35A1.61,1.61,0,0,1,0,7.66a1.5,1.5,0,0,1,.45-1,1.56,1.56,0,0,1,1.21-.49,1.82,1.82,0,0,1,.94.26l.12.07a1.55,1.55,0,0,1,.53.71L8.2,18.63,13.09,7.26h0a1.5,1.5,0,0,1,1.49-1,1.61,1.61,0,0,1,1.11.41,1.38,1.38,0,0,1,.45,1.07,1.2,1.2,0,0,1-.07.42,2.9,2.9,0,0,1-.16.41L9.61,22.64h0A1.6,1.6,0,0,1,8.18,23.7ZM21.75,4a2.51,2.51,0,0,0,1.44-.33,1.38,1.38,0,0,0,.44-1.2h0V2A1.37,1.37,0,0,0,23.2.85,2.29,2.29,0,0,0,21.78.5a2.41,2.41,0,0,0-1.39.33A1.29,1.29,0,0,0,19.92,2h0v.5a1.47,1.47,0,0,0,.43,1.17,2.23,2.23,0,0,0,1.4.35Zm0,19.67A1.57,1.57,0,0,0,23,23.22a1.67,1.67,0,0,0,.47-1.2h0V7.89A1.67,1.67,0,0,0,23,6.69a1.56,1.56,0,0,0-1.19-.48,1.63,1.63,0,0,0-1.66,1.6v.08h0V22a1.64,1.64,0,0,0,1.6,1.68h0ZM30.11,26a2.14,2.14,0,0,0-1.39.35,1.4,1.4,0,0,0-.4,1.18V28h0a1.29,1.29,0,0,0,.46,1.15,2.41,2.41,0,0,0,1.39.33,2.33,2.33,0,0,0,1.43-.35A1.36,1.36,0,0,0,32,28v-.5h0a1.4,1.4,0,0,0-.45-1.19A2.42,2.42,0,0,0,30.11,26Zm0-19.67a1.63,1.63,0,0,0-1.66,1.6V22.11h0a1.64,1.64,0,0,0,1.6,1.68h.06a1.56,1.56,0,0,0,1.19-.48,1.67,1.67,0,0,0,.47-1.2V8h0a1.67,1.67,0,0,0-.47-1.2,1.58,1.58,0,0,0-1.19-.5ZM44.8,6a8.66,8.66,0,0,0-7.64,4.37A9.13,9.13,0,0,0,36,15a9.19,9.19,0,0,0,1.18,4.67,8.66,8.66,0,0,0,3.18,3.18,9.16,9.16,0,0,0,8.93,0,8.63,8.63,0,0,0,3.17-3.18A9.21,9.21,0,0,0,53.63,15a9.19,9.19,0,0,0-1.17-4.7A8.65,8.65,0,0,0,44.82,6Zm0,3a5.22,5.22,0,0,1,2.8.78,5.55,5.55,0,0,1,2,2.11A6.47,6.47,0,0,1,50.33,15a6.44,6.44,0,0,1-.73,3.1,5.41,5.41,0,0,1-2,2.11,5.29,5.29,0,0,1-2.8.76A5.12,5.12,0,0,1,42,20.2a5.55,5.55,0,0,1-2-2.11,6.31,6.31,0,0,1-.74-3.1A6.39,6.39,0,0,1,40,11.84a5.63,5.63,0,0,1,2-2.11A5.11,5.11,0,0,1,44.8,9ZM71.34,23.7a1.59,1.59,0,0,0,1.18-.48A1.63,1.63,0,0,0,73,22h0V13.17a12,12,0,0,0-.51-3.67,5.16,5.16,0,0,0-1.81-2.61,6,6,0,0,0-3.64-1,6.26,6.26,0,0,0-2.19.37,7,7,0,0,0-1.86,1,8.37,8.37,0,0,0-1.41,1.38l-.15.22-.06.08v-1a1.64,1.64,0,0,0-.37-1l-.11-.12a1.7,1.7,0,0,0-2.37,0A1.61,1.61,0,0,0,58.06,8h0V22a1.62,1.62,0,0,0,.46,1.2,1.7,1.7,0,0,0,2.37,0,1.64,1.64,0,0,0,.48-1.2h0V13.2A3.9,3.9,0,0,1,62,11.08a4.27,4.27,0,0,1,1.61-1.52A4.73,4.73,0,0,1,66,9a3.79,3.79,0,0,1,2.27.58,3,3,0,0,1,1.14,1.52,6.12,6.12,0,0,1,.34,2.12h0V22a1.62,1.62,0,0,0,.46,1.2,1.6,1.6,0,0,0,1.19.48Z" fill="#8c8f90"/>
</svg>
