<svg id="Ebene_1" data-name="Ebene 1" xmlns="http://www.w3.org/2000/svg" width="88" height="30" viewBox="0 0 88 30">
  <polygon points="8.09 0 19.14 3.4 12.39 25.63 1.33 22.24 8.09 0 8.09 0" fill="#686b6b" fill-rule="evenodd"/>
  <path d="M19.6,13.43l11.21-2.79,2.8,11.29L22.4,24.71ZM55.5,11l-.71.78-7.52,8.46h8a2.2,2.2,0,0,1,1.48.46,1.58,1.58,0,0,1,.5,1.19,1.46,1.46,0,0,1-.5,1.14,2.18,2.18,0,0,1-1.48.44H44.21A2.6,2.6,0,0,1,42.46,23a1.81,1.81,0,0,1-.18-2.47c.28-.36.84-1,1.69-1.94l2.45-2.74c.74-.82,1.43-1.58,2.06-2.3s1.16-1.31,1.57-1.81.76-1,1-1.26H44.94A5.81,5.81,0,0,1,43,10.2c-.44-.14-.65-.55-.65-1.19a1.46,1.46,0,0,1,.56-1.18,2.13,2.13,0,0,1,1.4-.42h9.44a4.17,4.17,0,0,1,2,.39,1.45,1.45,0,0,1,.7,1.39,2,2,0,0,1-.13.69,2.49,2.49,0,0,1-.31.58c-.14.19-.29.37-.45.55Zm6.77-3.34a2.4,2.4,0,0,1,.58,1.72v12a2.7,2.7,0,0,1-.58,1.87,1.89,1.89,0,0,1-1.49.64,1.79,1.79,0,0,1-1.41-.64,2.71,2.71,0,0,1-.56-1.86V9.52a2.57,2.57,0,0,1,.56-1.85,1.89,1.89,0,0,1,1.47-.62,1.94,1.94,0,0,1,1.43.62Zm0-3.08a2,2,0,0,1-1.43.54,2.14,2.14,0,0,1-1.47-.54,1.82,1.82,0,0,1-.58-1.49,1.83,1.83,0,0,1,.58-1.45,2.1,2.1,0,0,1,1.45-.57,2.21,2.21,0,0,1,1.45.52,1.88,1.88,0,0,1,.61,1.5,1.93,1.93,0,0,1-.61,1.5Zm7.17,3.06A2.45,2.45,0,0,1,70,9.36v.51a7.9,7.9,0,0,1,2.4-2.13,5.8,5.8,0,0,1,2.83-.68,6.55,6.55,0,0,1,3.49,1A6.75,6.75,0,0,1,81.24,11a10,10,0,0,1,1,4.48,11.07,11.07,0,0,1-.6,3.52,7.9,7.9,0,0,1-1.47,2.68A6.19,6.19,0,0,1,78,23.3a6.44,6.44,0,0,1-2.73.58,5.61,5.61,0,0,1-3-.7A8.53,8.53,0,0,1,70,21.06v6.2c0,1.82-.65,2.73-1.94,2.73a1.62,1.62,0,0,1-1.54-.71,4.39,4.39,0,0,1-.39-2.05V9.39a2.58,2.58,0,0,1,.51-1.76,1.77,1.77,0,0,1,1.42-.58,1.82,1.82,0,0,1,1.42.6ZM77.5,18.29a7,7,0,0,0,.53-2.9,7,7,0,0,0-.48-2.82,4,4,0,0,0-1.37-1.79,3.28,3.28,0,0,0-1.94-.63,3.66,3.66,0,0,0-2.9,1.34,6,6,0,0,0-1.14,4,5.83,5.83,0,0,0,1.15,3.87,3.62,3.62,0,0,0,2.9,1.37,3.45,3.45,0,0,0,1.94-.6,4.1,4.1,0,0,0,1.39-1.79ZM82.63,4.57v2.2h-.55V4.57h-.83V4.09h2.19v.48Zm1.64.06V6.77h-.51V4.09h.85L85.11,6l.49-1.87h.85V6.77h-.52V4.63l-.58,2.14h-.5L84.27,4.6Z" fill="#8c8f90" fill-rule="evenodd"/>
</svg>
