<svg id="Ebene_1" data-name="Ebene 1" xmlns="http://www.w3.org/2000/svg" width="90" height="30" viewBox="0 0 90 30">
  <path d="M15.71,15.49A10.93,10.93,0,0,0,13.57,14a22.1,22.1,0,0,0-2.35-1c-.89-.36-1.77-.76-2.62-1.2a6.4,6.4,0,0,1-2-1.42,2.67,2.67,0,0,1-.81-1.94A2.89,2.89,0,0,1,6.91,6,5,5,0,0,1,10,5.15a10.36,10.36,0,0,1,3.07.53,20.44,20.44,0,0,1,3,1.3L17.8,3.72a17.34,17.34,0,0,0-3.57-1.67,15.28,15.28,0,0,0-4.85-.61,9.58,9.58,0,0,0-4.2,1A7,7,0,0,0,2.35,5a7.27,7.27,0,0,0-1,3.83,6.61,6.61,0,0,0,.66,3A6.21,6.21,0,0,0,3.78,14a11.85,11.85,0,0,0,2.47,1.47c.89.4,1.72.75,2.53,1.07a15.84,15.84,0,0,1,2.28,1.08A6.18,6.18,0,0,1,12.77,19a2.8,2.8,0,0,1,.65,1.92,3.28,3.28,0,0,1-.73,2.27,4.16,4.16,0,0,1-1.88,1.26,6.86,6.86,0,0,1-2.25.38,8.65,8.65,0,0,1-2.31-.38,13.79,13.79,0,0,1-2.34-.9,11.57,11.57,0,0,1-2-1.21L0,25.66a13.48,13.48,0,0,0,2.63,1.51,16.77,16.77,0,0,0,3,1,14.38,14.38,0,0,0,3.27.37,10.17,10.17,0,0,0,4.79-1,7.66,7.66,0,0,0,3.06-2.75,7.15,7.15,0,0,0,1-3.83,8.17,8.17,0,0,0-.56-3.21A6.29,6.29,0,0,0,15.71,15.49Zm39.8-13.8h-4.6L45.19,19,38.37,1.69H34.12l2.57,6.5L32.3,19.44,26,1.69H21.11L31.78,29.44l7-15.89,6.29,15.89ZM64.2.44,52.38,28.26h4.21L59.18,22h9.69l2.49,6.27h4.86L64.45.44ZM60.66,18.33l3.45-8.44,3.34,8.44ZM90,1.69H85.31L80.68,12.06,76.12,1.69H71.43L83,28.26h4.9L83.16,17.58Z" fill="#8c8f90"/>
</svg>
