<svg xmlns="http://www.w3.org/2000/svg" xmlns:xlink="http://www.w3.org/1999/xlink" width="216" height="216" viewBox="0 0 216 216">
  <defs>
    <linearGradient id="Unbenannter_Verlauf_9" x1="73.35004" y1="940.00416" x2="154.60284" y2="940.00416" gradientTransform="translate(0 -832)" gradientUnits="userSpaceOnUse">
      <stop offset="0" stop-color="#ff924f"/>
      <stop offset="0.43" stop-color="#ff6847"/>
      <stop offset="0.79" stop-color="#ff4b42"/>
      <stop offset="1" stop-color="#ff4040"/>
    </linearGradient>
    <linearGradient id="Unbenannter_Verlauf_12" x1="151.23151" y1="929.95154" x2="76.75384" y2="982.15293" gradientTransform="translate(0 -832)" gradientUnits="userSpaceOnUse">
      <stop offset="0" stop-color="#fe3966"/>
      <stop offset="0.36" stop-color="#fe3966" stop-opacity="0.62"/>
      <stop offset="0.8" stop-color="#fe3966" stop-opacity="0.18"/>
      <stop offset="1" stop-color="#fe3966" stop-opacity="0"/>
    </linearGradient>
    <linearGradient id="Unbenannter_Verlauf_8" x1="151.20387" y1="950.06134" x2="76.73975" y2="897.87547" gradientTransform="translate(0 -832)" gradientUnits="userSpaceOnUse">
      <stop offset="0" stop-color="#ff3737" stop-opacity="0"/>
      <stop offset="0.06" stop-color="#ff3737" stop-opacity="0.02"/>
      <stop offset="0.13" stop-color="#ff3737" stop-opacity="0.07"/>
      <stop offset="0.2" stop-color="#ff3737" stop-opacity="0.15"/>
      <stop offset="0.27" stop-color="#ff3737" stop-opacity="0.27"/>
      <stop offset="0.34" stop-color="#ff3737" stop-opacity="0.42"/>
      <stop offset="0.41" stop-color="#ff3737" stop-opacity="0.61"/>
      <stop offset="0.48" stop-color="#ff3737" stop-opacity="0.83"/>
      <stop offset="0.53" stop-color="#ff3737"/>
      <stop offset="0.56" stop-color="#ff3737" stop-opacity="0.87"/>
      <stop offset="0.6" stop-color="#ff3737" stop-opacity="0.67"/>
      <stop offset="0.65" stop-color="#ff3737" stop-opacity="0.49"/>
      <stop offset="0.7" stop-color="#ff3737" stop-opacity="0.34"/>
      <stop offset="0.76" stop-color="#ff3737" stop-opacity="0.22"/>
      <stop offset="0.81" stop-color="#ff3737" stop-opacity="0.12"/>
      <stop offset="0.87" stop-color="#ff3737" stop-opacity="0.05"/>
      <stop offset="0.93" stop-color="#ff3737" stop-opacity="0.01"/>
      <stop offset="1" stop-color="#ff3737" stop-opacity="0"/>
    </linearGradient>
    <linearGradient id="Unbenannter_Verlauf_6" x1="89.85" y1="891.41881" x2="89.85" y2="988.58942" gradientTransform="translate(0 -832)" gradientUnits="userSpaceOnUse">
      <stop offset="0" stop-color="#ff8b43"/>
      <stop offset="0.2" stop-color="#ff8b43"/>
      <stop offset="0.82" stop-color="#ff8b43" stop-opacity="0"/>
    </linearGradient>
  </defs>
  <circle class="uk-preserve" cx="108" cy="108" r="108" fill="#f7f8fc"/>
  <path class="uk-preserve" d="M153.01843,115.06683c.124-.26329.24933-.52533.359-.79425.11157-.27208.20672-.54718.30285-.82269.07611-.21906.15454-.43671.22138-.65857.09277-.30719.16943-.61609.24353-.92609.04883-.20427.09942-.40753.1405-.61351.062-.3117.10931-.62378.15289-.937.0307-.21881.06189-.43689.08388-.65686.0285-.28981.0445-.579.05756-.869.01184-.25286.02258-.50518.02282-.75878-.00024-.25361-.011-.50593-.02282-.75879-.01306-.29-.02906-.57924-.05756-.869-.022-.22-.05318-.43805-.08388-.65687-.04358-.31323-.09094-.62529-.15289-.937-.04108-.206-.09167-.40924-.1405-.61353-.0741-.31-.15076-.61889-.24353-.92608-.06684-.22187-.14527-.43953-.22138-.65857-.09613-.27552-.19128-.5506-.30285-.8227-.10968-.26892-.235-.531-.359-.79425-.10071-.2127-.19592-.4264-.30652-.63623-.17187-.32789-.36352-.64557-.558-.96241-.07135-.11589-.12909-.23632-.20362-.35112-.01892-.02919-.04132-.05452-.06042-.08352-.21778-.33116-.45636-.64965-.69922-.96617-.09638-.12581-.1864-.25831-.28571-.38061-.20862-.25617-.43646-.49872-.66186-.74347-.155-.16876-.3039-.34467-.46472-.5058-.16114-.16083-.337-.30975-.5058-.46472-.24475-.2254-.48731-.45325-.74347-.66187-.12232-.0993-.25482-.18934-.38062-.2857-.31653-.24286-.63507-.48157-.96624-.69928-.029-.019-.05434-.04144-.08344-.06037L99.11005,62.2627c-.0279-.01893-.05616-.03724-.08417-.056l-.18933-.126c-.12952-.08411-.26526-.14972-.39618-.22974-.30548-.187-.61157-.37188-.92975-.53912-.192-.10095-.38757-.18774-.582-.2804-.29138-.13879-.58234-.277-.88281-.399-.23224-.09442-.46723-.17377-.70192-.2569-.26811-.09479-.535-.19092-.80925-.272-.27417-.08136-.55017-.14606-.82666-.21259-.24225-.05817-.48255-.11957-.72882-.16693-.31836-.0614-.63765-.10382-.95752-.14606-.21357-.02813-.42482-.062-.64081-.08185-.35791-.033-.71545-.04467-1.07355-.05426-.15338-.00421-.30292-.02307-.45727-.02307-.03925,0-.077.00562-.11621.00586-.34638.00275-.69068.0279-1.03547.05231-.21087.01465-.42407.01941-.63269.04187-.25744.02814-.51141.0769-.76709.11707-.28772.0448-.57811.081-.86071.14044-.10578.02234-.20874.05633-.31408.08075A16.114,16.114,0,0,0,78.40894,64.046c-.07789.07507-.16242.14288-.23877.21942-.20374.20459-.39215.42828-.58637.64514-.173.19257-.35222.37909-.51611.57971-.13245.16272-.25257.33887-.37964.50769-.20831.27588-.41687.551-.60785.84-.02155.03272-.04687.0614-.06824.0943-.08423.1297-.15.26563-.2301.39679-.18677.30518-.37152.611-.53857.92883-.10118.19239-.18818.38843-.281.58326-.13862.291-.27675.58154-.3985.88159-.09449.23236-.17389.46753-.25708.7024-.09479.268-.19079.53479-.27191.809-.0813.27423-.14606.55035-.21261.8269-.05809.24219-.11949.48249-.16687.7287-.0614.31842-.10388.6377-.14617.95764-.02813.21344-.06189.42469-.08178.64063-.033.358-.04467.71559-.05426,1.07367-.00422.15332-.02308.30286-.02308.45721v64.1706c0,.15434.01886.30389.02308.45721.00959.3581.02124.71564.05426,1.07367.01989.21594.05365.42719.08178.64063.04229.31994.08477.63922.14617.95764.04738.24621.10878.48651.16687.7287.06653.27655.13129.55267.21261.8269.08112.27417.1771.541.27191.809.08319.23486.16259.47.25708.70239.12177.3.25988.59064.3985.88159.09281.19483.17981.39087.281.58327.16706.31781.3518.62366.53857.92883.08014.13117.14587.26709.2301.39679.02137.0329.04669.06159.06824.0943.191.289.39954.56415.60785.84.12707.16882.24719.345.37964.5077.16388.20062.34314.38715.51611.57971.19422.21686.38263.44057.58637.64516.07635.07652.16088.14433.23877.21942a16.11408,16.11408,0,0,0,7.71484,4.18885c.10535.02441.20831.05841.31409.08074.28259.05945.573.09565.86071.14045.25566.04017.50965.08892.76709.11706.20861.02246.42182.02722.63269.04187.34478.02442.68908.04956,1.03547.05231.03916.00024.077.00586.11621.00586.15435,0,.30388-.01886.45726-.02307.35811-.00959.71563-.02126,1.07354-.05428.216-.0199.42727-.05371.64081-.08183.31988-.04224.63916-.08466.95752-.14606.24627-.04736.48657-.10876.72882-.16693.27649-.06653.55249-.13122.82666-.21258.27429-.08112.54114-.17725.80926-.272.23468-.08313.46967-.16247.70191-.25689.30047-.12195.59143-.2602.88281-.399.1944-.09266.39-.17944.582-.28039.31817-.16724.62426-.35218.92974-.53913.13092-.08.26667-.14563.39618-.22973l.19294-.12818c.02562-.01722.05152-.03381.077-.05114l47.99224-31.88006c.02911-.01893.05444-.04133.08343-.06037.33118-.21772.64972-.45642.96625-.69928.1258-.09639.2583-.1864.38062-.28572.25616-.20861.49872-.43646.74347-.66185.16876-.155.34466-.30391.5058-.46473.16082-.16114.30975-.337.46472-.50579.2254-.24475.45324-.48732.66186-.74347.09931-.12233.18933-.25483.28571-.38063.24286-.31652.48144-.635.69922-.96618.0191-.029.0415-.05432.06042-.0835.07453-.11481.13226-.23523.20361-.35113.19452-.31684.38617-.63453.558-.96241C152.82251,115.49323,152.91772,115.27954,153.01843,115.06683Z" fill="url(#Unbenannter_Verlauf_9)"/>
  <path class="uk-preserve" d="M147.09872,121.86809A16.5,16.5,0,0,0,129.172,94.16188l-.04639.03012-48.2622,32.0594a16.5,16.5,0,0,0,17.9731,27.67615h0Z" fill="url(#Unbenannter_Verlauf_12)"/>
  <path class="uk-preserve" d="M129.12564,121.86809A16.5,16.5,0,0,0,147.09874,94.192L98.83655,62.08074A16.5,16.5,0,1,0,80.86346,89.75688Z" opacity="0.25" fill="url(#Unbenannter_Verlauf_8)" style="isolation: isolate"/>
  <path class="uk-preserve" d="M73.35,140.08942a16.5,16.5,0,0,0,33,0V75.91881a16.5,16.5,0,0,0-33,0Z" fill="url(#Unbenannter_Verlauf_6)"/>
</svg>
