<svg xmlns="http://www.w3.org/2000/svg" xmlns:xlink="http://www.w3.org/1999/xlink" width="145" height="24" viewBox="0 0 145 24">
  <defs>
    <linearGradient id="Unbenannter_Verlauf" x1="0.13" y1="1036.0094" x2="19.51299" y2="1036.0094" gradientTransform="translate(0 -1024)" gradientUnits="userSpaceOnUse">
      <stop offset="0" stop-color="#ff924f"/>
      <stop offset="0.43" stop-color="#ff6847"/>
      <stop offset="0.79" stop-color="#ff4b42"/>
      <stop offset="1" stop-color="#ff4040"/>
    </linearGradient>
    <linearGradient id="Unbenannter_Verlauf_2" x1="18.72049" y1="1038.4293" x2="0.93049" y2="1025.9593" gradientTransform="translate(0 -1024)" gradientUnits="userSpaceOnUse">
      <stop offset="0" stop-color="#ff3737" stop-opacity="0"/>
      <stop offset="0.06" stop-color="#ff3737" stop-opacity="0.02"/>
      <stop offset="0.13" stop-color="#ff3737" stop-opacity="0.07"/>
      <stop offset="0.2" stop-color="#ff3737" stop-opacity="0.15"/>
      <stop offset="0.27" stop-color="#ff3737" stop-opacity="0.27"/>
      <stop offset="0.34" stop-color="#ff3737" stop-opacity="0.42"/>
      <stop offset="0.41" stop-color="#ff3737" stop-opacity="0.61"/>
      <stop offset="0.48" stop-color="#ff3737" stop-opacity="0.83"/>
      <stop offset="0.53" stop-color="#ff3737"/>
      <stop offset="0.56" stop-color="#ff3737" stop-opacity="0.87"/>
      <stop offset="0.6" stop-color="#ff3737" stop-opacity="0.67"/>
      <stop offset="0.65" stop-color="#ff3737" stop-opacity="0.49"/>
      <stop offset="0.7" stop-color="#ff3737" stop-opacity="0.34"/>
      <stop offset="0.76" stop-color="#ff3737" stop-opacity="0.22"/>
      <stop offset="0.81" stop-color="#ff3737" stop-opacity="0.12"/>
      <stop offset="0.87" stop-color="#ff3737" stop-opacity="0.05"/>
      <stop offset="0.93" stop-color="#ff3737" stop-opacity="0.01"/>
      <stop offset="1" stop-color="#ff3737" stop-opacity="0"/>
    </linearGradient>
    <linearGradient id="Unbenannter_Verlauf_223" x1="18.71417" y1="1033.63541" x2="0.93742" y2="1046.09014" gradientTransform="translate(0 -1024)" gradientUnits="userSpaceOnUse">
      <stop offset="0" stop-color="#ff8b43"/>
      <stop offset="0.36" stop-color="#ff8b43" stop-opacity="0.62"/>
      <stop offset="0.8" stop-color="#ff8b43" stop-opacity="0.18"/>
      <stop offset="1" stop-color="#ff8b43" stop-opacity="0"/>
    </linearGradient>
    <linearGradient id="Unbenannter_Verlauf_222" x1="4.065" y1="1024.415" x2="4.065" y2="1047.62001" gradientTransform="translate(0 -1024)" gradientUnits="userSpaceOnUse">
      <stop offset="0" stop-color="#ffcf00"/>
      <stop offset="0.2" stop-color="#ffcf00"/>
      <stop offset="0.82" stop-color="#fb0" stop-opacity="0"/>
    </linearGradient>
  </defs>
  <path d="M57.36,8.09a6.2,6.2,0,0,0-3.57-1,6.61,6.61,0,0,0-3.5.91A6.21,6.21,0,0,0,48,10.53a8.11,8.11,0,0,0-.85,3.84A7.41,7.41,0,0,0,48,18a6.25,6.25,0,0,0,2.4,2.49,7.07,7.07,0,0,0,3.6.89,6.58,6.58,0,0,0,3.61-1A6,6,0,0,0,60,17.53l-3-.91a3.31,3.31,0,0,1-1.3,1.47,3.6,3.6,0,0,1-1.92.49,3.17,3.17,0,0,1-2.62-1.13,4.79012,4.79012,0,0,1-.88-2.36h9.8a9.27,9.27,0,0,0-.54-4.21A5.73006,5.73006,0,0,0,57.36,8.09Zm-3.45,1.7a2.79,2.79,0,0,1,2.4,1,5.27,5.27,0,0,1,.71,2H50.38a5.30984,5.30984,0,0,1,.78-1.87A3.32,3.32,0,0,1,53.91,9.79Zm17-2.29h3L69.06,21H66L61.13,7.5h3l3.4,9.79Zm-29.64.67a.69.69,0,0,0-.13-.11,5.39,5.39,0,0,0-3.23-.94,5.91005,5.91005,0,0,0-3.32.94,6.00011,6.00011,0,0,0-2.18,2.53,8.28,8.28,0,0,0-.77,3.66,8.47,8.47,0,0,0,.76,3.64,6.26,6.26,0,0,0,2.15,2.55,6.26,6.26,0,0,0,6.59,0c.18-.13.35-.28.51-.42v1h2.62V3h-3Zm0,8.39a2.93,2.93,0,0,1-3,2.11,3.1199,3.1199,0,0,1-1.94-.6,3.56,3.56,0,0,1-1.13-1.6,6.57985,6.57985,0,0,1-.37-2.24A6.26978,6.26978,0,0,1,35.22,12a3.46,3.46,0,0,1,1.11-1.58,3.25005,3.25005,0,0,1,2-.59,3,3,0,0,1,1.88.55,3.3,3.3,0,0,1,1.07,1.55,7.28965,7.28965,0,0,1,.34,2.32,7.26982,7.26982,0,0,1-.34,2.31Zm74.6-4.93a7.4,7.4,0,0,0-.45,2.59,6.04994,6.04994,0,0,0,1,3.63,3.51,3.51,0,0,0,3,1.38,3.78,3.78,0,0,0,2.19-.6A3.86,3.86,0,0,0,123,16.9l2.25.59a5.78006,5.78006,0,0,1-2.19,2.89,6.93,6.93,0,0,1-7,.08,5.93,5.93,0,0,1-2.19-2.54,8.57989,8.57989,0,0,1-.77-3.67,8.48,8.48,0,0,1,.79-3.71A6.00007,6.00007,0,0,1,116.07,8a7,7,0,0,1,7.14.14A5.11,5.11,0,0,1,125.28,11l-2.2.66a3.65,3.65,0,0,0-1.39-1.82,3.75,3.75,0,0,0-2.18-.65,3.58,3.58,0,0,0-3.63,2.44Zm-29.6,3.83a3.27,3.27,0,0,1,.44,1.76,3.68,3.68,0,0,1-1.44,3.07,6.23,6.23,0,0,1-4,1.07,6.87,6.87,0,0,1-4-1.05,4.41005,4.41005,0,0,1-1.89-3L77.73,17A2.89,2.89,0,0,0,79,18.73a4.42,4.42,0,0,0,2.45.65,3.61,3.61,0,0,0,2.17-.58,1.81,1.81,0,0,0,.8-1.56,1.5101,1.5101,0,0,0-.27-.92,2.35,2.35,0,0,0-1.08-.67c-.54-.21-1.37-.46-2.47-.76a16.18028,16.18028,0,0,1-2.81-1,3.6,3.6,0,0,1-1.46-1.19,3,3,0,0,1-.44-1.64A3.45,3.45,0,0,1,76.53,9a4.2,4.2,0,0,1,1.82-1.38,6.84,6.84,0,0,1,2.72-.5,7.38994,7.38994,0,0,1,2.75.49,5,5,0,0,1,2,1.38,3.91,3.91,0,0,1,.88,2.09l-2.28.41a2.48,2.48,0,0,0-1-1.71,4,4,0,0,0-2.26-.67A3.8,3.8,0,0,0,79,9.59,1.56,1.56,0,0,0,78.12,11a1.21005,1.21005,0,0,0,.31.85,2.90992,2.90992,0,0,0,1.13.65,22.37841,22.37841,0,0,0,2.42.71,13.52,13.52,0,0,1,2.82,1A3.43007,3.43007,0,0,1,86.27,15.46ZM139.34,21h-3.11l-6.14-6.5V21h-2.26V3h2.25V14l5.67-6.5h2.88l-6,6.75ZM110.13,9.8a3.81,3.81,0,0,0-1.89-2,7.00005,7.00005,0,0,0-3.16-.66,6.09,6.09,0,0,0-3.69,1,4.93006,4.93006,0,0,0-1.88,2.78l2.11.64a3.06,3.06,0,0,1,1.29-1.8,4.16,4.16,0,0,1,2.15-.56,3.32,3.32,0,0,1,2.6.87,3.81,3.81,0,0,1,.72,2.3l-1.5.21c-.81.1-1.62.22-2.41.35a20.08016,20.08016,0,0,0-2.15.46,5.83,5.83,0,0,0-1.77.82,3.5699,3.5699,0,0,0-1.14,1.3,4.26,4.26,0,0,0,.12,3.84,3.73,3.73,0,0,0,1.53,1.47,5.26993,5.26993,0,0,0,2.53.56,6.27993,6.27993,0,0,0,3.31-.84,5.41,5.41,0,0,0,1.67-1.63V21h2V12.69a9.81016,9.81016,0,0,0-.08-1.53A4.56,4.56,0,0,0,110.13,9.8Zm-2,6.6a3.66,3.66,0,0,1-.7,1.54A3.87,3.87,0,0,1,106,19.08a4.65009,4.65009,0,0,1-2.08.43,3.23,3.23,0,0,1-1.56-.31,2,2,0,0,1-1.16-1.86,1.90989,1.90989,0,0,1,.29-1.06,2.41994,2.41994,0,0,1,.78-.71,5.319,5.319,0,0,1,1-.46,15.67115,15.67115,0,0,1,1.68-.36c.63-.1,1.29-.2,2-.29l1.37-.19V15A5.5598,5.5598,0,0,1,108.13,16.4ZM93,7.5h4V9.34H93v7.87a2.07,2.07,0,0,0,.26,1,1.84,1.84,0,0,0,1.43.94A8.12022,8.12022,0,0,0,97,19.09V21a9.43022,9.43022,0,0,1-2.37.21,5.41,5.41,0,0,1-2.09-.48,2.92006,2.92006,0,0,1-1.38-1.35,3.7902,3.7902,0,0,1-.43-1.62V9.34H88V7.5h2.73V3.75H93Z" fill="#1a1a1a"/>
  <path d="M19.49,11.58a3.9,3.9,0,0,0-1.71-2.82h0L6.26,1.09a3.93,3.93,0,0,0-5,.53A3.87,3.87,0,0,0,.13,4.35V19.68a4,4,0,0,0,4,3.91,3.86,3.86,0,0,0,2.16-.68l11.48-7.6A4,4,0,0,0,19.49,11.58Z" fill="url(#Unbenannter_Verlauf)"/>
  <path d="M15.59,16a3.93,3.93,0,0,1-2.18-.66L1.88,7.62A3.93005,3.93005,0,0,1,6.24,1.08h0L17.77,8.77A3.93,3.93,0,0,1,15.59,16Z" opacity="0.25" fill="url(#Unbenannter_Verlauf_2)" style="isolation: isolate"/>
  <path d="M4.06,23.62a3.93,3.93,0,0,1-2.17-7.21L13.42,8.76a3.93144,3.93144,0,0,1,4.35,6.55L6.24,23A4,4,0,0,1,4.06,23.62Z" fill="url(#Unbenannter_Verlauf_223)"/>
  <path d="M4.06,23.62A3.93,3.93,0,0,1,.13,19.69h0V4.35A3.935,3.935,0,0,1,8,4.35V19.69a3.93,3.93,0,0,1-3.93,3.93Z" fill="url(#Unbenannter_Verlauf_222)"/>
</svg>
