<svg xmlns="http://www.w3.org/2000/svg" width="130" height="130" viewBox="0 0 130 130">

  <defs>
    <linearGradient id="svg-defs-gradient-squared-icon-competitive-salary" x1="35" y1="95" x2="95" y2="35" gradientUnits="userSpaceOnUse">
      <stop offset="0" stop-color="#fe3966"/>
      <stop offset="0.5" stop-color="#ff4538"/>
      <stop offset="1" stop-color="#ff8a42"/>
    </linearGradient>
    <mask id="svg-defs-mask-squared-icon-competitive-salary">
      <path class="uk-preserve" d="M87.56,74.24v8.18a3.32,3.32,0,0,1-3.32,3.32H44.18A3.78,3.78,0,0,1,40.4,82V49.63" fill="none" stroke="#fff" stroke-linecap="round" stroke-linejoin="round" stroke-width="2"/>
      <circle class="uk-preserve" cx="79.15" cy="69.31" r="1.93" fill="#fff"/>
      <path class="uk-preserve" d="M79.42,64.37H89.6a0,0,0,0,1,0,0v9.86a0,0,0,0,1,0,0H79.42a4.93,4.93,0,0,1-4.93-4.93v0a4.93,4.93,0,0,1,4.93-4.93Z" fill="none" stroke="#fff" stroke-linecap="round" stroke-linejoin="round" stroke-width="2"/>
      <path class="uk-preserve" d="M82.42,44.26H44.7a4.31,4.31,0,0,0-4.3,4.31h0a4.31,4.31,0,0,0,4.3,4.3H84.05a3.51,3.51,0,0,1,3.51,3.51v8" fill="none" stroke="#fff" stroke-linecap="round" stroke-linejoin="round" stroke-width="2"/>
      <line class="uk-preserve" x1="45.77" y1="48.57" x2="82.42" y2="48.57" fill="none" stroke="#fff" stroke-linecap="round" stroke-linejoin="round" stroke-width="2"/>
    </mask>
  </defs>

  <style>

    img[src*="squared-icon-competitive-salary.svg"] + svg {
      filter: drop-shadow(20px 20px 20px rgba(60, 65, 124, 0.12)) drop-shadow(-20px -20px 20px rgba(255, 255, 255, 0.9));
      will-change: filter;
    }

  </style>

  <rect class="uk-preserve" x="0" y="0" width="130" height="130" rx="24" fill="#f7f8fc" />
  <rect class="uk-preserve" x="35" y="35" width="60" height="60" fill="url(#svg-defs-gradient-squared-icon-competitive-salary)" mask="url(#svg-defs-mask-squared-icon-competitive-salary)" />

</svg>
