<svg xmlns="http://www.w3.org/2000/svg" width="500" height="340" viewBox="0 0 500 340">

  <style>

    img[src*="enterprise-feature-collaboration.svg"] + svg {
      filter: drop-shadow(20px 20px 20px rgba(57,65,124, 0.1)) drop-shadow(-20px -20px 20px rgba(255, 255, 255, 0.6));
      will-change: filter;
    }

  </style>

  <circle class="uk-preserve" cx="251.062" cy="88.753" r="71.18" fill="#EDF1FA"/>
  <circle class="uk-preserve" cx="390.28" cy="105.966" r="58.593" fill="#EDF1FA"/>
  <path class="uk-preserve" d="M499.074,288.105a10.244,10.244,0,0,1-10.23,10.215H382.1c.534,4.285.934,8.644,1.171,13.033v.563a10.513,10.513,0,0,1-10.511,10.512H126.641a10.542,10.542,0,0,1-9.948-11.061c.237-4.447.638-8.747,1.171-13.032H10.523A10.214,10.214,0,0,1,.945,287.522v-.01h0C5.482,218.719,52.837,164.6,110.585,164.6h.874c23.218.208,44.716,9.178,62.389,24.315,21.6-18.251,47.844-28.955,76.147-28.955h1.038c27.9.252,53.745,10.912,75.079,28.94,17.9-15.33,39.7-24.329,63.264-24.329h.874c57.348.533,104.258,54.456,108.765,122.894A3.2,3.2,0,0,1,499.074,288.105Z" fill="#EDF1FA"/>
  <circle class="uk-preserve" cx="111.459" cy="105.966" r="58.593" fill="#EDF1FA"/>

</svg>
