<svg xmlns="http://www.w3.org/2000/svg" width="500" height="500" viewBox="0 0 500 500">

  <style>

    img[src*="feature-infrastructure.svg"] + svg {
      filter: drop-shadow(20px 20px 20px rgba(57,65,124, 0.1)) drop-shadow(-20px -20px 20px rgba(255, 255, 255, 0.6));
      will-change: filter;
    }

  </style>

  <path class="uk-preserve" d="M48.023,22.5H208.606a25.46,25.46,0,0,1,25.518,25.4h0V208.733a25.458,25.458,0,0,1-25.518,25.395H48.023A25.461,25.461,0,0,1,22.5,208.733h0V47.9A25.459,25.459,0,0,1,48.022,22.5Z" fill="#EDF1FA"/>
  <path class="uk-preserve" d="M48.023,265.872H208.606a25.458,25.458,0,0,1,25.518,25.394h0V452.1a25.459,25.459,0,0,1-25.518,25.4H48.023A25.459,25.459,0,0,1,22.5,452.105h0V291.268a25.458,25.458,0,0,1,25.518-25.4h.005Z" fill="#EDF1FA"/>
  <path class="uk-preserve" d="M291.394,22.5H451.977A25.461,25.461,0,0,1,477.5,47.9h0V208.733a25.458,25.458,0,0,1-25.518,25.395H291.394a25.458,25.458,0,0,1-25.518-25.394h0V47.9A25.46,25.46,0,0,1,291.394,22.5Z" fill="#EDF1FA"/>
  <path class="uk-preserve" d="M291.394,265.872H451.977A25.461,25.461,0,0,1,477.5,291.267h0V452.1a25.459,25.459,0,0,1-25.518,25.4H291.394a25.459,25.459,0,0,1-25.518-25.4h0V291.268A25.458,25.458,0,0,1,291.394,265.872Z" fill="#EDF1FA"/>

</svg>
