<svg xmlns="http://www.w3.org/2000/svg" xmlns:xlink="http://www.w3.org/1999/xlink" width="145" height="24" viewBox="0 0 145 24">
  <defs>
    <linearGradient id="Unbenannter_Verlauf" x1="0.13" y1="1036.0094" x2="19.51299" y2="1036.0094" gradientTransform="translate(0 -1024)" gradientUnits="userSpaceOnUse">
      <stop offset="0" stop-color="#1865e0"/>
      <stop offset="1" stop-color="#16b6f5"/>
    </linearGradient>
    <linearGradient id="Unbenannter_Verlauf_88" x1="18.71417" y1="1033.63541" x2="0.93742" y2="1046.09014" gradientTransform="translate(0 -1024)" gradientUnits="userSpaceOnUse">
      <stop offset="0" stop-color="#199ef2"/>
      <stop offset="0.09897" stop-color="#199ef2" stop-opacity="0.97649"/>
      <stop offset="0.22735" stop-color="#199ef2" stop-opacity="0.90945"/>
      <stop offset="0.37198" stop-color="#199ef2" stop-opacity="0.79881"/>
      <stop offset="0.52847" stop-color="#199ef2" stop-opacity="0.64447"/>
      <stop offset="0.69456" stop-color="#199ef2" stop-opacity="0.44622"/>
      <stop offset="0.86593" stop-color="#199ef2" stop-opacity="0.20817"/>
      <stop offset="1" stop-color="#199ef2" stop-opacity="0"/>
    </linearGradient>
    <linearGradient id="Unbenannter_Verlauf_3" x1="18.72049" y1="1038.4293" x2="0.93049" y2="1025.9593" gradientTransform="translate(0 -1024)" gradientUnits="userSpaceOnUse">
      <stop offset="0" stop-color="#1865e0" stop-opacity="0"/>
      <stop offset="0.05" stop-color="#1865e0" stop-opacity="0.16"/>
      <stop offset="0.14" stop-color="#1865e0" stop-opacity="0.41"/>
      <stop offset="0.22" stop-color="#1865e0" stop-opacity="0.62"/>
      <stop offset="0.31" stop-color="#1865e0" stop-opacity="0.79"/>
      <stop offset="0.38" stop-color="#1865e0" stop-opacity="0.9"/>
      <stop offset="0.45" stop-color="#1865e0" stop-opacity="0.98"/>
      <stop offset="0.5" stop-color="#1865e0"/>
      <stop offset="0.55" stop-color="#1865e0" stop-opacity="0.97"/>
      <stop offset="0.62" stop-color="#1865e0" stop-opacity="0.9"/>
      <stop offset="0.7" stop-color="#1865e0" stop-opacity="0.77"/>
      <stop offset="0.78" stop-color="#1865e0" stop-opacity="0.6"/>
      <stop offset="0.87" stop-color="#1865e0" stop-opacity="0.38"/>
      <stop offset="0.96" stop-color="#1865e0" stop-opacity="0.11"/>
      <stop offset="1" stop-color="#1865e0" stop-opacity="0"/>
    </linearGradient>
    <linearGradient id="Unbenannter_Verlauf_47" x1="4.065" y1="1024.415" x2="4.065" y2="1047.62001" gradientTransform="translate(0 -1024)" gradientUnits="userSpaceOnUse">
      <stop offset="0" stop-color="#16fff5"/>
      <stop offset="0.84" stop-color="#16ecf5" stop-opacity="0"/>
    </linearGradient>
  </defs>
  <path d="M57.4,8.1a6.55,6.55,0,0,0-3.6-1,7.27008,7.27008,0,0,0-3.5.9A6.16,6.16,0,0,0,48,10.5a7.25,7.25,0,0,0-.8,3.8,8.63,8.63,0,0,0,.8,3.6,6.41,6.41,0,0,0,2.4,2.5,7.4,7.4,0,0,0,3.6.9,6.36,6.36,0,0,0,6-3.8l-3-.9a3.69994,3.69994,0,0,1-1.3,1.5,4.08,4.08,0,0,1-1.9.5,3.12,3.12,0,0,1-2.6-1.1,5.1,5.1,0,0,1-.9-2.4h9.8a9.83013,9.83013,0,0,0-.5-4.2A6.19,6.19,0,0,0,57.4,8.1ZM53.9,9.8a2.79,2.79,0,0,1,2.4,1,4.78992,4.78992,0,0,1,.7,2H50.4a4.52,4.52,0,0,1,.8-1.9A3.07,3.07,0,0,1,53.9,9.8Zm17-2.3h3L69.1,21H66L61.1,7.5h3l3.4,9.8Zm-29.6.7-.1-.1A5.2,5.2,0,0,0,38,7.2a6.3,6.3,0,0,0-3.3.9,5.86,5.86,0,0,0-2.2,2.5,9.05009,9.05009,0,0,0-.8,3.7,7.36009,7.36009,0,0,0,.8,3.6,5.86,5.86,0,0,0,2.2,2.5,6.5,6.5,0,0,0,6.6,0c.2-.1.3-.3.5-.4v1h2.6V3h-3Zm0,8.4a2.92,2.92,0,0,1-3,2.1,3.09,3.09,0,0,1-1.9-.6,3.5,3.5,0,0,1-1.1-1.6,5.72013,5.72013,0,0,1-.4-2.2,5.37,5.37,0,0,1,.4-2.2,3.5,3.5,0,0,1,1.1-1.6,3.64,3.64,0,0,1,2-.6,3.32,3.32,0,0,1,1.9.6,3.09994,3.09994,0,0,1,1.1,1.6,5.80008,5.80008,0,0,1,.3,2.3C41.6,15,41.5,15.8,41.3,16.6Zm74.6-5a5.76007,5.76007,0,0,0-.4,2.6,5.62,5.62,0,0,0,1,3.6,3.76,3.76,0,0,0,3,1.4,4.28,4.28,0,0,0,2.2-.6,3.87,3.87,0,0,0,1.4-1.7l2.2.6a5.77007,5.77007,0,0,1-2.2,2.9,7,7,0,0,1-7,.1,5.86008,5.86008,0,0,1-2.2-2.5,9.45984,9.45984,0,0,1-.8-3.7,8,8,0,0,1,.8-3.7,5.86,5.86,0,0,1,2.2-2.5,7,7,0,0,1,7.1.1,5.6201,5.6201,0,0,1,2.1,2.9l-2.2.7a3.57,3.57,0,0,0-1.4-1.8,3.38,3.38,0,0,0-2.2-.6A3.21,3.21,0,0,0,115.9,11.6ZM86.3,15.5a2.71,2.71,0,0,1,.4,1.8,4.12,4.12,0,0,1-1.4,3.1,6.38,6.38,0,0,1-4,1.1,7,7,0,0,1-4-1,4.63,4.63,0,0,1-1.9-3l2.3-.3A2.72,2.72,0,0,0,79,18.9a3.47,3.47,0,0,0,2.4.6,4.28,4.28,0,0,0,2.2-.6,1.82,1.82,0,0,0,.8-1.6,1.4,1.4,0,0,0-.3-.9,2.66,2.66,0,0,0-1.1-.7,24.23067,24.23067,0,0,0-2.5-.8,13.16,13.16,0,0,1-2.8-1,4.6,4.6,0,0,1-1.5-1.2,2.39992,2.39992,0,0,1-.4-1.6A4,4,0,0,1,76.4,9a4.9301,4.9301,0,0,1,1.8-1.4,6.39,6.39,0,0,1,2.7-.5,9.21993,9.21993,0,0,1,2.8.5,4.84992,4.84992,0,0,1,2,1.4,4,4,0,0,1,.9,2.1l-2.3.4a2.33,2.33,0,0,0-1-1.7A4.69,4.69,0,0,0,81,9.1a3.41,3.41,0,0,0-2.2.5,1.7,1.7,0,0,0-.9,1.4,1.62,1.62,0,0,0,.3.9,2.48,2.48,0,0,0,1.1.6,22.65982,22.65982,0,0,0,2.4.7,13.15974,13.15974,0,0,1,2.8,1A3.12,3.12,0,0,1,86.3,15.5Zm53,5.5h-3.1l-6.1-6.5V21h-2.3V3H130V14l5.7-6.5h2.9l-6,6.8ZM110.1,9.8a3.68,3.68,0,0,0-1.9-2,7.08009,7.08009,0,0,0-3.2-.7,6.13,6.13,0,0,0-3.7,1,5.43006,5.43006,0,0,0-1.9,2.8l2.1.6a3.42,3.42,0,0,1,1.3-1.8,4.28,4.28,0,0,1,2.2-.6,3.1,3.1,0,0,1,2.6.9,3.86,3.86,0,0,1,.7,2.3l-1.5.2a19.37977,19.37977,0,0,0-2.4.4c-.74.13-1.48.3-2.2.5a7.07023,7.07023,0,0,0-1.8.8,2.79,2.79,0,0,0-1.1,1.3,4.24,4.24,0,0,0,.1,3.8,5.63018,5.63018,0,0,0,1.5,1.5,5.7201,5.7201,0,0,0,2.5.6,7.27,7.27,0,0,0,3.3-.8,6.63993,6.63993,0,0,0,1.7-1.6v2h2V12.7a7.57006,7.57006,0,0,0-.1-1.5A2.18005,2.18005,0,0,0,110.1,9.8Zm-2,6.6a2.65007,2.65007,0,0,1-.7,1.5A3.57991,3.57991,0,0,1,106,19a5.2,5.2,0,0,1-2.1.4,4.36994,4.36994,0,0,1-1.6-.3,2.11,2.11,0,0,1-1.2-1.9,2.35,2.35,0,0,1,.3-1.1,2.83012,2.83012,0,0,1,.8-.7c.3-.2.7-.3,1-.5a10.78066,10.78066,0,0,1,1.7-.4l2-.3,1.4-.2v1A3.49991,3.49991,0,0,1,108.1,16.4ZM93,7.5h4V9.3H93v7.9a2,2,0,0,0,.3,1,1.7,1.7,0,0,0,1.4.9A5.92993,5.92993,0,0,0,97,19v2a9.65991,9.65991,0,0,1-2.4.2,5.26,5.26,0,0,1-2.1-.5,3.39,3.39,0,0,1-1.8-3V9.3H88V7.5h2.7V3.8H93Z" fill="#223650"/>
  <path d="M19.49,11.58a3.9,3.9,0,0,0-1.71-2.82h0L6.26,1.09a3.93,3.93,0,0,0-5,.53A3.87,3.87,0,0,0,.13,4.35V19.68a4,4,0,0,0,4,3.91,3.86,3.86,0,0,0,2.16-.68l11.48-7.6A4,4,0,0,0,19.49,11.58Z" fill="url(#Unbenannter_Verlauf)"/>
  <path d="M4.06,23.62a3.93,3.93,0,0,1-2.17-7.21L13.42,8.76a3.93144,3.93144,0,0,1,4.35,6.55L6.24,23A4,4,0,0,1,4.06,23.62Z" fill="url(#Unbenannter_Verlauf_88)"/>
  <path d="M15.59,16a3.93,3.93,0,0,1-2.18-.66L1.88,7.62A3.93005,3.93005,0,0,1,6.24,1.08h0L17.77,8.77A3.93,3.93,0,0,1,15.59,16Z" opacity="0.25" fill="url(#Unbenannter_Verlauf_3)" style="isolation: isolate"/>
  <path d="M4.06,23.62A3.93,3.93,0,0,1,.13,19.69h0V4.35A3.935,3.935,0,0,1,8,4.35V19.69a3.93,3.93,0,0,1-3.93,3.93Z" fill="url(#Unbenannter_Verlauf_47)"/>
</svg>
