<svg xmlns="http://www.w3.org/2000/svg" width="130" height="130" viewBox="0 0 130 130">

  <defs>
    <linearGradient id="svg-defs-gradient-squared-icon-project-management" x1="35" y1="95" x2="95" y2="35" gradientUnits="userSpaceOnUse">
      <stop offset="0" stop-color="#1865E0"/>
      <stop offset="0.5" stop-color="#199EF2"/>
      <stop offset="1" stop-color="#16B6F5"/>
    </linearGradient>
    <mask id="svg-defs-mask-squared-icon-project-management">
      <path class="uk-preserve" d="M76.26,60.08c-1.9.51.36,2.58-3.19,3.88-4.21,1.55-2.89-3-6.19,0s1.36,2.09-.52,6.16-4.18-.09-4.36,4.39,2.44.52,4,4.72-3,2.89,0,6.19,2.09-1.36,6.16.52-.09,4.18,4.39,4.36.52-2.44,4.72-4,2.89,3,6.19,0-1.36-2.09.52-6.16,4.18.09,4.36-4.39-2.44-.52-4-4.73,3-2.89,0-6.19-2.09,1.36-6.16-.52.09-4.17-4.39-4.36a5.69,5.69,0,0,0-1.54.11" fill="none" stroke="#fff" stroke-linejoin="round" stroke-width="2"/>
      <circle class="uk-preserve" cx="77.17" cy="75.15" r="7.08" fill="none" stroke="#fff" stroke-linejoin="round" stroke-width="2"/>
      <polyline class="uk-preserve" points="61.61 82.06 37.64 82.06 37.64 43.35 86.49 43.35 86.49 59.94" fill="none" stroke="#fff" stroke-linecap="round" stroke-linejoin="round" stroke-width="2"/>
      <line class="uk-preserve" x1="37.64" y1="50.72" x2="86.49" y2="50.72" fill="none" stroke="#fff" stroke-linecap="round" stroke-linejoin="round" stroke-width="2"/>
      <line class="uk-preserve" x1="46.86" y1="39.66" x2="46.86" y2="46.12" fill="none" stroke="#fff" stroke-linecap="round" stroke-linejoin="round" stroke-width="2"/>
      <line class="uk-preserve" x1="77.28" y1="39.66" x2="77.28" y2="46.12" fill="none" stroke="#fff" stroke-linecap="round" stroke-linejoin="round" stroke-width="2"/>
    </mask>
  </defs>

  <style>

    img[src*="squared-icon-project-management.svg"] + svg {
      filter: drop-shadow(20px 20px 20px rgba(57,65,124, 0.1)) drop-shadow(-20px -20px 20px rgba(255, 255, 255, 0.6));
      will-change: filter;
    }

  </style>

  <rect class="uk-preserve" x="0" y="0" width="130" height="130" rx="24" fill="#EDF1FA" />
  <rect class="uk-preserve" x="35" y="35" width="60" height="60" fill="url(#svg-defs-gradient-squared-icon-project-management)" mask="url(#svg-defs-mask-squared-icon-project-management)" />

</svg>
